<?xml version="1.0" encoding="utf-8" standalone="no"?>
<!DOCTYPE svg PUBLIC "-//W3C//DTD SVG 1.1//EN"
  "http://www.w3.org/Graphics/SVG/1.1/DTD/svg11.dtd">
<!-- Created with matplotlib (https://matplotlib.org/) -->
<svg height="360pt" version="1.1" viewBox="0 0 864 360" width="864pt" xmlns="http://www.w3.org/2000/svg" xmlns:xlink="http://www.w3.org/1999/xlink">
 <defs>
  <style type="text/css">
*{stroke-linecap:butt;stroke-linejoin:round;}
  </style>
 </defs>
 <g id="figure_1">
  <g id="patch_1">
   <path d="M 0 360 
L 864 360 
L 864 0 
L 0 0 
z
" style="fill:#ffffff;"/>
  </g>
  <g id="axes_1">
   <g id="patch_2">
    <path d="M 62.55 318.2 
L 348.565 318.2 
L 348.565 26.8 
L 62.55 26.8 
z
" style="fill:#ffffff;"/>
   </g>
   <g id="patch_3">
    <path clip-path="url(#p90aa41c165)" d="M 162.65525 163.228182 
L 248.45975 163.228182 
L 248.45975 101.636818 
L 162.65525 101.636818 
L 162.65525 163.228182 
z
" style="fill:#42be42;stroke:#4c4c4c;stroke-linejoin:miter;stroke-width:1.5;"/>
   </g>
   <g id="matplotlib.axis_1"/>
   <g id="matplotlib.axis_2">
    <g id="ytick_1">
     <g id="line2d_1">
      <defs>
       <path d="M 0 0 
L -3.5 0 
" id="m49348ec702" style="stroke:#000000;stroke-width:0.8;"/>
      </defs>
      <g>
       <use style="stroke:#000000;stroke-width:0.8;" x="62.55" xlink:href="#m49348ec702" y="304.954545"/>
      </g>
     </g>
     <g id="text_1">
      <!-- −1.00 -->
      <defs>
       <path d="M 10.59375 35.5 
L 73.1875 35.5 
L 73.1875 27.203125 
L 10.59375 27.203125 
z
" id="DejaVuSans-8722"/>
       <path d="M 12.40625 8.296875 
L 28.515625 8.296875 
L 28.515625 63.921875 
L 10.984375 60.40625 
L 10.984375 69.390625 
L 28.421875 72.90625 
L 38.28125 72.90625 
L 38.28125 8.296875 
L 54.390625 8.296875 
L 54.390625 0 
L 12.40625 0 
z
" id="DejaVuSans-49"/>
       <path d="M 10.6875 12.40625 
L 21 12.40625 
L 21 0 
L 10.6875 0 
z
" id="DejaVuSans-46"/>
       <path d="M 31.78125 66.40625 
Q 24.171875 66.40625 20.328125 58.90625 
Q 16.5 51.421875 16.5 36.375 
Q 16.5 21.390625 20.328125 13.890625 
Q 24.171875 6.390625 31.78125 6.390625 
Q 39.453125 6.390625 43.28125 13.890625 
Q 47.125 21.390625 47.125 36.375 
Q 47.125 51.421875 43.28125 58.90625 
Q 39.453125 66.40625 31.78125 66.40625 
z
M 31.78125 74.21875 
Q 44.046875 74.21875 50.515625 64.515625 
Q 56.984375 54.828125 56.984375 36.375 
Q 56.984375 17.96875 50.515625 8.265625 
Q 44.046875 -1.421875 31.78125 -1.421875 
Q 19.53125 -1.421875 13.0625 8.265625 
Q 6.59375 17.96875 6.59375 36.375 
Q 6.59375 54.828125 13.0625 64.515625 
Q 19.53125 74.21875 31.78125 74.21875 
z
" id="DejaVuSans-48"/>
      </defs>
      <g transform="translate(24.904688 308.753764)scale(0.1 -0.1)">
       <use xlink:href="#DejaVuSans-8722"/>
       <use x="83.789062" xlink:href="#DejaVuSans-49"/>
       <use x="147.412109" xlink:href="#DejaVuSans-46"/>
       <use x="179.199219" xlink:href="#DejaVuSans-48"/>
       <use x="242.822266" xlink:href="#DejaVuSans-48"/>
      </g>
     </g>
    </g>
    <g id="ytick_2">
     <g id="line2d_2">
      <g>
       <use style="stroke:#000000;stroke-width:0.8;" x="62.55" xlink:href="#m49348ec702" y="271.840909"/>
      </g>
     </g>
     <g id="text_2">
      <!-- −0.75 -->
      <defs>
       <path d="M 8.203125 72.90625 
L 55.078125 72.90625 
L 55.078125 68.703125 
L 28.609375 0 
L 18.3125 0 
L 43.21875 64.59375 
L 8.203125 64.59375 
z
" id="DejaVuSans-55"/>
       <path d="M 10.796875 72.90625 
L 49.515625 72.90625 
L 49.515625 64.59375 
L 19.828125 64.59375 
L 19.828125 46.734375 
Q 21.96875 47.46875 24.109375 47.828125 
Q 26.265625 48.1875 28.421875 48.1875 
Q 40.625 48.1875 47.75 41.5 
Q 54.890625 34.8125 54.890625 23.390625 
Q 54.890625 11.625 47.5625 5.09375 
Q 40.234375 -1.421875 26.90625 -1.421875 
Q 22.3125 -1.421875 17.546875 -0.640625 
Q 12.796875 0.140625 7.71875 1.703125 
L 7.71875 11.625 
Q 12.109375 9.234375 16.796875 8.0625 
Q 21.484375 6.890625 26.703125 6.890625 
Q 35.15625 6.890625 40.078125 11.328125 
Q 45.015625 15.765625 45.015625 23.390625 
Q 45.015625 31 40.078125 35.4375 
Q 35.15625 39.890625 26.703125 39.890625 
Q 22.75 39.890625 18.8125 39.015625 
Q 14.890625 38.140625 10.796875 36.28125 
z
" id="DejaVuSans-53"/>
      </defs>
      <g transform="translate(24.904688 275.640128)scale(0.1 -0.1)">
       <use xlink:href="#DejaVuSans-8722"/>
       <use x="83.789062" xlink:href="#DejaVuSans-48"/>
       <use x="147.412109" xlink:href="#DejaVuSans-46"/>
       <use x="179.199219" xlink:href="#DejaVuSans-55"/>
       <use x="242.822266" xlink:href="#DejaVuSans-53"/>
      </g>
     </g>
    </g>
    <g id="ytick_3">
     <g id="line2d_3">
      <g>
       <use style="stroke:#000000;stroke-width:0.8;" x="62.55" xlink:href="#m49348ec702" y="238.727273"/>
      </g>
     </g>
     <g id="text_3">
      <!-- −0.50 -->
      <g transform="translate(24.904688 242.526491)scale(0.1 -0.1)">
       <use xlink:href="#DejaVuSans-8722"/>
       <use x="83.789062" xlink:href="#DejaVuSans-48"/>
       <use x="147.412109" xlink:href="#DejaVuSans-46"/>
       <use x="179.199219" xlink:href="#DejaVuSans-53"/>
       <use x="242.822266" xlink:href="#DejaVuSans-48"/>
      </g>
     </g>
    </g>
    <g id="ytick_4">
     <g id="line2d_4">
      <g>
       <use style="stroke:#000000;stroke-width:0.8;" x="62.55" xlink:href="#m49348ec702" y="205.613636"/>
      </g>
     </g>
     <g id="text_4">
      <!-- −0.25 -->
      <defs>
       <path d="M 19.1875 8.296875 
L 53.609375 8.296875 
L 53.609375 0 
L 7.328125 0 
L 7.328125 8.296875 
Q 12.9375 14.109375 22.625 23.890625 
Q 32.328125 33.6875 34.8125 36.53125 
Q 39.546875 41.84375 41.421875 45.53125 
Q 43.3125 49.21875 43.3125 52.78125 
Q 43.3125 58.59375 39.234375 62.25 
Q 35.15625 65.921875 28.609375 65.921875 
Q 23.96875 65.921875 18.8125 64.3125 
Q 13.671875 62.703125 7.8125 59.421875 
L 7.8125 69.390625 
Q 13.765625 71.78125 18.9375 73 
Q 24.125 74.21875 28.421875 74.21875 
Q 39.75 74.21875 46.484375 68.546875 
Q 53.21875 62.890625 53.21875 53.421875 
Q 53.21875 48.921875 51.53125 44.890625 
Q 49.859375 40.875 45.40625 35.40625 
Q 44.1875 33.984375 37.640625 27.21875 
Q 31.109375 20.453125 19.1875 8.296875 
z
" id="DejaVuSans-50"/>
      </defs>
      <g transform="translate(24.904688 209.412855)scale(0.1 -0.1)">
       <use xlink:href="#DejaVuSans-8722"/>
       <use x="83.789062" xlink:href="#DejaVuSans-48"/>
       <use x="147.412109" xlink:href="#DejaVuSans-46"/>
       <use x="179.199219" xlink:href="#DejaVuSans-50"/>
       <use x="242.822266" xlink:href="#DejaVuSans-53"/>
      </g>
     </g>
    </g>
    <g id="ytick_5">
     <g id="line2d_5">
      <g>
       <use style="stroke:#000000;stroke-width:0.8;" x="62.55" xlink:href="#m49348ec702" y="172.5"/>
      </g>
     </g>
     <g id="text_5">
      <!-- 0.00 -->
      <g transform="translate(33.284375 176.299219)scale(0.1 -0.1)">
       <use xlink:href="#DejaVuSans-48"/>
       <use x="63.623047" xlink:href="#DejaVuSans-46"/>
       <use x="95.410156" xlink:href="#DejaVuSans-48"/>
       <use x="159.033203" xlink:href="#DejaVuSans-48"/>
      </g>
     </g>
    </g>
    <g id="ytick_6">
     <g id="line2d_6">
      <g>
       <use style="stroke:#000000;stroke-width:0.8;" x="62.55" xlink:href="#m49348ec702" y="139.386364"/>
      </g>
     </g>
     <g id="text_6">
      <!-- 0.25 -->
      <g transform="translate(33.284375 143.185582)scale(0.1 -0.1)">
       <use xlink:href="#DejaVuSans-48"/>
       <use x="63.623047" xlink:href="#DejaVuSans-46"/>
       <use x="95.410156" xlink:href="#DejaVuSans-50"/>
       <use x="159.033203" xlink:href="#DejaVuSans-53"/>
      </g>
     </g>
    </g>
    <g id="ytick_7">
     <g id="line2d_7">
      <g>
       <use style="stroke:#000000;stroke-width:0.8;" x="62.55" xlink:href="#m49348ec702" y="106.272727"/>
      </g>
     </g>
     <g id="text_7">
      <!-- 0.50 -->
      <g transform="translate(33.284375 110.071946)scale(0.1 -0.1)">
       <use xlink:href="#DejaVuSans-48"/>
       <use x="63.623047" xlink:href="#DejaVuSans-46"/>
       <use x="95.410156" xlink:href="#DejaVuSans-53"/>
       <use x="159.033203" xlink:href="#DejaVuSans-48"/>
      </g>
     </g>
    </g>
    <g id="ytick_8">
     <g id="line2d_8">
      <g>
       <use style="stroke:#000000;stroke-width:0.8;" x="62.55" xlink:href="#m49348ec702" y="73.159091"/>
      </g>
     </g>
     <g id="text_8">
      <!-- 0.75 -->
      <g transform="translate(33.284375 76.95831)scale(0.1 -0.1)">
       <use xlink:href="#DejaVuSans-48"/>
       <use x="63.623047" xlink:href="#DejaVuSans-46"/>
       <use x="95.410156" xlink:href="#DejaVuSans-55"/>
       <use x="159.033203" xlink:href="#DejaVuSans-53"/>
      </g>
     </g>
    </g>
    <g id="ytick_9">
     <g id="line2d_9">
      <g>
       <use style="stroke:#000000;stroke-width:0.8;" x="62.55" xlink:href="#m49348ec702" y="40.045455"/>
      </g>
     </g>
     <g id="text_9">
      <!-- 1.00 -->
      <g transform="translate(33.284375 43.844673)scale(0.1 -0.1)">
       <use xlink:href="#DejaVuSans-49"/>
       <use x="63.623047" xlink:href="#DejaVuSans-46"/>
       <use x="95.410156" xlink:href="#DejaVuSans-48"/>
       <use x="159.033203" xlink:href="#DejaVuSans-48"/>
      </g>
     </g>
    </g>
    <g id="text_10">
     <!-- AttitudeMW -->
     <defs>
      <path d="M 34.1875 63.1875 
L 20.796875 26.90625 
L 47.609375 26.90625 
z
M 28.609375 72.90625 
L 39.796875 72.90625 
L 67.578125 0 
L 57.328125 0 
L 50.6875 18.703125 
L 17.828125 18.703125 
L 11.1875 0 
L 0.78125 0 
z
" id="DejaVuSans-65"/>
      <path d="M 18.3125 70.21875 
L 18.3125 54.6875 
L 36.8125 54.6875 
L 36.8125 47.703125 
L 18.3125 47.703125 
L 18.3125 18.015625 
Q 18.3125 11.328125 20.140625 9.421875 
Q 21.96875 7.515625 27.59375 7.515625 
L 36.8125 7.515625 
L 36.8125 0 
L 27.59375 0 
Q 17.1875 0 13.234375 3.875 
Q 9.28125 7.765625 9.28125 18.015625 
L 9.28125 47.703125 
L 2.6875 47.703125 
L 2.6875 54.6875 
L 9.28125 54.6875 
L 9.28125 70.21875 
z
" id="DejaVuSans-116"/>
      <path d="M 9.421875 54.6875 
L 18.40625 54.6875 
L 18.40625 0 
L 9.421875 0 
z
M 9.421875 75.984375 
L 18.40625 75.984375 
L 18.40625 64.59375 
L 9.421875 64.59375 
z
" id="DejaVuSans-105"/>
      <path d="M 8.5 21.578125 
L 8.5 54.6875 
L 17.484375 54.6875 
L 17.484375 21.921875 
Q 17.484375 14.15625 20.5 10.265625 
Q 23.53125 6.390625 29.59375 6.390625 
Q 36.859375 6.390625 41.078125 11.03125 
Q 45.3125 15.671875 45.3125 23.6875 
L 45.3125 54.6875 
L 54.296875 54.6875 
L 54.296875 0 
L 45.3125 0 
L 45.3125 8.40625 
Q 42.046875 3.421875 37.71875 1 
Q 33.40625 -1.421875 27.6875 -1.421875 
Q 18.265625 -1.421875 13.375 4.4375 
Q 8.5 10.296875 8.5 21.578125 
z
M 31.109375 56 
z
" id="DejaVuSans-117"/>
      <path d="M 45.40625 46.390625 
L 45.40625 75.984375 
L 54.390625 75.984375 
L 54.390625 0 
L 45.40625 0 
L 45.40625 8.203125 
Q 42.578125 3.328125 38.25 0.953125 
Q 33.9375 -1.421875 27.875 -1.421875 
Q 17.96875 -1.421875 11.734375 6.484375 
Q 5.515625 14.40625 5.515625 27.296875 
Q 5.515625 40.1875 11.734375 48.09375 
Q 17.96875 56 27.875 56 
Q 33.9375 56 38.25 53.625 
Q 42.578125 51.265625 45.40625 46.390625 
z
M 14.796875 27.296875 
Q 14.796875 17.390625 18.875 11.75 
Q 22.953125 6.109375 30.078125 6.109375 
Q 37.203125 6.109375 41.296875 11.75 
Q 45.40625 17.390625 45.40625 27.296875 
Q 45.40625 37.203125 41.296875 42.84375 
Q 37.203125 48.484375 30.078125 48.484375 
Q 22.953125 48.484375 18.875 42.84375 
Q 14.796875 37.203125 14.796875 27.296875 
z
" id="DejaVuSans-100"/>
      <path d="M 56.203125 29.59375 
L 56.203125 25.203125 
L 14.890625 25.203125 
Q 15.484375 15.921875 20.484375 11.0625 
Q 25.484375 6.203125 34.421875 6.203125 
Q 39.59375 6.203125 44.453125 7.46875 
Q 49.3125 8.734375 54.109375 11.28125 
L 54.109375 2.78125 
Q 49.265625 0.734375 44.1875 -0.34375 
Q 39.109375 -1.421875 33.890625 -1.421875 
Q 20.796875 -1.421875 13.15625 6.1875 
Q 5.515625 13.8125 5.515625 26.8125 
Q 5.515625 40.234375 12.765625 48.109375 
Q 20.015625 56 32.328125 56 
Q 43.359375 56 49.78125 48.890625 
Q 56.203125 41.796875 56.203125 29.59375 
z
M 47.21875 32.234375 
Q 47.125 39.59375 43.09375 43.984375 
Q 39.0625 48.390625 32.421875 48.390625 
Q 24.90625 48.390625 20.390625 44.140625 
Q 15.875 39.890625 15.1875 32.171875 
z
" id="DejaVuSans-101"/>
      <path d="M 9.8125 72.90625 
L 24.515625 72.90625 
L 43.109375 23.296875 
L 61.8125 72.90625 
L 76.515625 72.90625 
L 76.515625 0 
L 66.890625 0 
L 66.890625 64.015625 
L 48.09375 14.015625 
L 38.1875 14.015625 
L 19.390625 64.015625 
L 19.390625 0 
L 9.8125 0 
z
" id="DejaVuSans-77"/>
      <path d="M 3.328125 72.90625 
L 13.28125 72.90625 
L 28.609375 11.28125 
L 43.890625 72.90625 
L 54.984375 72.90625 
L 70.3125 11.28125 
L 85.59375 72.90625 
L 95.609375 72.90625 
L 77.296875 0 
L 64.890625 0 
L 49.515625 63.28125 
L 33.984375 0 
L 21.578125 0 
z
" id="DejaVuSans-87"/>
     </defs>
     <g transform="translate(18.825 201.866406)rotate(-90)scale(0.1 -0.1)">
      <use xlink:href="#DejaVuSans-65"/>
      <use x="68.392578" xlink:href="#DejaVuSans-116"/>
      <use x="107.601562" xlink:href="#DejaVuSans-116"/>
      <use x="146.810547" xlink:href="#DejaVuSans-105"/>
      <use x="174.59375" xlink:href="#DejaVuSans-116"/>
      <use x="213.802734" xlink:href="#DejaVuSans-117"/>
      <use x="277.181641" xlink:href="#DejaVuSans-100"/>
      <use x="340.658203" xlink:href="#DejaVuSans-101"/>
      <use x="402.181641" xlink:href="#DejaVuSans-77"/>
      <use x="488.460938" xlink:href="#DejaVuSans-87"/>
     </g>
    </g>
   </g>
   <g id="line2d_10">
    <path clip-path="url(#p90aa41c165)" d="M 205.5575 163.228182 
L 205.5575 200.315455 
" style="fill:none;stroke:#4c4c4c;stroke-linecap:square;stroke-width:1.5;"/>
   </g>
   <g id="line2d_11">
    <path clip-path="url(#p90aa41c165)" d="M 205.5575 101.636818 
L 205.5575 49.317273 
" style="fill:none;stroke:#4c4c4c;stroke-linecap:square;stroke-width:1.5;"/>
   </g>
   <g id="line2d_12">
    <path clip-path="url(#p90aa41c165)" d="M 184.106375 200.315455 
L 227.008625 200.315455 
" style="fill:none;stroke:#4c4c4c;stroke-linecap:square;stroke-width:1.5;"/>
   </g>
   <g id="line2d_13">
    <path clip-path="url(#p90aa41c165)" d="M 184.106375 49.317273 
L 227.008625 49.317273 
" style="fill:none;stroke:#4c4c4c;stroke-linecap:square;stroke-width:1.5;"/>
   </g>
   <g id="line2d_14"/>
   <g id="line2d_15">
    <path clip-path="url(#p90aa41c165)" d="M 62.55 172.5 
L 348.565 172.5 
" style="fill:none;stroke:#ff0000;stroke-dasharray:5.55,2.4;stroke-dashoffset:0;stroke-width:1.5;"/>
   </g>
   <g id="line2d_16">
    <path clip-path="url(#p90aa41c165)" d="M 162.65525 115.544545 
L 248.45975 115.544545 
" style="fill:none;stroke:#4c4c4c;stroke-linecap:square;stroke-width:1.5;"/>
   </g>
   <g id="patch_4">
    <path d="M 62.55 318.2 
L 62.55 26.8 
" style="fill:none;stroke:#000000;stroke-linecap:square;stroke-linejoin:miter;stroke-width:0.8;"/>
   </g>
   <g id="patch_5">
    <path d="M 348.565 318.2 
L 348.565 26.8 
" style="fill:none;stroke:#000000;stroke-linecap:square;stroke-linejoin:miter;stroke-width:0.8;"/>
   </g>
   <g id="patch_6">
    <path d="M 62.55 318.2 
L 348.565 318.2 
" style="fill:none;stroke:#000000;stroke-linecap:square;stroke-linejoin:miter;stroke-width:0.8;"/>
   </g>
   <g id="patch_7">
    <path d="M 62.55 26.8 
L 348.565 26.8 
" style="fill:none;stroke:#000000;stroke-linecap:square;stroke-linejoin:miter;stroke-width:0.8;"/>
   </g>
   <g id="PathCollection_1">
    <defs>
     <path d="M 0 2.5 
C 0.663008 2.5 1.29895 2.236584 1.767767 1.767767 
C 2.236584 1.29895 2.5 0.663008 2.5 0 
C 2.5 -0.663008 2.236584 -1.29895 1.767767 -1.767767 
C 1.29895 -2.236584 0.663008 -2.5 0 -2.5 
C -0.663008 -2.5 -1.29895 -2.236584 -1.767767 -1.767767 
C -2.236584 -1.29895 -2.5 -0.663008 -2.5 0 
C -2.5 0.663008 -2.236584 1.29895 -1.767767 1.767767 
C -1.29895 2.236584 -0.663008 2.5 0 2.5 
z
" id="C0_0_4a21c27829"/>
    </defs>
    <g clip-path="url(#p90aa41c165)">
     <use style="fill:#ff4500;" x="205.5575" xlink:href="#C0_0_4a21c27829" y="200.315455"/>
    </g>
    <g clip-path="url(#p90aa41c165)">
     <use style="fill:#ff4500;" x="205.5575" xlink:href="#C0_0_4a21c27829" y="191.043636"/>
    </g>
    <g clip-path="url(#p90aa41c165)">
     <use style="fill:#ff4500;" x="205.5575" xlink:href="#C0_0_4a21c27829" y="181.771818"/>
    </g>
    <g clip-path="url(#p90aa41c165)">
     <use style="fill:#ff4500;" x="205.5575" xlink:href="#C0_0_4a21c27829" y="172.5"/>
    </g>
    <g clip-path="url(#p90aa41c165)">
     <use style="fill:#ff4500;" x="205.5575" xlink:href="#C0_0_4a21c27829" y="153.956364"/>
    </g>
    <g clip-path="url(#p90aa41c165)">
     <use style="fill:#ff4500;" x="205.5575" xlink:href="#C0_0_4a21c27829" y="144.684545"/>
    </g>
    <g clip-path="url(#p90aa41c165)">
     <use style="fill:#ff4500;" x="205.5575" xlink:href="#C0_0_4a21c27829" y="134.088182"/>
    </g>
    <g clip-path="url(#p90aa41c165)">
     <use style="fill:#ff4500;" x="205.5575" xlink:href="#C0_0_4a21c27829" y="115.544545"/>
    </g>
    <g clip-path="url(#p90aa41c165)">
     <use style="fill:#ff4500;" x="199.390622" xlink:href="#C0_0_4a21c27829" y="115.544545"/>
    </g>
    <g clip-path="url(#p90aa41c165)">
     <use style="fill:#ff4500;" x="211.724378" xlink:href="#C0_0_4a21c27829" y="115.544545"/>
    </g>
    <g clip-path="url(#p90aa41c165)">
     <use style="fill:#ff4500;" x="205.5575" xlink:href="#C0_0_4a21c27829" y="106.272727"/>
    </g>
    <g clip-path="url(#p90aa41c165)">
     <use style="fill:#ff4500;" x="205.5575" xlink:href="#C0_0_4a21c27829" y="97.000909"/>
    </g>
    <g clip-path="url(#p90aa41c165)">
     <use style="fill:#ff4500;" x="205.5575" xlink:href="#C0_0_4a21c27829" y="78.457273"/>
    </g>
    <g clip-path="url(#p90aa41c165)">
     <use style="fill:#ff4500;" x="205.5575" xlink:href="#C0_0_4a21c27829" y="67.860909"/>
    </g>
    <g clip-path="url(#p90aa41c165)">
     <use style="fill:#ff4500;" x="205.5575" xlink:href="#C0_0_4a21c27829" y="49.317273"/>
    </g>
   </g>
   <g id="text_11">
    <!-- p = 0.002 -->
    <defs>
     <path d="M 18.109375 8.203125 
L 18.109375 -20.796875 
L 9.078125 -20.796875 
L 9.078125 54.6875 
L 18.109375 54.6875 
L 18.109375 46.390625 
Q 20.953125 51.265625 25.265625 53.625 
Q 29.59375 56 35.59375 56 
Q 45.5625 56 51.78125 48.09375 
Q 58.015625 40.1875 58.015625 27.296875 
Q 58.015625 14.40625 51.78125 6.484375 
Q 45.5625 -1.421875 35.59375 -1.421875 
Q 29.59375 -1.421875 25.265625 0.953125 
Q 20.953125 3.328125 18.109375 8.203125 
z
M 48.6875 27.296875 
Q 48.6875 37.203125 44.609375 42.84375 
Q 40.53125 48.484375 33.40625 48.484375 
Q 26.265625 48.484375 22.1875 42.84375 
Q 18.109375 37.203125 18.109375 27.296875 
Q 18.109375 17.390625 22.1875 11.75 
Q 26.265625 6.109375 33.40625 6.109375 
Q 40.53125 6.109375 44.609375 11.75 
Q 48.6875 17.390625 48.6875 27.296875 
z
" id="DejaVuSans-112"/>
     <path id="DejaVuSans-32"/>
     <path d="M 10.59375 45.40625 
L 73.1875 45.40625 
L 73.1875 37.203125 
L 10.59375 37.203125 
z
M 10.59375 25.484375 
L 73.1875 25.484375 
L 73.1875 17.1875 
L 10.59375 17.1875 
z
" id="DejaVuSans-61"/>
    </defs>
    <g transform="translate(175.73 20.8)scale(0.12 -0.12)">
     <use xlink:href="#DejaVuSans-112"/>
     <use x="63.476562" xlink:href="#DejaVuSans-32"/>
     <use x="95.263672" xlink:href="#DejaVuSans-61"/>
     <use x="179.052734" xlink:href="#DejaVuSans-32"/>
     <use x="210.839844" xlink:href="#DejaVuSans-48"/>
     <use x="274.462891" xlink:href="#DejaVuSans-46"/>
     <use x="306.25" xlink:href="#DejaVuSans-48"/>
     <use x="369.873047" xlink:href="#DejaVuSans-48"/>
     <use x="433.496094" xlink:href="#DejaVuSans-50"/>
    </g>
   </g>
  </g>
  <g id="axes_2">
   <g id="patch_8">
    <path d="M 414.615 318.2 
L 843.6375 318.2 
L 843.6375 26.8 
L 414.615 26.8 
z
" style="fill:#ffffff;"/>
   </g>
   <g id="PathCollection_2">
    <defs>
     <path d="M 0 3 
C 0.795609 3 1.55874 2.683901 2.12132 2.12132 
C 2.683901 1.55874 3 0.795609 3 0 
C 3 -0.795609 2.683901 -1.55874 2.12132 -2.12132 
C 1.55874 -2.683901 0.795609 -3 0 -3 
C -0.795609 -3 -1.55874 -2.683901 -2.12132 -2.12132 
C -2.683901 -1.55874 -3 -0.795609 -3 0 
C -3 0.795609 -2.683901 1.55874 -2.12132 2.12132 
C -1.55874 2.683901 -0.795609 3 0 3 
z
" id="m8293650b4a" style="stroke:#ff4500;stroke-opacity:0.8;"/>
    </defs>
    <g clip-path="url(#p845161437f)">
     <use style="fill:#ff4500;fill-opacity:0.8;stroke:#ff4500;stroke-opacity:0.8;" x="478.968375" xlink:href="#m8293650b4a" y="134.088182"/>
     <use style="fill:#ff4500;fill-opacity:0.8;stroke:#ff4500;stroke-opacity:0.8;" x="689.1894" xlink:href="#m8293650b4a" y="191.043636"/>
     <use style="fill:#ff4500;fill-opacity:0.8;stroke:#ff4500;stroke-opacity:0.8;" x="534.7413" xlink:href="#m8293650b4a" y="97.000909"/>
     <use style="fill:#ff4500;fill-opacity:0.8;stroke:#ff4500;stroke-opacity:0.8;" x="508.99995" xlink:href="#m8293650b4a" y="144.684545"/>
     <use style="fill:#ff4500;fill-opacity:0.8;stroke:#ff4500;stroke-opacity:0.8;" x="526.16085" xlink:href="#m8293650b4a" y="153.956364"/>
     <use style="fill:#ff4500;fill-opacity:0.8;stroke:#ff4500;stroke-opacity:0.8;" x="436.066125" xlink:href="#m8293650b4a" y="115.544545"/>
     <use style="fill:#ff4500;fill-opacity:0.8;stroke:#ff4500;stroke-opacity:0.8;" x="809.3157" xlink:href="#m8293650b4a" y="172.5"/>
     <use style="fill:#ff4500;fill-opacity:0.8;stroke:#ff4500;stroke-opacity:0.8;" x="517.5804" xlink:href="#m8293650b4a" y="200.315455"/>
     <use style="fill:#ff4500;fill-opacity:0.8;stroke:#ff4500;stroke-opacity:0.8;" x="616.255575" xlink:href="#m8293650b4a" y="78.457273"/>
     <use style="fill:#ff4500;fill-opacity:0.8;stroke:#ff4500;stroke-opacity:0.8;" x="440.35635" xlink:href="#m8293650b4a" y="115.544545"/>
     <use style="fill:#ff4500;fill-opacity:0.8;stroke:#ff4500;stroke-opacity:0.8;" x="436.066125" xlink:href="#m8293650b4a" y="115.544545"/>
     <use style="fill:#ff4500;fill-opacity:0.8;stroke:#ff4500;stroke-opacity:0.8;" x="590.514225" xlink:href="#m8293650b4a" y="181.771818"/>
     <use style="fill:#ff4500;fill-opacity:0.8;stroke:#ff4500;stroke-opacity:0.8;" x="431.7759" xlink:href="#m8293650b4a" y="49.317273"/>
     <use style="fill:#ff4500;fill-opacity:0.8;stroke:#ff4500;stroke-opacity:0.8;" x="440.35635" xlink:href="#m8293650b4a" y="67.860909"/>
     <use style="fill:#ff4500;fill-opacity:0.8;stroke:#ff4500;stroke-opacity:0.8;" x="487.548825" xlink:href="#m8293650b4a" y="106.272727"/>
    </g>
   </g>
   <g id="PolyCollection_1">
    <path clip-path="url(#p845161437f)" d="M 414.615 75.452618 
L 414.615 128.232044 
L 418.948561 128.720923 
L 423.282121 128.778805 
L 427.615682 129.356325 
L 431.949242 130.008115 
L 436.282803 130.651696 
L 440.616364 131.053279 
L 444.949924 131.828103 
L 449.283485 132.5316 
L 453.617045 133.094975 
L 457.950606 133.489144 
L 462.284167 134.521886 
L 466.617727 135.111927 
L 470.951288 135.342893 
L 475.284848 135.88552 
L 479.618409 136.685083 
L 483.95197 137.772598 
L 488.28553 138.669309 
L 492.619091 139.767684 
L 496.952652 140.720316 
L 501.286212 141.339998 
L 505.619773 142.553284 
L 509.953333 144.18977 
L 514.286894 145.463681 
L 518.620455 146.947996 
L 522.954015 147.918394 
L 527.287576 149.991916 
L 531.621136 152.117067 
L 535.954697 153.476518 
L 540.288258 155.296565 
L 544.621818 157.977211 
L 548.955379 160.15164 
L 553.288939 162.257884 
L 557.6225 163.848409 
L 561.956061 165.838007 
L 566.289621 168.59333 
L 570.623182 170.798189 
L 574.956742 172.655794 
L 579.290303 174.513279 
L 583.623864 176.370763 
L 587.957424 178.228247 
L 592.290985 180.73148 
L 596.624545 183.408512 
L 600.958106 185.447489 
L 605.291667 187.483975 
L 609.625227 189.52046 
L 613.958788 191.485056 
L 618.292348 193.423545 
L 622.625909 195.362034 
L 626.95947 197.442545 
L 631.29303 199.729559 
L 635.626591 201.767745 
L 639.960152 203.930738 
L 644.293712 206.110846 
L 648.627273 208.290955 
L 652.960833 210.31746 
L 657.294394 212.32591 
L 661.627955 214.334361 
L 665.961515 216.341796 
L 670.295076 218.387919 
L 674.628636 220.588814 
L 678.962197 222.789708 
L 683.295758 224.990603 
L 687.629318 227.107836 
L 691.962879 229.135846 
L 696.296439 231.163856 
L 700.63 233.308881 
L 704.963561 235.616589 
L 709.297121 237.924298 
L 713.630682 240.232006 
L 717.964242 242.539715 
L 722.297803 244.837512 
L 726.631364 247.045579 
L 730.964924 249.253645 
L 735.298485 251.461711 
L 739.632045 253.669777 
L 743.965606 255.876666 
L 748.299167 258.08159 
L 752.632727 260.286514 
L 756.966288 262.491437 
L 761.299848 264.696361 
L 765.633409 266.901285 
L 769.96697 269.106208 
L 774.30053 271.311132 
L 778.634091 273.516056 
L 782.967652 275.720979 
L 787.301212 277.925903 
L 791.634773 280.130826 
L 795.968333 282.33575 
L 800.301894 284.540674 
L 804.635455 286.745597 
L 808.969015 288.950521 
L 813.302576 291.155445 
L 817.636136 293.360368 
L 821.969697 295.565292 
L 826.303258 297.770216 
L 830.636818 299.975139 
L 834.970379 302.180063 
L 839.303939 304.384987 
L 843.6375 306.58991 
L 843.6375 142.86206 
L 843.6375 142.86206 
L 839.303939 142.610995 
L 834.970379 142.359931 
L 830.636818 142.108866 
L 826.303258 141.857802 
L 821.969697 141.58916 
L 817.636136 141.094362 
L 813.302576 140.599564 
L 808.969015 140.105091 
L 804.635455 139.612939 
L 800.301894 139.120788 
L 795.968333 138.930475 
L 791.634773 138.752918 
L 787.301212 138.575681 
L 782.967652 138.148401 
L 778.634091 137.587815 
L 774.30053 137.201071 
L 769.96697 136.915379 
L 765.633409 136.636764 
L 761.299848 136.348278 
L 756.966288 135.910144 
L 752.632727 135.686111 
L 748.299167 135.211463 
L 743.965606 134.736815 
L 739.632045 134.381488 
L 735.298485 134.279966 
L 730.964924 133.746639 
L 726.631364 133.447864 
L 722.297803 133.34486 
L 717.964242 132.934455 
L 713.630682 132.386404 
L 709.297121 131.841471 
L 704.963561 131.302017 
L 700.63 130.762563 
L 696.296439 130.2938 
L 691.962879 129.667003 
L 687.629318 129.115001 
L 683.295758 128.562999 
L 678.962197 128.015875 
L 674.628636 127.477766 
L 670.295076 127.308135 
L 665.961515 126.982628 
L 661.627955 126.333153 
L 657.294394 125.675811 
L 652.960833 125.025165 
L 648.627273 124.627832 
L 644.293712 124.039004 
L 639.960152 123.451337 
L 635.626591 122.928853 
L 631.29303 122.465662 
L 626.95947 122.00247 
L 622.625909 121.539279 
L 618.292348 121.076088 
L 613.958788 120.612897 
L 609.625227 120.149706 
L 605.291667 119.54181 
L 600.958106 119.211501 
L 596.624545 118.589921 
L 592.290985 118.147559 
L 587.957424 117.383303 
L 583.623864 116.622487 
L 579.290303 116.623803 
L 574.956742 115.927796 
L 570.623182 114.875296 
L 566.289621 113.780152 
L 561.956061 113.233154 
L 557.6225 112.81085 
L 553.288939 112.130177 
L 548.955379 111.578961 
L 544.621818 111.038899 
L 540.288258 110.874162 
L 535.954697 110.166389 
L 531.621136 109.394859 
L 527.287576 108.468073 
L 522.954015 107.498751 
L 518.620455 106.599502 
L 514.286894 106.097814 
L 509.953333 104.983862 
L 505.619773 104.4725 
L 501.286212 103.955813 
L 496.952652 103.009776 
L 492.619091 101.240272 
L 488.28553 100.350682 
L 483.95197 99.484818 
L 479.618409 98.318458 
L 475.284848 97.551253 
L 470.951288 96.425563 
L 466.617727 95.585823 
L 462.284167 93.925721 
L 457.950606 92.52707 
L 453.617045 91.513644 
L 449.283485 90.108294 
L 444.949924 88.672063 
L 440.616364 87.003058 
L 436.282803 85.221645 
L 431.949242 83.885588 
L 427.615682 82.337968 
L 423.282121 79.644612 
L 418.948561 77.650856 
L 414.615 75.452618 
z
" style="fill:#ff4500;fill-opacity:0.15;"/>
   </g>
   <g id="matplotlib.axis_3">
    <g id="xtick_1">
     <g id="line2d_17">
      <defs>
       <path d="M 0 0 
L 0 3.5 
" id="mf385a070db" style="stroke:#000000;stroke-width:0.8;"/>
      </defs>
      <g>
       <use style="stroke:#000000;stroke-width:0.8;" x="414.615" xlink:href="#mf385a070db" y="318.2"/>
      </g>
     </g>
     <g id="text_12">
      <!-- 0 -->
      <g transform="translate(411.43375 332.798438)scale(0.1 -0.1)">
       <use xlink:href="#DejaVuSans-48"/>
      </g>
     </g>
    </g>
    <g id="xtick_2">
     <g id="line2d_18">
      <g>
       <use style="stroke:#000000;stroke-width:0.8;" x="500.4195" xlink:href="#mf385a070db" y="318.2"/>
      </g>
     </g>
     <g id="text_13">
      <!-- 20 -->
      <g transform="translate(494.057 332.798438)scale(0.1 -0.1)">
       <use xlink:href="#DejaVuSans-50"/>
       <use x="63.623047" xlink:href="#DejaVuSans-48"/>
      </g>
     </g>
    </g>
    <g id="xtick_3">
     <g id="line2d_19">
      <g>
       <use style="stroke:#000000;stroke-width:0.8;" x="586.224" xlink:href="#mf385a070db" y="318.2"/>
      </g>
     </g>
     <g id="text_14">
      <!-- 40 -->
      <defs>
       <path d="M 37.796875 64.3125 
L 12.890625 25.390625 
L 37.796875 25.390625 
z
M 35.203125 72.90625 
L 47.609375 72.90625 
L 47.609375 25.390625 
L 58.015625 25.390625 
L 58.015625 17.1875 
L 47.609375 17.1875 
L 47.609375 0 
L 37.796875 0 
L 37.796875 17.1875 
L 4.890625 17.1875 
L 4.890625 26.703125 
z
" id="DejaVuSans-52"/>
      </defs>
      <g transform="translate(579.8615 332.798438)scale(0.1 -0.1)">
       <use xlink:href="#DejaVuSans-52"/>
       <use x="63.623047" xlink:href="#DejaVuSans-48"/>
      </g>
     </g>
    </g>
    <g id="xtick_4">
     <g id="line2d_20">
      <g>
       <use style="stroke:#000000;stroke-width:0.8;" x="672.0285" xlink:href="#mf385a070db" y="318.2"/>
      </g>
     </g>
     <g id="text_15">
      <!-- 60 -->
      <defs>
       <path d="M 33.015625 40.375 
Q 26.375 40.375 22.484375 35.828125 
Q 18.609375 31.296875 18.609375 23.390625 
Q 18.609375 15.53125 22.484375 10.953125 
Q 26.375 6.390625 33.015625 6.390625 
Q 39.65625 6.390625 43.53125 10.953125 
Q 47.40625 15.53125 47.40625 23.390625 
Q 47.40625 31.296875 43.53125 35.828125 
Q 39.65625 40.375 33.015625 40.375 
z
M 52.59375 71.296875 
L 52.59375 62.3125 
Q 48.875 64.0625 45.09375 64.984375 
Q 41.3125 65.921875 37.59375 65.921875 
Q 27.828125 65.921875 22.671875 59.328125 
Q 17.53125 52.734375 16.796875 39.40625 
Q 19.671875 43.65625 24.015625 45.921875 
Q 28.375 48.1875 33.59375 48.1875 
Q 44.578125 48.1875 50.953125 41.515625 
Q 57.328125 34.859375 57.328125 23.390625 
Q 57.328125 12.15625 50.6875 5.359375 
Q 44.046875 -1.421875 33.015625 -1.421875 
Q 20.359375 -1.421875 13.671875 8.265625 
Q 6.984375 17.96875 6.984375 36.375 
Q 6.984375 53.65625 15.1875 63.9375 
Q 23.390625 74.21875 37.203125 74.21875 
Q 40.921875 74.21875 44.703125 73.484375 
Q 48.484375 72.75 52.59375 71.296875 
z
" id="DejaVuSans-54"/>
      </defs>
      <g transform="translate(665.666 332.798438)scale(0.1 -0.1)">
       <use xlink:href="#DejaVuSans-54"/>
       <use x="63.623047" xlink:href="#DejaVuSans-48"/>
      </g>
     </g>
    </g>
    <g id="xtick_5">
     <g id="line2d_21">
      <g>
       <use style="stroke:#000000;stroke-width:0.8;" x="757.833" xlink:href="#mf385a070db" y="318.2"/>
      </g>
     </g>
     <g id="text_16">
      <!-- 80 -->
      <defs>
       <path d="M 31.78125 34.625 
Q 24.75 34.625 20.71875 30.859375 
Q 16.703125 27.09375 16.703125 20.515625 
Q 16.703125 13.921875 20.71875 10.15625 
Q 24.75 6.390625 31.78125 6.390625 
Q 38.8125 6.390625 42.859375 10.171875 
Q 46.921875 13.96875 46.921875 20.515625 
Q 46.921875 27.09375 42.890625 30.859375 
Q 38.875 34.625 31.78125 34.625 
z
M 21.921875 38.8125 
Q 15.578125 40.375 12.03125 44.71875 
Q 8.5 49.078125 8.5 55.328125 
Q 8.5 64.0625 14.71875 69.140625 
Q 20.953125 74.21875 31.78125 74.21875 
Q 42.671875 74.21875 48.875 69.140625 
Q 55.078125 64.0625 55.078125 55.328125 
Q 55.078125 49.078125 51.53125 44.71875 
Q 48 40.375 41.703125 38.8125 
Q 48.828125 37.15625 52.796875 32.3125 
Q 56.78125 27.484375 56.78125 20.515625 
Q 56.78125 9.90625 50.3125 4.234375 
Q 43.84375 -1.421875 31.78125 -1.421875 
Q 19.734375 -1.421875 13.25 4.234375 
Q 6.78125 9.90625 6.78125 20.515625 
Q 6.78125 27.484375 10.78125 32.3125 
Q 14.796875 37.15625 21.921875 38.8125 
z
M 18.3125 54.390625 
Q 18.3125 48.734375 21.84375 45.5625 
Q 25.390625 42.390625 31.78125 42.390625 
Q 38.140625 42.390625 41.71875 45.5625 
Q 45.3125 48.734375 45.3125 54.390625 
Q 45.3125 60.0625 41.71875 63.234375 
Q 38.140625 66.40625 31.78125 66.40625 
Q 25.390625 66.40625 21.84375 63.234375 
Q 18.3125 60.0625 18.3125 54.390625 
z
" id="DejaVuSans-56"/>
      </defs>
      <g transform="translate(751.4705 332.798438)scale(0.1 -0.1)">
       <use xlink:href="#DejaVuSans-56"/>
       <use x="63.623047" xlink:href="#DejaVuSans-48"/>
      </g>
     </g>
    </g>
    <g id="xtick_6">
     <g id="line2d_22">
      <g>
       <use style="stroke:#000000;stroke-width:0.8;" x="843.6375" xlink:href="#mf385a070db" y="318.2"/>
      </g>
     </g>
     <g id="text_17">
      <!-- 100 -->
      <g transform="translate(834.09375 332.798438)scale(0.1 -0.1)">
       <use xlink:href="#DejaVuSans-49"/>
       <use x="63.623047" xlink:href="#DejaVuSans-48"/>
       <use x="127.246094" xlink:href="#DejaVuSans-48"/>
      </g>
     </g>
    </g>
    <g id="text_18">
     <!-- Total number of MW episodes during the experiment -->
     <defs>
      <path d="M -0.296875 72.90625 
L 61.375 72.90625 
L 61.375 64.59375 
L 35.5 64.59375 
L 35.5 0 
L 25.59375 0 
L 25.59375 64.59375 
L -0.296875 64.59375 
z
" id="DejaVuSans-84"/>
      <path d="M 30.609375 48.390625 
Q 23.390625 48.390625 19.1875 42.75 
Q 14.984375 37.109375 14.984375 27.296875 
Q 14.984375 17.484375 19.15625 11.84375 
Q 23.34375 6.203125 30.609375 6.203125 
Q 37.796875 6.203125 41.984375 11.859375 
Q 46.1875 17.53125 46.1875 27.296875 
Q 46.1875 37.015625 41.984375 42.703125 
Q 37.796875 48.390625 30.609375 48.390625 
z
M 30.609375 56 
Q 42.328125 56 49.015625 48.375 
Q 55.71875 40.765625 55.71875 27.296875 
Q 55.71875 13.875 49.015625 6.21875 
Q 42.328125 -1.421875 30.609375 -1.421875 
Q 18.84375 -1.421875 12.171875 6.21875 
Q 5.515625 13.875 5.515625 27.296875 
Q 5.515625 40.765625 12.171875 48.375 
Q 18.84375 56 30.609375 56 
z
" id="DejaVuSans-111"/>
      <path d="M 34.28125 27.484375 
Q 23.390625 27.484375 19.1875 25 
Q 14.984375 22.515625 14.984375 16.5 
Q 14.984375 11.71875 18.140625 8.90625 
Q 21.296875 6.109375 26.703125 6.109375 
Q 34.1875 6.109375 38.703125 11.40625 
Q 43.21875 16.703125 43.21875 25.484375 
L 43.21875 27.484375 
z
M 52.203125 31.203125 
L 52.203125 0 
L 43.21875 0 
L 43.21875 8.296875 
Q 40.140625 3.328125 35.546875 0.953125 
Q 30.953125 -1.421875 24.3125 -1.421875 
Q 15.921875 -1.421875 10.953125 3.296875 
Q 6 8.015625 6 15.921875 
Q 6 25.140625 12.171875 29.828125 
Q 18.359375 34.515625 30.609375 34.515625 
L 43.21875 34.515625 
L 43.21875 35.40625 
Q 43.21875 41.609375 39.140625 45 
Q 35.0625 48.390625 27.6875 48.390625 
Q 23 48.390625 18.546875 47.265625 
Q 14.109375 46.140625 10.015625 43.890625 
L 10.015625 52.203125 
Q 14.9375 54.109375 19.578125 55.046875 
Q 24.21875 56 28.609375 56 
Q 40.484375 56 46.34375 49.84375 
Q 52.203125 43.703125 52.203125 31.203125 
z
" id="DejaVuSans-97"/>
      <path d="M 9.421875 75.984375 
L 18.40625 75.984375 
L 18.40625 0 
L 9.421875 0 
z
" id="DejaVuSans-108"/>
      <path d="M 54.890625 33.015625 
L 54.890625 0 
L 45.90625 0 
L 45.90625 32.71875 
Q 45.90625 40.484375 42.875 44.328125 
Q 39.84375 48.1875 33.796875 48.1875 
Q 26.515625 48.1875 22.3125 43.546875 
Q 18.109375 38.921875 18.109375 30.90625 
L 18.109375 0 
L 9.078125 0 
L 9.078125 54.6875 
L 18.109375 54.6875 
L 18.109375 46.1875 
Q 21.34375 51.125 25.703125 53.5625 
Q 30.078125 56 35.796875 56 
Q 45.21875 56 50.046875 50.171875 
Q 54.890625 44.34375 54.890625 33.015625 
z
" id="DejaVuSans-110"/>
      <path d="M 52 44.1875 
Q 55.375 50.25 60.0625 53.125 
Q 64.75 56 71.09375 56 
Q 79.640625 56 84.28125 50.015625 
Q 88.921875 44.046875 88.921875 33.015625 
L 88.921875 0 
L 79.890625 0 
L 79.890625 32.71875 
Q 79.890625 40.578125 77.09375 44.375 
Q 74.3125 48.1875 68.609375 48.1875 
Q 61.625 48.1875 57.5625 43.546875 
Q 53.515625 38.921875 53.515625 30.90625 
L 53.515625 0 
L 44.484375 0 
L 44.484375 32.71875 
Q 44.484375 40.625 41.703125 44.40625 
Q 38.921875 48.1875 33.109375 48.1875 
Q 26.21875 48.1875 22.15625 43.53125 
Q 18.109375 38.875 18.109375 30.90625 
L 18.109375 0 
L 9.078125 0 
L 9.078125 54.6875 
L 18.109375 54.6875 
L 18.109375 46.1875 
Q 21.1875 51.21875 25.484375 53.609375 
Q 29.78125 56 35.6875 56 
Q 41.65625 56 45.828125 52.96875 
Q 50 49.953125 52 44.1875 
z
" id="DejaVuSans-109"/>
      <path d="M 48.6875 27.296875 
Q 48.6875 37.203125 44.609375 42.84375 
Q 40.53125 48.484375 33.40625 48.484375 
Q 26.265625 48.484375 22.1875 42.84375 
Q 18.109375 37.203125 18.109375 27.296875 
Q 18.109375 17.390625 22.1875 11.75 
Q 26.265625 6.109375 33.40625 6.109375 
Q 40.53125 6.109375 44.609375 11.75 
Q 48.6875 17.390625 48.6875 27.296875 
z
M 18.109375 46.390625 
Q 20.953125 51.265625 25.265625 53.625 
Q 29.59375 56 35.59375 56 
Q 45.5625 56 51.78125 48.09375 
Q 58.015625 40.1875 58.015625 27.296875 
Q 58.015625 14.40625 51.78125 6.484375 
Q 45.5625 -1.421875 35.59375 -1.421875 
Q 29.59375 -1.421875 25.265625 0.953125 
Q 20.953125 3.328125 18.109375 8.203125 
L 18.109375 0 
L 9.078125 0 
L 9.078125 75.984375 
L 18.109375 75.984375 
z
" id="DejaVuSans-98"/>
      <path d="M 41.109375 46.296875 
Q 39.59375 47.171875 37.8125 47.578125 
Q 36.03125 48 33.890625 48 
Q 26.265625 48 22.1875 43.046875 
Q 18.109375 38.09375 18.109375 28.8125 
L 18.109375 0 
L 9.078125 0 
L 9.078125 54.6875 
L 18.109375 54.6875 
L 18.109375 46.1875 
Q 20.953125 51.171875 25.484375 53.578125 
Q 30.03125 56 36.53125 56 
Q 37.453125 56 38.578125 55.875 
Q 39.703125 55.765625 41.0625 55.515625 
z
" id="DejaVuSans-114"/>
      <path d="M 37.109375 75.984375 
L 37.109375 68.5 
L 28.515625 68.5 
Q 23.6875 68.5 21.796875 66.546875 
Q 19.921875 64.59375 19.921875 59.515625 
L 19.921875 54.6875 
L 34.71875 54.6875 
L 34.71875 47.703125 
L 19.921875 47.703125 
L 19.921875 0 
L 10.890625 0 
L 10.890625 47.703125 
L 2.296875 47.703125 
L 2.296875 54.6875 
L 10.890625 54.6875 
L 10.890625 58.5 
Q 10.890625 67.625 15.140625 71.796875 
Q 19.390625 75.984375 28.609375 75.984375 
z
" id="DejaVuSans-102"/>
      <path d="M 44.28125 53.078125 
L 44.28125 44.578125 
Q 40.484375 46.53125 36.375 47.5 
Q 32.28125 48.484375 27.875 48.484375 
Q 21.1875 48.484375 17.84375 46.4375 
Q 14.5 44.390625 14.5 40.28125 
Q 14.5 37.15625 16.890625 35.375 
Q 19.28125 33.59375 26.515625 31.984375 
L 29.59375 31.296875 
Q 39.15625 29.25 43.1875 25.515625 
Q 47.21875 21.78125 47.21875 15.09375 
Q 47.21875 7.46875 41.1875 3.015625 
Q 35.15625 -1.421875 24.609375 -1.421875 
Q 20.21875 -1.421875 15.453125 -0.5625 
Q 10.6875 0.296875 5.421875 2 
L 5.421875 11.28125 
Q 10.40625 8.6875 15.234375 7.390625 
Q 20.0625 6.109375 24.8125 6.109375 
Q 31.15625 6.109375 34.5625 8.28125 
Q 37.984375 10.453125 37.984375 14.40625 
Q 37.984375 18.0625 35.515625 20.015625 
Q 33.0625 21.96875 24.703125 23.78125 
L 21.578125 24.515625 
Q 13.234375 26.265625 9.515625 29.90625 
Q 5.8125 33.546875 5.8125 39.890625 
Q 5.8125 47.609375 11.28125 51.796875 
Q 16.75 56 26.8125 56 
Q 31.78125 56 36.171875 55.265625 
Q 40.578125 54.546875 44.28125 53.078125 
z
" id="DejaVuSans-115"/>
      <path d="M 45.40625 27.984375 
Q 45.40625 37.75 41.375 43.109375 
Q 37.359375 48.484375 30.078125 48.484375 
Q 22.859375 48.484375 18.828125 43.109375 
Q 14.796875 37.75 14.796875 27.984375 
Q 14.796875 18.265625 18.828125 12.890625 
Q 22.859375 7.515625 30.078125 7.515625 
Q 37.359375 7.515625 41.375 12.890625 
Q 45.40625 18.265625 45.40625 27.984375 
z
M 54.390625 6.78125 
Q 54.390625 -7.171875 48.1875 -13.984375 
Q 42 -20.796875 29.203125 -20.796875 
Q 24.46875 -20.796875 20.265625 -20.09375 
Q 16.0625 -19.390625 12.109375 -17.921875 
L 12.109375 -9.1875 
Q 16.0625 -11.328125 19.921875 -12.34375 
Q 23.78125 -13.375 27.78125 -13.375 
Q 36.625 -13.375 41.015625 -8.765625 
Q 45.40625 -4.15625 45.40625 5.171875 
L 45.40625 9.625 
Q 42.625 4.78125 38.28125 2.390625 
Q 33.9375 0 27.875 0 
Q 17.828125 0 11.671875 7.65625 
Q 5.515625 15.328125 5.515625 27.984375 
Q 5.515625 40.671875 11.671875 48.328125 
Q 17.828125 56 27.875 56 
Q 33.9375 56 38.28125 53.609375 
Q 42.625 51.21875 45.40625 46.390625 
L 45.40625 54.6875 
L 54.390625 54.6875 
z
" id="DejaVuSans-103"/>
      <path d="M 54.890625 33.015625 
L 54.890625 0 
L 45.90625 0 
L 45.90625 32.71875 
Q 45.90625 40.484375 42.875 44.328125 
Q 39.84375 48.1875 33.796875 48.1875 
Q 26.515625 48.1875 22.3125 43.546875 
Q 18.109375 38.921875 18.109375 30.90625 
L 18.109375 0 
L 9.078125 0 
L 9.078125 75.984375 
L 18.109375 75.984375 
L 18.109375 46.1875 
Q 21.34375 51.125 25.703125 53.5625 
Q 30.078125 56 35.796875 56 
Q 45.21875 56 50.046875 50.171875 
Q 54.890625 44.34375 54.890625 33.015625 
z
" id="DejaVuSans-104"/>
      <path d="M 54.890625 54.6875 
L 35.109375 28.078125 
L 55.90625 0 
L 45.3125 0 
L 29.390625 21.484375 
L 13.484375 0 
L 2.875 0 
L 24.125 28.609375 
L 4.6875 54.6875 
L 15.28125 54.6875 
L 29.78125 35.203125 
L 44.28125 54.6875 
z
" id="DejaVuSans-120"/>
     </defs>
     <g transform="translate(496.596563 346.476562)scale(0.1 -0.1)">
      <use xlink:href="#DejaVuSans-84"/>
      <use x="60.818359" xlink:href="#DejaVuSans-111"/>
      <use x="122" xlink:href="#DejaVuSans-116"/>
      <use x="161.208984" xlink:href="#DejaVuSans-97"/>
      <use x="222.488281" xlink:href="#DejaVuSans-108"/>
      <use x="250.271484" xlink:href="#DejaVuSans-32"/>
      <use x="282.058594" xlink:href="#DejaVuSans-110"/>
      <use x="345.4375" xlink:href="#DejaVuSans-117"/>
      <use x="408.816406" xlink:href="#DejaVuSans-109"/>
      <use x="506.228516" xlink:href="#DejaVuSans-98"/>
      <use x="569.705078" xlink:href="#DejaVuSans-101"/>
      <use x="631.228516" xlink:href="#DejaVuSans-114"/>
      <use x="672.341797" xlink:href="#DejaVuSans-32"/>
      <use x="704.128906" xlink:href="#DejaVuSans-111"/>
      <use x="765.310547" xlink:href="#DejaVuSans-102"/>
      <use x="800.515625" xlink:href="#DejaVuSans-32"/>
      <use x="832.302734" xlink:href="#DejaVuSans-77"/>
      <use x="918.582031" xlink:href="#DejaVuSans-87"/>
      <use x="1017.458984" xlink:href="#DejaVuSans-32"/>
      <use x="1049.246094" xlink:href="#DejaVuSans-101"/>
      <use x="1110.769531" xlink:href="#DejaVuSans-112"/>
      <use x="1174.246094" xlink:href="#DejaVuSans-105"/>
      <use x="1202.029297" xlink:href="#DejaVuSans-115"/>
      <use x="1254.128906" xlink:href="#DejaVuSans-111"/>
      <use x="1315.310547" xlink:href="#DejaVuSans-100"/>
      <use x="1378.787109" xlink:href="#DejaVuSans-101"/>
      <use x="1440.310547" xlink:href="#DejaVuSans-115"/>
      <use x="1492.410156" xlink:href="#DejaVuSans-32"/>
      <use x="1524.197266" xlink:href="#DejaVuSans-100"/>
      <use x="1587.673828" xlink:href="#DejaVuSans-117"/>
      <use x="1651.052734" xlink:href="#DejaVuSans-114"/>
      <use x="1692.166016" xlink:href="#DejaVuSans-105"/>
      <use x="1719.949219" xlink:href="#DejaVuSans-110"/>
      <use x="1783.328125" xlink:href="#DejaVuSans-103"/>
      <use x="1846.804688" xlink:href="#DejaVuSans-32"/>
      <use x="1878.591797" xlink:href="#DejaVuSans-116"/>
      <use x="1917.800781" xlink:href="#DejaVuSans-104"/>
      <use x="1981.179688" xlink:href="#DejaVuSans-101"/>
      <use x="2042.703125" xlink:href="#DejaVuSans-32"/>
      <use x="2074.490234" xlink:href="#DejaVuSans-101"/>
      <use x="2135.998047" xlink:href="#DejaVuSans-120"/>
      <use x="2195.177734" xlink:href="#DejaVuSans-112"/>
      <use x="2258.654297" xlink:href="#DejaVuSans-101"/>
      <use x="2320.177734" xlink:href="#DejaVuSans-114"/>
      <use x="2361.291016" xlink:href="#DejaVuSans-105"/>
      <use x="2389.074219" xlink:href="#DejaVuSans-109"/>
      <use x="2486.486328" xlink:href="#DejaVuSans-101"/>
      <use x="2548.009766" xlink:href="#DejaVuSans-110"/>
      <use x="2611.388672" xlink:href="#DejaVuSans-116"/>
     </g>
    </g>
   </g>
   <g id="matplotlib.axis_4">
    <g id="ytick_10">
     <g id="line2d_23">
      <g>
       <use style="stroke:#000000;stroke-width:0.8;" x="414.615" xlink:href="#m49348ec702" y="304.954545"/>
      </g>
     </g>
     <g id="text_19">
      <!-- −1.00 -->
      <g transform="translate(376.969688 308.753764)scale(0.1 -0.1)">
       <use xlink:href="#DejaVuSans-8722"/>
       <use x="83.789062" xlink:href="#DejaVuSans-49"/>
       <use x="147.412109" xlink:href="#DejaVuSans-46"/>
       <use x="179.199219" xlink:href="#DejaVuSans-48"/>
       <use x="242.822266" xlink:href="#DejaVuSans-48"/>
      </g>
     </g>
    </g>
    <g id="ytick_11">
     <g id="line2d_24">
      <g>
       <use style="stroke:#000000;stroke-width:0.8;" x="414.615" xlink:href="#m49348ec702" y="271.840909"/>
      </g>
     </g>
     <g id="text_20">
      <!-- −0.75 -->
      <g transform="translate(376.969688 275.640128)scale(0.1 -0.1)">
       <use xlink:href="#DejaVuSans-8722"/>
       <use x="83.789062" xlink:href="#DejaVuSans-48"/>
       <use x="147.412109" xlink:href="#DejaVuSans-46"/>
       <use x="179.199219" xlink:href="#DejaVuSans-55"/>
       <use x="242.822266" xlink:href="#DejaVuSans-53"/>
      </g>
     </g>
    </g>
    <g id="ytick_12">
     <g id="line2d_25">
      <g>
       <use style="stroke:#000000;stroke-width:0.8;" x="414.615" xlink:href="#m49348ec702" y="238.727273"/>
      </g>
     </g>
     <g id="text_21">
      <!-- −0.50 -->
      <g transform="translate(376.969688 242.526491)scale(0.1 -0.1)">
       <use xlink:href="#DejaVuSans-8722"/>
       <use x="83.789062" xlink:href="#DejaVuSans-48"/>
       <use x="147.412109" xlink:href="#DejaVuSans-46"/>
       <use x="179.199219" xlink:href="#DejaVuSans-53"/>
       <use x="242.822266" xlink:href="#DejaVuSans-48"/>
      </g>
     </g>
    </g>
    <g id="ytick_13">
     <g id="line2d_26">
      <g>
       <use style="stroke:#000000;stroke-width:0.8;" x="414.615" xlink:href="#m49348ec702" y="205.613636"/>
      </g>
     </g>
     <g id="text_22">
      <!-- −0.25 -->
      <g transform="translate(376.969688 209.412855)scale(0.1 -0.1)">
       <use xlink:href="#DejaVuSans-8722"/>
       <use x="83.789062" xlink:href="#DejaVuSans-48"/>
       <use x="147.412109" xlink:href="#DejaVuSans-46"/>
       <use x="179.199219" xlink:href="#DejaVuSans-50"/>
       <use x="242.822266" xlink:href="#DejaVuSans-53"/>
      </g>
     </g>
    </g>
    <g id="ytick_14">
     <g id="line2d_27">
      <g>
       <use style="stroke:#000000;stroke-width:0.8;" x="414.615" xlink:href="#m49348ec702" y="172.5"/>
      </g>
     </g>
     <g id="text_23">
      <!-- 0.00 -->
      <g transform="translate(385.349375 176.299219)scale(0.1 -0.1)">
       <use xlink:href="#DejaVuSans-48"/>
       <use x="63.623047" xlink:href="#DejaVuSans-46"/>
       <use x="95.410156" xlink:href="#DejaVuSans-48"/>
       <use x="159.033203" xlink:href="#DejaVuSans-48"/>
      </g>
     </g>
    </g>
    <g id="ytick_15">
     <g id="line2d_28">
      <g>
       <use style="stroke:#000000;stroke-width:0.8;" x="414.615" xlink:href="#m49348ec702" y="139.386364"/>
      </g>
     </g>
     <g id="text_24">
      <!-- 0.25 -->
      <g transform="translate(385.349375 143.185582)scale(0.1 -0.1)">
       <use xlink:href="#DejaVuSans-48"/>
       <use x="63.623047" xlink:href="#DejaVuSans-46"/>
       <use x="95.410156" xlink:href="#DejaVuSans-50"/>
       <use x="159.033203" xlink:href="#DejaVuSans-53"/>
      </g>
     </g>
    </g>
    <g id="ytick_16">
     <g id="line2d_29">
      <g>
       <use style="stroke:#000000;stroke-width:0.8;" x="414.615" xlink:href="#m49348ec702" y="106.272727"/>
      </g>
     </g>
     <g id="text_25">
      <!-- 0.50 -->
      <g transform="translate(385.349375 110.071946)scale(0.1 -0.1)">
       <use xlink:href="#DejaVuSans-48"/>
       <use x="63.623047" xlink:href="#DejaVuSans-46"/>
       <use x="95.410156" xlink:href="#DejaVuSans-53"/>
       <use x="159.033203" xlink:href="#DejaVuSans-48"/>
      </g>
     </g>
    </g>
    <g id="ytick_17">
     <g id="line2d_30">
      <g>
       <use style="stroke:#000000;stroke-width:0.8;" x="414.615" xlink:href="#m49348ec702" y="73.159091"/>
      </g>
     </g>
     <g id="text_26">
      <!-- 0.75 -->
      <g transform="translate(385.349375 76.95831)scale(0.1 -0.1)">
       <use xlink:href="#DejaVuSans-48"/>
       <use x="63.623047" xlink:href="#DejaVuSans-46"/>
       <use x="95.410156" xlink:href="#DejaVuSans-55"/>
       <use x="159.033203" xlink:href="#DejaVuSans-53"/>
      </g>
     </g>
    </g>
    <g id="ytick_18">
     <g id="line2d_31">
      <g>
       <use style="stroke:#000000;stroke-width:0.8;" x="414.615" xlink:href="#m49348ec702" y="40.045455"/>
      </g>
     </g>
     <g id="text_27">
      <!-- 1.00 -->
      <g transform="translate(385.349375 43.844673)scale(0.1 -0.1)">
       <use xlink:href="#DejaVuSans-49"/>
       <use x="63.623047" xlink:href="#DejaVuSans-46"/>
       <use x="95.410156" xlink:href="#DejaVuSans-48"/>
       <use x="159.033203" xlink:href="#DejaVuSans-48"/>
      </g>
     </g>
    </g>
    <g id="text_28">
     <!-- AttitudeMW -->
     <g transform="translate(370.89 201.866406)rotate(-90)scale(0.1 -0.1)">
      <use xlink:href="#DejaVuSans-65"/>
      <use x="68.392578" xlink:href="#DejaVuSans-116"/>
      <use x="107.601562" xlink:href="#DejaVuSans-116"/>
      <use x="146.810547" xlink:href="#DejaVuSans-105"/>
      <use x="174.59375" xlink:href="#DejaVuSans-116"/>
      <use x="213.802734" xlink:href="#DejaVuSans-117"/>
      <use x="277.181641" xlink:href="#DejaVuSans-100"/>
      <use x="340.658203" xlink:href="#DejaVuSans-101"/>
      <use x="402.181641" xlink:href="#DejaVuSans-77"/>
      <use x="488.460938" xlink:href="#DejaVuSans-87"/>
     </g>
    </g>
   </g>
   <g id="line2d_32">
    <path clip-path="url(#p845161437f)" d="M 414.615 102.040002 
L 418.948561 103.028249 
L 423.282121 104.016497 
L 427.615682 105.004744 
L 431.949242 105.992991 
L 436.282803 106.981239 
L 440.616364 107.969486 
L 444.949924 108.957734 
L 449.283485 109.945981 
L 453.617045 110.934228 
L 457.950606 111.922476 
L 462.284167 112.910723 
L 466.617727 113.898971 
L 470.951288 114.887218 
L 475.284848 115.875465 
L 479.618409 116.863713 
L 483.95197 117.85196 
L 488.28553 118.840208 
L 492.619091 119.828455 
L 496.952652 120.816702 
L 501.286212 121.80495 
L 505.619773 122.793197 
L 509.953333 123.781445 
L 514.286894 124.769692 
L 518.620455 125.757939 
L 522.954015 126.746187 
L 527.287576 127.734434 
L 531.621136 128.722682 
L 535.954697 129.710929 
L 540.288258 130.699176 
L 544.621818 131.687424 
L 548.955379 132.675671 
L 553.288939 133.663919 
L 557.6225 134.652166 
L 561.956061 135.640413 
L 566.289621 136.628661 
L 570.623182 137.616908 
L 574.956742 138.605156 
L 579.290303 139.593403 
L 583.623864 140.58165 
L 587.957424 141.569898 
L 592.290985 142.558145 
L 596.624545 143.546393 
L 600.958106 144.53464 
L 605.291667 145.522887 
L 609.625227 146.511135 
L 613.958788 147.499382 
L 618.292348 148.48763 
L 622.625909 149.475877 
L 626.95947 150.464124 
L 631.29303 151.452372 
L 635.626591 152.440619 
L 639.960152 153.428867 
L 644.293712 154.417114 
L 648.627273 155.405361 
L 652.960833 156.393609 
L 657.294394 157.381856 
L 661.627955 158.370103 
L 665.961515 159.358351 
L 670.295076 160.346598 
L 674.628636 161.334846 
L 678.962197 162.323093 
L 683.295758 163.31134 
L 687.629318 164.299588 
L 691.962879 165.287835 
L 696.296439 166.276083 
L 700.63 167.26433 
L 704.963561 168.252577 
L 709.297121 169.240825 
L 713.630682 170.229072 
L 717.964242 171.21732 
L 722.297803 172.205567 
L 726.631364 173.193814 
L 730.964924 174.182062 
L 735.298485 175.170309 
L 739.632045 176.158557 
L 743.965606 177.146804 
L 748.299167 178.135051 
L 752.632727 179.123299 
L 756.966288 180.111546 
L 761.299848 181.099794 
L 765.633409 182.088041 
L 769.96697 183.076288 
L 774.30053 184.064536 
L 778.634091 185.052783 
L 782.967652 186.041031 
L 787.301212 187.029278 
L 791.634773 188.017525 
L 795.968333 189.005773 
L 800.301894 189.99402 
L 804.635455 190.982268 
L 808.969015 191.970515 
L 813.302576 192.958762 
L 817.636136 193.94701 
L 821.969697 194.935257 
L 826.303258 195.923505 
L 830.636818 196.911752 
L 834.970379 197.899999 
L 839.303939 198.888247 
L 843.6375 199.876494 
" style="fill:none;stroke:#ff4500;stroke-linecap:square;stroke-width:2.25;"/>
   </g>
   <g id="patch_9">
    <path d="M 414.615 318.2 
L 414.615 26.8 
" style="fill:none;stroke:#000000;stroke-linecap:square;stroke-linejoin:miter;stroke-width:0.8;"/>
   </g>
   <g id="patch_10">
    <path d="M 843.6375 318.2 
L 843.6375 26.8 
" style="fill:none;stroke:#000000;stroke-linecap:square;stroke-linejoin:miter;stroke-width:0.8;"/>
   </g>
   <g id="patch_11">
    <path d="M 414.615 318.2 
L 843.6375 318.2 
" style="fill:none;stroke:#000000;stroke-linecap:square;stroke-linejoin:miter;stroke-width:0.8;"/>
   </g>
   <g id="patch_12">
    <path d="M 414.615 26.8 
L 843.6375 26.8 
" style="fill:none;stroke:#000000;stroke-linecap:square;stroke-linejoin:miter;stroke-width:0.8;"/>
   </g>
   <g id="text_29">
    <!-- R² = 0.29     p = 0.038 -->
    <defs>
     <path d="M 44.390625 34.1875 
Q 47.5625 33.109375 50.5625 29.59375 
Q 53.5625 26.078125 56.59375 19.921875 
L 66.609375 0 
L 56 0 
L 46.6875 18.703125 
Q 43.0625 26.03125 39.671875 28.421875 
Q 36.28125 30.8125 30.421875 30.8125 
L 19.671875 30.8125 
L 19.671875 0 
L 9.8125 0 
L 9.8125 72.90625 
L 32.078125 72.90625 
Q 44.578125 72.90625 50.734375 67.671875 
Q 56.890625 62.453125 56.890625 51.90625 
Q 56.890625 45.015625 53.6875 40.46875 
Q 50.484375 35.9375 44.390625 34.1875 
z
M 19.671875 64.796875 
L 19.671875 38.921875 
L 32.078125 38.921875 
Q 39.203125 38.921875 42.84375 42.21875 
Q 46.484375 45.515625 46.484375 51.90625 
Q 46.484375 58.296875 42.84375 61.546875 
Q 39.203125 64.796875 32.078125 64.796875 
z
" id="DejaVuSans-82"/>
     <path d="M 13.09375 38.1875 
L 33.796875 38.1875 
L 33.796875 32.625 
L 4.59375 32.625 
L 4.59375 37.984375 
Q 6.25 39.5 9.328125 42.234375 
Q 26.125 57.125 26.125 61.71875 
Q 26.125 64.9375 23.578125 66.90625 
Q 21.046875 68.890625 16.890625 68.890625 
Q 14.359375 68.890625 11.375 68.03125 
Q 8.40625 67.1875 4.890625 65.484375 
L 4.890625 71.484375 
Q 8.640625 72.859375 11.890625 73.53125 
Q 15.140625 74.21875 17.921875 74.21875 
Q 25 74.21875 29.25 71 
Q 33.5 67.78125 33.5 62.5 
Q 33.5 55.71875 17.328125 41.84375 
Q 14.59375 39.5 13.09375 38.1875 
z
" id="DejaVuSans-178"/>
     <path d="M 10.984375 1.515625 
L 10.984375 10.5 
Q 14.703125 8.734375 18.5 7.8125 
Q 22.3125 6.890625 25.984375 6.890625 
Q 35.75 6.890625 40.890625 13.453125 
Q 46.046875 20.015625 46.78125 33.40625 
Q 43.953125 29.203125 39.59375 26.953125 
Q 35.25 24.703125 29.984375 24.703125 
Q 19.046875 24.703125 12.671875 31.3125 
Q 6.296875 37.9375 6.296875 49.421875 
Q 6.296875 60.640625 12.9375 67.421875 
Q 19.578125 74.21875 30.609375 74.21875 
Q 43.265625 74.21875 49.921875 64.515625 
Q 56.59375 54.828125 56.59375 36.375 
Q 56.59375 19.140625 48.40625 8.859375 
Q 40.234375 -1.421875 26.421875 -1.421875 
Q 22.703125 -1.421875 18.890625 -0.6875 
Q 15.09375 0.046875 10.984375 1.515625 
z
M 30.609375 32.421875 
Q 37.25 32.421875 41.125 36.953125 
Q 45.015625 41.5 45.015625 49.421875 
Q 45.015625 57.28125 41.125 61.84375 
Q 37.25 66.40625 30.609375 66.40625 
Q 23.96875 66.40625 20.09375 61.84375 
Q 16.21875 57.28125 16.21875 49.421875 
Q 16.21875 41.5 20.09375 36.953125 
Q 23.96875 32.421875 30.609375 32.421875 
z
" id="DejaVuSans-57"/>
     <path d="M 40.578125 39.3125 
Q 47.65625 37.796875 51.625 33 
Q 55.609375 28.21875 55.609375 21.1875 
Q 55.609375 10.40625 48.1875 4.484375 
Q 40.765625 -1.421875 27.09375 -1.421875 
Q 22.515625 -1.421875 17.65625 -0.515625 
Q 12.796875 0.390625 7.625 2.203125 
L 7.625 11.71875 
Q 11.71875 9.328125 16.59375 8.109375 
Q 21.484375 6.890625 26.8125 6.890625 
Q 36.078125 6.890625 40.9375 10.546875 
Q 45.796875 14.203125 45.796875 21.1875 
Q 45.796875 27.640625 41.28125 31.265625 
Q 36.765625 34.90625 28.71875 34.90625 
L 20.21875 34.90625 
L 20.21875 43.015625 
L 29.109375 43.015625 
Q 36.375 43.015625 40.234375 45.921875 
Q 44.09375 48.828125 44.09375 54.296875 
Q 44.09375 59.90625 40.109375 62.90625 
Q 36.140625 65.921875 28.71875 65.921875 
Q 24.65625 65.921875 20.015625 65.03125 
Q 15.375 64.15625 9.8125 62.3125 
L 9.8125 71.09375 
Q 15.4375 72.65625 20.34375 73.4375 
Q 25.25 74.21875 29.59375 74.21875 
Q 40.828125 74.21875 47.359375 69.109375 
Q 53.90625 64.015625 53.90625 55.328125 
Q 53.90625 49.265625 50.4375 45.09375 
Q 46.96875 40.921875 40.578125 39.3125 
z
" id="DejaVuSans-51"/>
    </defs>
    <g transform="translate(560.98875 20.8)scale(0.12 -0.12)">
     <use xlink:href="#DejaVuSans-82"/>
     <use x="69.482422" xlink:href="#DejaVuSans-178"/>
     <use x="109.570312" xlink:href="#DejaVuSans-32"/>
     <use x="141.357422" xlink:href="#DejaVuSans-61"/>
     <use x="225.146484" xlink:href="#DejaVuSans-32"/>
     <use x="256.933594" xlink:href="#DejaVuSans-48"/>
     <use x="320.556641" xlink:href="#DejaVuSans-46"/>
     <use x="352.34375" xlink:href="#DejaVuSans-50"/>
     <use x="415.966797" xlink:href="#DejaVuSans-57"/>
     <use x="479.589844" xlink:href="#DejaVuSans-32"/>
     <use x="511.376953" xlink:href="#DejaVuSans-32"/>
     <use x="543.164062" xlink:href="#DejaVuSans-32"/>
     <use x="574.951172" xlink:href="#DejaVuSans-32"/>
     <use x="606.738281" xlink:href="#DejaVuSans-32"/>
     <use x="638.525391" xlink:href="#DejaVuSans-112"/>
     <use x="702.001953" xlink:href="#DejaVuSans-32"/>
     <use x="733.789062" xlink:href="#DejaVuSans-61"/>
     <use x="817.578125" xlink:href="#DejaVuSans-32"/>
     <use x="849.365234" xlink:href="#DejaVuSans-48"/>
     <use x="912.988281" xlink:href="#DejaVuSans-46"/>
     <use x="944.775391" xlink:href="#DejaVuSans-48"/>
     <use x="1008.398438" xlink:href="#DejaVuSans-51"/>
     <use x="1072.021484" xlink:href="#DejaVuSans-56"/>
    </g>
   </g>
  </g>
 </g>
 <defs>
  <clipPath id="p90aa41c165">
   <rect height="291.4" width="286.015" x="62.55" y="26.8"/>
  </clipPath>
  <clipPath id="p845161437f">
   <rect height="291.4" width="429.0225" x="414.615" y="26.8"/>
  </clipPath>
 </defs>
</svg>
