<?xml version="1.0" encoding="utf-8" standalone="no"?>
<!DOCTYPE svg PUBLIC "-//W3C//DTD SVG 1.1//EN"
  "http://www.w3.org/Graphics/SVG/1.1/DTD/svg11.dtd">
<!-- Created with matplotlib (https://matplotlib.org/) -->
<svg height="360pt" version="1.1" viewBox="0 0 864 360" width="864pt" xmlns="http://www.w3.org/2000/svg" xmlns:xlink="http://www.w3.org/1999/xlink">
 <defs>
  <style type="text/css">
*{stroke-linecap:butt;stroke-linejoin:round;}
  </style>
 </defs>
 <g id="figure_1">
  <g id="patch_1">
   <path d="M 0 360 
L 864 360 
L 864 0 
L 0 0 
z
" style="fill:#ffffff;"/>
  </g>
  <g id="axes_1">
   <g id="patch_2">
    <path d="M 62.55 318.2 
L 348.088182 318.2 
L 348.088182 26.8 
L 62.55 26.8 
z
" style="fill:#ffffff;"/>
   </g>
   <g id="patch_3">
    <path clip-path="url(#p3dae5d426d)" d="M 162.488364 163.228182 
L 248.149818 163.228182 
L 248.149818 101.636818 
L 162.488364 101.636818 
L 162.488364 163.228182 
z
" style="fill:#42be42;stroke:#4c4c4c;stroke-linejoin:miter;stroke-width:1.5;"/>
   </g>
   <g id="matplotlib.axis_1"/>
   <g id="matplotlib.axis_2">
    <g id="ytick_1">
     <g id="line2d_1">
      <defs>
       <path d="M 0 0 
L -3.5 0 
" id="m8fb56aa85d" style="stroke:#000000;stroke-width:0.8;"/>
      </defs>
      <g>
       <use style="stroke:#000000;stroke-width:0.8;" x="62.55" xlink:href="#m8fb56aa85d" y="304.954545"/>
      </g>
     </g>
     <g id="text_1">
      <!-- −1.00 -->
      <defs>
       <path d="M 10.59375 35.5 
L 73.1875 35.5 
L 73.1875 27.203125 
L 10.59375 27.203125 
z
" id="DejaVuSans-8722"/>
       <path d="M 12.40625 8.296875 
L 28.515625 8.296875 
L 28.515625 63.921875 
L 10.984375 60.40625 
L 10.984375 69.390625 
L 28.421875 72.90625 
L 38.28125 72.90625 
L 38.28125 8.296875 
L 54.390625 8.296875 
L 54.390625 0 
L 12.40625 0 
z
" id="DejaVuSans-49"/>
       <path d="M 10.6875 12.40625 
L 21 12.40625 
L 21 0 
L 10.6875 0 
z
" id="DejaVuSans-46"/>
       <path d="M 31.78125 66.40625 
Q 24.171875 66.40625 20.328125 58.90625 
Q 16.5 51.421875 16.5 36.375 
Q 16.5 21.390625 20.328125 13.890625 
Q 24.171875 6.390625 31.78125 6.390625 
Q 39.453125 6.390625 43.28125 13.890625 
Q 47.125 21.390625 47.125 36.375 
Q 47.125 51.421875 43.28125 58.90625 
Q 39.453125 66.40625 31.78125 66.40625 
z
M 31.78125 74.21875 
Q 44.046875 74.21875 50.515625 64.515625 
Q 56.984375 54.828125 56.984375 36.375 
Q 56.984375 17.96875 50.515625 8.265625 
Q 44.046875 -1.421875 31.78125 -1.421875 
Q 19.53125 -1.421875 13.0625 8.265625 
Q 6.59375 17.96875 6.59375 36.375 
Q 6.59375 54.828125 13.0625 64.515625 
Q 19.53125 74.21875 31.78125 74.21875 
z
" id="DejaVuSans-48"/>
      </defs>
      <g transform="translate(24.904688 308.753764)scale(0.1 -0.1)">
       <use xlink:href="#DejaVuSans-8722"/>
       <use x="83.789062" xlink:href="#DejaVuSans-49"/>
       <use x="147.412109" xlink:href="#DejaVuSans-46"/>
       <use x="179.199219" xlink:href="#DejaVuSans-48"/>
       <use x="242.822266" xlink:href="#DejaVuSans-48"/>
      </g>
     </g>
    </g>
    <g id="ytick_2">
     <g id="line2d_2">
      <g>
       <use style="stroke:#000000;stroke-width:0.8;" x="62.55" xlink:href="#m8fb56aa85d" y="271.840909"/>
      </g>
     </g>
     <g id="text_2">
      <!-- −0.75 -->
      <defs>
       <path d="M 8.203125 72.90625 
L 55.078125 72.90625 
L 55.078125 68.703125 
L 28.609375 0 
L 18.3125 0 
L 43.21875 64.59375 
L 8.203125 64.59375 
z
" id="DejaVuSans-55"/>
       <path d="M 10.796875 72.90625 
L 49.515625 72.90625 
L 49.515625 64.59375 
L 19.828125 64.59375 
L 19.828125 46.734375 
Q 21.96875 47.46875 24.109375 47.828125 
Q 26.265625 48.1875 28.421875 48.1875 
Q 40.625 48.1875 47.75 41.5 
Q 54.890625 34.8125 54.890625 23.390625 
Q 54.890625 11.625 47.5625 5.09375 
Q 40.234375 -1.421875 26.90625 -1.421875 
Q 22.3125 -1.421875 17.546875 -0.640625 
Q 12.796875 0.140625 7.71875 1.703125 
L 7.71875 11.625 
Q 12.109375 9.234375 16.796875 8.0625 
Q 21.484375 6.890625 26.703125 6.890625 
Q 35.15625 6.890625 40.078125 11.328125 
Q 45.015625 15.765625 45.015625 23.390625 
Q 45.015625 31 40.078125 35.4375 
Q 35.15625 39.890625 26.703125 39.890625 
Q 22.75 39.890625 18.8125 39.015625 
Q 14.890625 38.140625 10.796875 36.28125 
z
" id="DejaVuSans-53"/>
      </defs>
      <g transform="translate(24.904688 275.640128)scale(0.1 -0.1)">
       <use xlink:href="#DejaVuSans-8722"/>
       <use x="83.789062" xlink:href="#DejaVuSans-48"/>
       <use x="147.412109" xlink:href="#DejaVuSans-46"/>
       <use x="179.199219" xlink:href="#DejaVuSans-55"/>
       <use x="242.822266" xlink:href="#DejaVuSans-53"/>
      </g>
     </g>
    </g>
    <g id="ytick_3">
     <g id="line2d_3">
      <g>
       <use style="stroke:#000000;stroke-width:0.8;" x="62.55" xlink:href="#m8fb56aa85d" y="238.727273"/>
      </g>
     </g>
     <g id="text_3">
      <!-- −0.50 -->
      <g transform="translate(24.904688 242.526491)scale(0.1 -0.1)">
       <use xlink:href="#DejaVuSans-8722"/>
       <use x="83.789062" xlink:href="#DejaVuSans-48"/>
       <use x="147.412109" xlink:href="#DejaVuSans-46"/>
       <use x="179.199219" xlink:href="#DejaVuSans-53"/>
       <use x="242.822266" xlink:href="#DejaVuSans-48"/>
      </g>
     </g>
    </g>
    <g id="ytick_4">
     <g id="line2d_4">
      <g>
       <use style="stroke:#000000;stroke-width:0.8;" x="62.55" xlink:href="#m8fb56aa85d" y="205.613636"/>
      </g>
     </g>
     <g id="text_4">
      <!-- −0.25 -->
      <defs>
       <path d="M 19.1875 8.296875 
L 53.609375 8.296875 
L 53.609375 0 
L 7.328125 0 
L 7.328125 8.296875 
Q 12.9375 14.109375 22.625 23.890625 
Q 32.328125 33.6875 34.8125 36.53125 
Q 39.546875 41.84375 41.421875 45.53125 
Q 43.3125 49.21875 43.3125 52.78125 
Q 43.3125 58.59375 39.234375 62.25 
Q 35.15625 65.921875 28.609375 65.921875 
Q 23.96875 65.921875 18.8125 64.3125 
Q 13.671875 62.703125 7.8125 59.421875 
L 7.8125 69.390625 
Q 13.765625 71.78125 18.9375 73 
Q 24.125 74.21875 28.421875 74.21875 
Q 39.75 74.21875 46.484375 68.546875 
Q 53.21875 62.890625 53.21875 53.421875 
Q 53.21875 48.921875 51.53125 44.890625 
Q 49.859375 40.875 45.40625 35.40625 
Q 44.1875 33.984375 37.640625 27.21875 
Q 31.109375 20.453125 19.1875 8.296875 
z
" id="DejaVuSans-50"/>
      </defs>
      <g transform="translate(24.904688 209.412855)scale(0.1 -0.1)">
       <use xlink:href="#DejaVuSans-8722"/>
       <use x="83.789062" xlink:href="#DejaVuSans-48"/>
       <use x="147.412109" xlink:href="#DejaVuSans-46"/>
       <use x="179.199219" xlink:href="#DejaVuSans-50"/>
       <use x="242.822266" xlink:href="#DejaVuSans-53"/>
      </g>
     </g>
    </g>
    <g id="ytick_5">
     <g id="line2d_5">
      <g>
       <use style="stroke:#000000;stroke-width:0.8;" x="62.55" xlink:href="#m8fb56aa85d" y="172.5"/>
      </g>
     </g>
     <g id="text_5">
      <!-- 0.00 -->
      <g transform="translate(33.284375 176.299219)scale(0.1 -0.1)">
       <use xlink:href="#DejaVuSans-48"/>
       <use x="63.623047" xlink:href="#DejaVuSans-46"/>
       <use x="95.410156" xlink:href="#DejaVuSans-48"/>
       <use x="159.033203" xlink:href="#DejaVuSans-48"/>
      </g>
     </g>
    </g>
    <g id="ytick_6">
     <g id="line2d_6">
      <g>
       <use style="stroke:#000000;stroke-width:0.8;" x="62.55" xlink:href="#m8fb56aa85d" y="139.386364"/>
      </g>
     </g>
     <g id="text_6">
      <!-- 0.25 -->
      <g transform="translate(33.284375 143.185582)scale(0.1 -0.1)">
       <use xlink:href="#DejaVuSans-48"/>
       <use x="63.623047" xlink:href="#DejaVuSans-46"/>
       <use x="95.410156" xlink:href="#DejaVuSans-50"/>
       <use x="159.033203" xlink:href="#DejaVuSans-53"/>
      </g>
     </g>
    </g>
    <g id="ytick_7">
     <g id="line2d_7">
      <g>
       <use style="stroke:#000000;stroke-width:0.8;" x="62.55" xlink:href="#m8fb56aa85d" y="106.272727"/>
      </g>
     </g>
     <g id="text_7">
      <!-- 0.50 -->
      <g transform="translate(33.284375 110.071946)scale(0.1 -0.1)">
       <use xlink:href="#DejaVuSans-48"/>
       <use x="63.623047" xlink:href="#DejaVuSans-46"/>
       <use x="95.410156" xlink:href="#DejaVuSans-53"/>
       <use x="159.033203" xlink:href="#DejaVuSans-48"/>
      </g>
     </g>
    </g>
    <g id="ytick_8">
     <g id="line2d_8">
      <g>
       <use style="stroke:#000000;stroke-width:0.8;" x="62.55" xlink:href="#m8fb56aa85d" y="73.159091"/>
      </g>
     </g>
     <g id="text_8">
      <!-- 0.75 -->
      <g transform="translate(33.284375 76.95831)scale(0.1 -0.1)">
       <use xlink:href="#DejaVuSans-48"/>
       <use x="63.623047" xlink:href="#DejaVuSans-46"/>
       <use x="95.410156" xlink:href="#DejaVuSans-55"/>
       <use x="159.033203" xlink:href="#DejaVuSans-53"/>
      </g>
     </g>
    </g>
    <g id="ytick_9">
     <g id="line2d_9">
      <g>
       <use style="stroke:#000000;stroke-width:0.8;" x="62.55" xlink:href="#m8fb56aa85d" y="40.045455"/>
      </g>
     </g>
     <g id="text_9">
      <!-- 1.00 -->
      <g transform="translate(33.284375 43.844673)scale(0.1 -0.1)">
       <use xlink:href="#DejaVuSans-49"/>
       <use x="63.623047" xlink:href="#DejaVuSans-46"/>
       <use x="95.410156" xlink:href="#DejaVuSans-48"/>
       <use x="159.033203" xlink:href="#DejaVuSans-48"/>
      </g>
     </g>
    </g>
    <g id="text_10">
     <!-- AttitudeMW -->
     <defs>
      <path d="M 34.1875 63.1875 
L 20.796875 26.90625 
L 47.609375 26.90625 
z
M 28.609375 72.90625 
L 39.796875 72.90625 
L 67.578125 0 
L 57.328125 0 
L 50.6875 18.703125 
L 17.828125 18.703125 
L 11.1875 0 
L 0.78125 0 
z
" id="DejaVuSans-65"/>
      <path d="M 18.3125 70.21875 
L 18.3125 54.6875 
L 36.8125 54.6875 
L 36.8125 47.703125 
L 18.3125 47.703125 
L 18.3125 18.015625 
Q 18.3125 11.328125 20.140625 9.421875 
Q 21.96875 7.515625 27.59375 7.515625 
L 36.8125 7.515625 
L 36.8125 0 
L 27.59375 0 
Q 17.1875 0 13.234375 3.875 
Q 9.28125 7.765625 9.28125 18.015625 
L 9.28125 47.703125 
L 2.6875 47.703125 
L 2.6875 54.6875 
L 9.28125 54.6875 
L 9.28125 70.21875 
z
" id="DejaVuSans-116"/>
      <path d="M 9.421875 54.6875 
L 18.40625 54.6875 
L 18.40625 0 
L 9.421875 0 
z
M 9.421875 75.984375 
L 18.40625 75.984375 
L 18.40625 64.59375 
L 9.421875 64.59375 
z
" id="DejaVuSans-105"/>
      <path d="M 8.5 21.578125 
L 8.5 54.6875 
L 17.484375 54.6875 
L 17.484375 21.921875 
Q 17.484375 14.15625 20.5 10.265625 
Q 23.53125 6.390625 29.59375 6.390625 
Q 36.859375 6.390625 41.078125 11.03125 
Q 45.3125 15.671875 45.3125 23.6875 
L 45.3125 54.6875 
L 54.296875 54.6875 
L 54.296875 0 
L 45.3125 0 
L 45.3125 8.40625 
Q 42.046875 3.421875 37.71875 1 
Q 33.40625 -1.421875 27.6875 -1.421875 
Q 18.265625 -1.421875 13.375 4.4375 
Q 8.5 10.296875 8.5 21.578125 
z
M 31.109375 56 
z
" id="DejaVuSans-117"/>
      <path d="M 45.40625 46.390625 
L 45.40625 75.984375 
L 54.390625 75.984375 
L 54.390625 0 
L 45.40625 0 
L 45.40625 8.203125 
Q 42.578125 3.328125 38.25 0.953125 
Q 33.9375 -1.421875 27.875 -1.421875 
Q 17.96875 -1.421875 11.734375 6.484375 
Q 5.515625 14.40625 5.515625 27.296875 
Q 5.515625 40.1875 11.734375 48.09375 
Q 17.96875 56 27.875 56 
Q 33.9375 56 38.25 53.625 
Q 42.578125 51.265625 45.40625 46.390625 
z
M 14.796875 27.296875 
Q 14.796875 17.390625 18.875 11.75 
Q 22.953125 6.109375 30.078125 6.109375 
Q 37.203125 6.109375 41.296875 11.75 
Q 45.40625 17.390625 45.40625 27.296875 
Q 45.40625 37.203125 41.296875 42.84375 
Q 37.203125 48.484375 30.078125 48.484375 
Q 22.953125 48.484375 18.875 42.84375 
Q 14.796875 37.203125 14.796875 27.296875 
z
" id="DejaVuSans-100"/>
      <path d="M 56.203125 29.59375 
L 56.203125 25.203125 
L 14.890625 25.203125 
Q 15.484375 15.921875 20.484375 11.0625 
Q 25.484375 6.203125 34.421875 6.203125 
Q 39.59375 6.203125 44.453125 7.46875 
Q 49.3125 8.734375 54.109375 11.28125 
L 54.109375 2.78125 
Q 49.265625 0.734375 44.1875 -0.34375 
Q 39.109375 -1.421875 33.890625 -1.421875 
Q 20.796875 -1.421875 13.15625 6.1875 
Q 5.515625 13.8125 5.515625 26.8125 
Q 5.515625 40.234375 12.765625 48.109375 
Q 20.015625 56 32.328125 56 
Q 43.359375 56 49.78125 48.890625 
Q 56.203125 41.796875 56.203125 29.59375 
z
M 47.21875 32.234375 
Q 47.125 39.59375 43.09375 43.984375 
Q 39.0625 48.390625 32.421875 48.390625 
Q 24.90625 48.390625 20.390625 44.140625 
Q 15.875 39.890625 15.1875 32.171875 
z
" id="DejaVuSans-101"/>
      <path d="M 9.8125 72.90625 
L 24.515625 72.90625 
L 43.109375 23.296875 
L 61.8125 72.90625 
L 76.515625 72.90625 
L 76.515625 0 
L 66.890625 0 
L 66.890625 64.015625 
L 48.09375 14.015625 
L 38.1875 14.015625 
L 19.390625 64.015625 
L 19.390625 0 
L 9.8125 0 
z
" id="DejaVuSans-77"/>
      <path d="M 3.328125 72.90625 
L 13.28125 72.90625 
L 28.609375 11.28125 
L 43.890625 72.90625 
L 54.984375 72.90625 
L 70.3125 11.28125 
L 85.59375 72.90625 
L 95.609375 72.90625 
L 77.296875 0 
L 64.890625 0 
L 49.515625 63.28125 
L 33.984375 0 
L 21.578125 0 
z
" id="DejaVuSans-87"/>
     </defs>
     <g transform="translate(18.825 201.866406)rotate(-90)scale(0.1 -0.1)">
      <use xlink:href="#DejaVuSans-65"/>
      <use x="68.392578" xlink:href="#DejaVuSans-116"/>
      <use x="107.601562" xlink:href="#DejaVuSans-116"/>
      <use x="146.810547" xlink:href="#DejaVuSans-105"/>
      <use x="174.59375" xlink:href="#DejaVuSans-116"/>
      <use x="213.802734" xlink:href="#DejaVuSans-117"/>
      <use x="277.181641" xlink:href="#DejaVuSans-100"/>
      <use x="340.658203" xlink:href="#DejaVuSans-101"/>
      <use x="402.181641" xlink:href="#DejaVuSans-77"/>
      <use x="488.460938" xlink:href="#DejaVuSans-87"/>
     </g>
    </g>
   </g>
   <g id="line2d_10">
    <path clip-path="url(#p3dae5d426d)" d="M 205.319091 163.228182 
L 205.319091 200.315455 
" style="fill:none;stroke:#4c4c4c;stroke-linecap:square;stroke-width:1.5;"/>
   </g>
   <g id="line2d_11">
    <path clip-path="url(#p3dae5d426d)" d="M 205.319091 101.636818 
L 205.319091 49.317273 
" style="fill:none;stroke:#4c4c4c;stroke-linecap:square;stroke-width:1.5;"/>
   </g>
   <g id="line2d_12">
    <path clip-path="url(#p3dae5d426d)" d="M 183.903727 200.315455 
L 226.734455 200.315455 
" style="fill:none;stroke:#4c4c4c;stroke-linecap:square;stroke-width:1.5;"/>
   </g>
   <g id="line2d_13">
    <path clip-path="url(#p3dae5d426d)" d="M 183.903727 49.317273 
L 226.734455 49.317273 
" style="fill:none;stroke:#4c4c4c;stroke-linecap:square;stroke-width:1.5;"/>
   </g>
   <g id="line2d_14"/>
   <g id="line2d_15">
    <path clip-path="url(#p3dae5d426d)" d="M 62.55 172.5 
L 348.088182 172.5 
" style="fill:none;stroke:#ff0000;stroke-dasharray:5.55,2.4;stroke-dashoffset:0;stroke-width:1.5;"/>
   </g>
   <g id="line2d_16">
    <path clip-path="url(#p3dae5d426d)" d="M 162.488364 115.544545 
L 248.149818 115.544545 
" style="fill:none;stroke:#4c4c4c;stroke-linecap:square;stroke-width:1.5;"/>
   </g>
   <g id="patch_4">
    <path d="M 62.55 318.2 
L 62.55 26.8 
" style="fill:none;stroke:#000000;stroke-linecap:square;stroke-linejoin:miter;stroke-width:0.8;"/>
   </g>
   <g id="patch_5">
    <path d="M 348.088182 318.2 
L 348.088182 26.8 
" style="fill:none;stroke:#000000;stroke-linecap:square;stroke-linejoin:miter;stroke-width:0.8;"/>
   </g>
   <g id="patch_6">
    <path d="M 62.55 318.2 
L 348.088182 318.2 
" style="fill:none;stroke:#000000;stroke-linecap:square;stroke-linejoin:miter;stroke-width:0.8;"/>
   </g>
   <g id="patch_7">
    <path d="M 62.55 26.8 
L 348.088182 26.8 
" style="fill:none;stroke:#000000;stroke-linecap:square;stroke-linejoin:miter;stroke-width:0.8;"/>
   </g>
   <g id="PathCollection_1">
    <defs>
     <path d="M 0 2.5 
C 0.663008 2.5 1.29895 2.236584 1.767767 1.767767 
C 2.236584 1.29895 2.5 0.663008 2.5 0 
C 2.5 -0.663008 2.236584 -1.29895 1.767767 -1.767767 
C 1.29895 -2.236584 0.663008 -2.5 0 -2.5 
C -0.663008 -2.5 -1.29895 -2.236584 -1.767767 -1.767767 
C -2.236584 -1.29895 -2.5 -0.663008 -2.5 0 
C -2.5 0.663008 -2.236584 1.29895 -1.767767 1.767767 
C -1.29895 2.236584 -0.663008 2.5 0 2.5 
z
" id="C0_0_a21e5794e7"/>
    </defs>
    <g clip-path="url(#p3dae5d426d)">
     <use style="fill:#ff4500;" x="205.319091" xlink:href="#C0_0_a21e5794e7" y="200.315455"/>
    </g>
    <g clip-path="url(#p3dae5d426d)">
     <use style="fill:#ff4500;" x="205.319091" xlink:href="#C0_0_a21e5794e7" y="191.043636"/>
    </g>
    <g clip-path="url(#p3dae5d426d)">
     <use style="fill:#ff4500;" x="205.319091" xlink:href="#C0_0_a21e5794e7" y="181.771818"/>
    </g>
    <g clip-path="url(#p3dae5d426d)">
     <use style="fill:#ff4500;" x="205.319091" xlink:href="#C0_0_a21e5794e7" y="172.5"/>
    </g>
    <g clip-path="url(#p3dae5d426d)">
     <use style="fill:#ff4500;" x="205.319091" xlink:href="#C0_0_a21e5794e7" y="153.956364"/>
    </g>
    <g clip-path="url(#p3dae5d426d)">
     <use style="fill:#ff4500;" x="205.319091" xlink:href="#C0_0_a21e5794e7" y="144.684545"/>
    </g>
    <g clip-path="url(#p3dae5d426d)">
     <use style="fill:#ff4500;" x="205.319091" xlink:href="#C0_0_a21e5794e7" y="134.088182"/>
    </g>
    <g clip-path="url(#p3dae5d426d)">
     <use style="fill:#ff4500;" x="205.319091" xlink:href="#C0_0_a21e5794e7" y="115.544545"/>
    </g>
    <g clip-path="url(#p3dae5d426d)">
     <use style="fill:#ff4500;" x="199.162494" xlink:href="#C0_0_a21e5794e7" y="115.544545"/>
    </g>
    <g clip-path="url(#p3dae5d426d)">
     <use style="fill:#ff4500;" x="211.475688" xlink:href="#C0_0_a21e5794e7" y="115.544545"/>
    </g>
    <g clip-path="url(#p3dae5d426d)">
     <use style="fill:#ff4500;" x="205.319091" xlink:href="#C0_0_a21e5794e7" y="106.272727"/>
    </g>
    <g clip-path="url(#p3dae5d426d)">
     <use style="fill:#ff4500;" x="205.319091" xlink:href="#C0_0_a21e5794e7" y="97.000909"/>
    </g>
    <g clip-path="url(#p3dae5d426d)">
     <use style="fill:#ff4500;" x="205.319091" xlink:href="#C0_0_a21e5794e7" y="78.457273"/>
    </g>
    <g clip-path="url(#p3dae5d426d)">
     <use style="fill:#ff4500;" x="205.319091" xlink:href="#C0_0_a21e5794e7" y="67.860909"/>
    </g>
    <g clip-path="url(#p3dae5d426d)">
     <use style="fill:#ff4500;" x="205.319091" xlink:href="#C0_0_a21e5794e7" y="49.317273"/>
    </g>
   </g>
   <g id="text_11">
    <!-- Positive attitude towards Mind Wandering -->
    <defs>
     <path d="M 19.671875 64.796875 
L 19.671875 37.40625 
L 32.078125 37.40625 
Q 38.96875 37.40625 42.71875 40.96875 
Q 46.484375 44.53125 46.484375 51.125 
Q 46.484375 57.671875 42.71875 61.234375 
Q 38.96875 64.796875 32.078125 64.796875 
z
M 9.8125 72.90625 
L 32.078125 72.90625 
Q 44.34375 72.90625 50.609375 67.359375 
Q 56.890625 61.8125 56.890625 51.125 
Q 56.890625 40.328125 50.609375 34.8125 
Q 44.34375 29.296875 32.078125 29.296875 
L 19.671875 29.296875 
L 19.671875 0 
L 9.8125 0 
z
" id="DejaVuSans-80"/>
     <path d="M 30.609375 48.390625 
Q 23.390625 48.390625 19.1875 42.75 
Q 14.984375 37.109375 14.984375 27.296875 
Q 14.984375 17.484375 19.15625 11.84375 
Q 23.34375 6.203125 30.609375 6.203125 
Q 37.796875 6.203125 41.984375 11.859375 
Q 46.1875 17.53125 46.1875 27.296875 
Q 46.1875 37.015625 41.984375 42.703125 
Q 37.796875 48.390625 30.609375 48.390625 
z
M 30.609375 56 
Q 42.328125 56 49.015625 48.375 
Q 55.71875 40.765625 55.71875 27.296875 
Q 55.71875 13.875 49.015625 6.21875 
Q 42.328125 -1.421875 30.609375 -1.421875 
Q 18.84375 -1.421875 12.171875 6.21875 
Q 5.515625 13.875 5.515625 27.296875 
Q 5.515625 40.765625 12.171875 48.375 
Q 18.84375 56 30.609375 56 
z
" id="DejaVuSans-111"/>
     <path d="M 44.28125 53.078125 
L 44.28125 44.578125 
Q 40.484375 46.53125 36.375 47.5 
Q 32.28125 48.484375 27.875 48.484375 
Q 21.1875 48.484375 17.84375 46.4375 
Q 14.5 44.390625 14.5 40.28125 
Q 14.5 37.15625 16.890625 35.375 
Q 19.28125 33.59375 26.515625 31.984375 
L 29.59375 31.296875 
Q 39.15625 29.25 43.1875 25.515625 
Q 47.21875 21.78125 47.21875 15.09375 
Q 47.21875 7.46875 41.1875 3.015625 
Q 35.15625 -1.421875 24.609375 -1.421875 
Q 20.21875 -1.421875 15.453125 -0.5625 
Q 10.6875 0.296875 5.421875 2 
L 5.421875 11.28125 
Q 10.40625 8.6875 15.234375 7.390625 
Q 20.0625 6.109375 24.8125 6.109375 
Q 31.15625 6.109375 34.5625 8.28125 
Q 37.984375 10.453125 37.984375 14.40625 
Q 37.984375 18.0625 35.515625 20.015625 
Q 33.0625 21.96875 24.703125 23.78125 
L 21.578125 24.515625 
Q 13.234375 26.265625 9.515625 29.90625 
Q 5.8125 33.546875 5.8125 39.890625 
Q 5.8125 47.609375 11.28125 51.796875 
Q 16.75 56 26.8125 56 
Q 31.78125 56 36.171875 55.265625 
Q 40.578125 54.546875 44.28125 53.078125 
z
" id="DejaVuSans-115"/>
     <path d="M 2.984375 54.6875 
L 12.5 54.6875 
L 29.59375 8.796875 
L 46.6875 54.6875 
L 56.203125 54.6875 
L 35.6875 0 
L 23.484375 0 
z
" id="DejaVuSans-118"/>
     <path id="DejaVuSans-32"/>
     <path d="M 34.28125 27.484375 
Q 23.390625 27.484375 19.1875 25 
Q 14.984375 22.515625 14.984375 16.5 
Q 14.984375 11.71875 18.140625 8.90625 
Q 21.296875 6.109375 26.703125 6.109375 
Q 34.1875 6.109375 38.703125 11.40625 
Q 43.21875 16.703125 43.21875 25.484375 
L 43.21875 27.484375 
z
M 52.203125 31.203125 
L 52.203125 0 
L 43.21875 0 
L 43.21875 8.296875 
Q 40.140625 3.328125 35.546875 0.953125 
Q 30.953125 -1.421875 24.3125 -1.421875 
Q 15.921875 -1.421875 10.953125 3.296875 
Q 6 8.015625 6 15.921875 
Q 6 25.140625 12.171875 29.828125 
Q 18.359375 34.515625 30.609375 34.515625 
L 43.21875 34.515625 
L 43.21875 35.40625 
Q 43.21875 41.609375 39.140625 45 
Q 35.0625 48.390625 27.6875 48.390625 
Q 23 48.390625 18.546875 47.265625 
Q 14.109375 46.140625 10.015625 43.890625 
L 10.015625 52.203125 
Q 14.9375 54.109375 19.578125 55.046875 
Q 24.21875 56 28.609375 56 
Q 40.484375 56 46.34375 49.84375 
Q 52.203125 43.703125 52.203125 31.203125 
z
" id="DejaVuSans-97"/>
     <path d="M 4.203125 54.6875 
L 13.1875 54.6875 
L 24.421875 12.015625 
L 35.59375 54.6875 
L 46.1875 54.6875 
L 57.421875 12.015625 
L 68.609375 54.6875 
L 77.59375 54.6875 
L 63.28125 0 
L 52.6875 0 
L 40.921875 44.828125 
L 29.109375 0 
L 18.5 0 
z
" id="DejaVuSans-119"/>
     <path d="M 41.109375 46.296875 
Q 39.59375 47.171875 37.8125 47.578125 
Q 36.03125 48 33.890625 48 
Q 26.265625 48 22.1875 43.046875 
Q 18.109375 38.09375 18.109375 28.8125 
L 18.109375 0 
L 9.078125 0 
L 9.078125 54.6875 
L 18.109375 54.6875 
L 18.109375 46.1875 
Q 20.953125 51.171875 25.484375 53.578125 
Q 30.03125 56 36.53125 56 
Q 37.453125 56 38.578125 55.875 
Q 39.703125 55.765625 41.0625 55.515625 
z
" id="DejaVuSans-114"/>
     <path d="M 54.890625 33.015625 
L 54.890625 0 
L 45.90625 0 
L 45.90625 32.71875 
Q 45.90625 40.484375 42.875 44.328125 
Q 39.84375 48.1875 33.796875 48.1875 
Q 26.515625 48.1875 22.3125 43.546875 
Q 18.109375 38.921875 18.109375 30.90625 
L 18.109375 0 
L 9.078125 0 
L 9.078125 54.6875 
L 18.109375 54.6875 
L 18.109375 46.1875 
Q 21.34375 51.125 25.703125 53.5625 
Q 30.078125 56 35.796875 56 
Q 45.21875 56 50.046875 50.171875 
Q 54.890625 44.34375 54.890625 33.015625 
z
" id="DejaVuSans-110"/>
     <path d="M 45.40625 27.984375 
Q 45.40625 37.75 41.375 43.109375 
Q 37.359375 48.484375 30.078125 48.484375 
Q 22.859375 48.484375 18.828125 43.109375 
Q 14.796875 37.75 14.796875 27.984375 
Q 14.796875 18.265625 18.828125 12.890625 
Q 22.859375 7.515625 30.078125 7.515625 
Q 37.359375 7.515625 41.375 12.890625 
Q 45.40625 18.265625 45.40625 27.984375 
z
M 54.390625 6.78125 
Q 54.390625 -7.171875 48.1875 -13.984375 
Q 42 -20.796875 29.203125 -20.796875 
Q 24.46875 -20.796875 20.265625 -20.09375 
Q 16.0625 -19.390625 12.109375 -17.921875 
L 12.109375 -9.1875 
Q 16.0625 -11.328125 19.921875 -12.34375 
Q 23.78125 -13.375 27.78125 -13.375 
Q 36.625 -13.375 41.015625 -8.765625 
Q 45.40625 -4.15625 45.40625 5.171875 
L 45.40625 9.625 
Q 42.625 4.78125 38.28125 2.390625 
Q 33.9375 0 27.875 0 
Q 17.828125 0 11.671875 7.65625 
Q 5.515625 15.328125 5.515625 27.984375 
Q 5.515625 40.671875 11.671875 48.328125 
Q 17.828125 56 27.875 56 
Q 33.9375 56 38.28125 53.609375 
Q 42.625 51.21875 45.40625 46.390625 
L 45.40625 54.6875 
L 54.390625 54.6875 
z
" id="DejaVuSans-103"/>
    </defs>
    <g transform="translate(79.531903 20.8)scale(0.12 -0.12)">
     <use xlink:href="#DejaVuSans-80"/>
     <use x="60.255859" xlink:href="#DejaVuSans-111"/>
     <use x="121.4375" xlink:href="#DejaVuSans-115"/>
     <use x="173.537109" xlink:href="#DejaVuSans-105"/>
     <use x="201.320312" xlink:href="#DejaVuSans-116"/>
     <use x="240.529297" xlink:href="#DejaVuSans-105"/>
     <use x="268.3125" xlink:href="#DejaVuSans-118"/>
     <use x="327.492188" xlink:href="#DejaVuSans-101"/>
     <use x="389.015625" xlink:href="#DejaVuSans-32"/>
     <use x="420.802734" xlink:href="#DejaVuSans-97"/>
     <use x="482.082031" xlink:href="#DejaVuSans-116"/>
     <use x="521.291016" xlink:href="#DejaVuSans-116"/>
     <use x="560.5" xlink:href="#DejaVuSans-105"/>
     <use x="588.283203" xlink:href="#DejaVuSans-116"/>
     <use x="627.492188" xlink:href="#DejaVuSans-117"/>
     <use x="690.871094" xlink:href="#DejaVuSans-100"/>
     <use x="754.347656" xlink:href="#DejaVuSans-101"/>
     <use x="815.871094" xlink:href="#DejaVuSans-32"/>
     <use x="847.658203" xlink:href="#DejaVuSans-116"/>
     <use x="886.867188" xlink:href="#DejaVuSans-111"/>
     <use x="948.048828" xlink:href="#DejaVuSans-119"/>
     <use x="1029.835938" xlink:href="#DejaVuSans-97"/>
     <use x="1091.115234" xlink:href="#DejaVuSans-114"/>
     <use x="1132.212891" xlink:href="#DejaVuSans-100"/>
     <use x="1195.689453" xlink:href="#DejaVuSans-115"/>
     <use x="1247.789062" xlink:href="#DejaVuSans-32"/>
     <use x="1279.576172" xlink:href="#DejaVuSans-77"/>
     <use x="1365.855469" xlink:href="#DejaVuSans-105"/>
     <use x="1393.638672" xlink:href="#DejaVuSans-110"/>
     <use x="1457.017578" xlink:href="#DejaVuSans-100"/>
     <use x="1520.494141" xlink:href="#DejaVuSans-32"/>
     <use x="1552.28125" xlink:href="#DejaVuSans-87"/>
     <use x="1651.064453" xlink:href="#DejaVuSans-97"/>
     <use x="1712.34375" xlink:href="#DejaVuSans-110"/>
     <use x="1775.722656" xlink:href="#DejaVuSans-100"/>
     <use x="1839.199219" xlink:href="#DejaVuSans-101"/>
     <use x="1900.722656" xlink:href="#DejaVuSans-114"/>
     <use x="1941.835938" xlink:href="#DejaVuSans-105"/>
     <use x="1969.619141" xlink:href="#DejaVuSans-110"/>
     <use x="2032.998047" xlink:href="#DejaVuSans-103"/>
    </g>
   </g>
  </g>
  <g id="axes_2">
   <g id="patch_8">
    <path d="M 415.330227 318.2 
L 843.6375 318.2 
L 843.6375 26.8 
L 415.330227 26.8 
z
" style="fill:#ffffff;"/>
   </g>
   <g id="PathCollection_2">
    <defs>
     <path d="M 0 3 
C 0.795609 3 1.55874 2.683901 2.12132 2.12132 
C 2.683901 1.55874 3 0.795609 3 0 
C 3 -0.795609 2.683901 -1.55874 2.12132 -2.12132 
C 1.55874 -2.683901 0.795609 -3 0 -3 
C -0.795609 -3 -1.55874 -2.683901 -2.12132 -2.12132 
C -2.683901 -1.55874 -3 -0.795609 -3 0 
C -3 0.795609 -2.683901 1.55874 -2.12132 2.12132 
C -1.55874 2.683901 -0.795609 3 0 3 
z
" id="m59d00e9c80" style="stroke:#ff4500;stroke-opacity:0.8;"/>
    </defs>
    <g clip-path="url(#p0853a3303e)">
     <use style="fill:#ff4500;fill-opacity:0.8;stroke:#ff4500;stroke-opacity:0.8;" x="479.576318" xlink:href="#m59d00e9c80" y="134.088182"/>
     <use style="fill:#ff4500;fill-opacity:0.8;stroke:#ff4500;stroke-opacity:0.8;" x="689.446882" xlink:href="#m59d00e9c80" y="191.043636"/>
     <use style="fill:#ff4500;fill-opacity:0.8;stroke:#ff4500;stroke-opacity:0.8;" x="535.256264" xlink:href="#m59d00e9c80" y="97.000909"/>
     <use style="fill:#ff4500;fill-opacity:0.8;stroke:#ff4500;stroke-opacity:0.8;" x="509.557827" xlink:href="#m59d00e9c80" y="144.684545"/>
     <use style="fill:#ff4500;fill-opacity:0.8;stroke:#ff4500;stroke-opacity:0.8;" x="526.690118" xlink:href="#m59d00e9c80" y="153.956364"/>
     <use style="fill:#ff4500;fill-opacity:0.8;stroke:#ff4500;stroke-opacity:0.8;" x="436.745591" xlink:href="#m59d00e9c80" y="115.544545"/>
     <use style="fill:#ff4500;fill-opacity:0.8;stroke:#ff4500;stroke-opacity:0.8;" x="809.372918" xlink:href="#m59d00e9c80" y="172.5"/>
     <use style="fill:#ff4500;fill-opacity:0.8;stroke:#ff4500;stroke-opacity:0.8;" x="518.123973" xlink:href="#m59d00e9c80" y="200.315455"/>
     <use style="fill:#ff4500;fill-opacity:0.8;stroke:#ff4500;stroke-opacity:0.8;" x="616.634645" xlink:href="#m59d00e9c80" y="78.457273"/>
     <use style="fill:#ff4500;fill-opacity:0.8;stroke:#ff4500;stroke-opacity:0.8;" x="441.028664" xlink:href="#m59d00e9c80" y="115.544545"/>
     <use style="fill:#ff4500;fill-opacity:0.8;stroke:#ff4500;stroke-opacity:0.8;" x="436.745591" xlink:href="#m59d00e9c80" y="115.544545"/>
     <use style="fill:#ff4500;fill-opacity:0.8;stroke:#ff4500;stroke-opacity:0.8;" x="590.936209" xlink:href="#m59d00e9c80" y="181.771818"/>
     <use style="fill:#ff4500;fill-opacity:0.8;stroke:#ff4500;stroke-opacity:0.8;" x="432.462518" xlink:href="#m59d00e9c80" y="49.317273"/>
     <use style="fill:#ff4500;fill-opacity:0.8;stroke:#ff4500;stroke-opacity:0.8;" x="441.028664" xlink:href="#m59d00e9c80" y="67.860909"/>
     <use style="fill:#ff4500;fill-opacity:0.8;stroke:#ff4500;stroke-opacity:0.8;" x="488.142464" xlink:href="#m59d00e9c80" y="106.272727"/>
    </g>
   </g>
   <g id="PolyCollection_1">
    <path clip-path="url(#p0853a3303e)" d="M 415.330227 75.74853 
L 415.330227 128.048295 
L 419.656563 128.500302 
L 423.982899 129.013805 
L 428.309236 129.82668 
L 432.635572 130.408324 
L 436.961908 130.759664 
L 441.288244 131.793155 
L 445.61458 132.494063 
L 449.940916 132.971885 
L 454.267252 133.448916 
L 458.593588 133.925947 
L 462.919924 134.402978 
L 467.24626 134.812766 
L 471.572596 135.352715 
L 475.898933 135.831593 
L 480.225269 136.57778 
L 484.551605 137.483662 
L 488.877941 138.351455 
L 493.204277 139.242363 
L 497.530613 140.69105 
L 501.856949 141.650825 
L 506.183285 142.500505 
L 510.509621 143.66814 
L 514.835957 145.849043 
L 519.162293 147.772883 
L 523.488629 149.942951 
L 527.814966 151.51978 
L 532.141302 152.862532 
L 536.467638 153.860259 
L 540.793974 155.460622 
L 545.12031 157.049774 
L 549.446646 158.224655 
L 553.772982 160.095318 
L 558.099318 162.167556 
L 562.425654 163.963197 
L 566.75199 165.426444 
L 571.078326 166.904876 
L 575.404663 168.490593 
L 579.730999 170.341007 
L 584.057335 172.633658 
L 588.383671 174.638688 
L 592.710007 176.346705 
L 597.036343 178.25475 
L 601.362679 180.048036 
L 605.689015 182.366483 
L 610.015351 184.69803 
L 614.341687 187.029577 
L 618.668023 189.355186 
L 622.99436 191.129708 
L 627.320696 192.99152 
L 631.647032 195.183726 
L 635.973368 197.368307 
L 640.299704 199.552887 
L 644.62604 201.750728 
L 648.952376 203.952358 
L 653.278712 206.153988 
L 657.605048 208.355618 
L 661.931384 210.557248 
L 666.25772 212.758878 
L 670.584056 214.959744 
L 674.910393 217.156061 
L 679.236729 219.483953 
L 683.563065 221.863818 
L 687.889401 224.243682 
L 692.215737 226.623547 
L 696.542073 229.003412 
L 700.868409 231.383276 
L 705.194745 233.763141 
L 709.521081 236.143006 
L 713.847417 238.522871 
L 718.173753 240.902735 
L 722.50009 243.2826 
L 726.826426 245.662465 
L 731.152762 248.042329 
L 735.479098 250.347281 
L 739.805434 252.4043 
L 744.13177 254.460789 
L 748.458106 256.517278 
L 752.784442 258.903582 
L 757.110778 261.311587 
L 761.437114 263.719593 
L 765.76345 266.127018 
L 770.089787 268.289709 
L 774.416123 270.415554 
L 778.742459 272.541399 
L 783.068795 274.667245 
L 787.395131 276.79309 
L 791.721467 278.918935 
L 796.047803 281.04478 
L 800.374139 283.170626 
L 804.700475 285.296471 
L 809.026811 287.422316 
L 813.353147 289.548161 
L 817.679483 291.674007 
L 822.00582 293.799852 
L 826.332156 295.925697 
L 830.658492 298.051543 
L 834.984828 300.177388 
L 839.311164 302.303233 
L 843.6375 304.428652 
L 843.6375 143.119808 
L 843.6375 143.119808 
L 839.311164 142.6462 
L 834.984828 142.172591 
L 830.658492 141.698983 
L 826.332156 141.227195 
L 822.00582 140.838419 
L 817.679483 140.449643 
L 813.353147 140.02481 
L 809.026811 139.574071 
L 804.700475 139.123333 
L 800.374139 138.672594 
L 796.047803 138.222519 
L 791.721467 137.775906 
L 787.395131 137.329293 
L 783.068795 136.946481 
L 778.742459 136.42822 
L 774.416123 135.974768 
L 770.089787 135.521316 
L 765.76345 135.067865 
L 761.437114 134.615948 
L 757.110778 134.165209 
L 752.784442 133.714471 
L 748.458106 133.264366 
L 744.13177 132.823298 
L 739.805434 132.506873 
L 735.479098 132.417626 
L 731.152762 132.328378 
L 726.826426 132.239131 
L 722.50009 132.079888 
L 718.173753 131.973441 
L 713.847417 131.866995 
L 709.521081 131.576054 
L 705.194745 130.798278 
L 700.868409 130.020503 
L 696.542073 129.781576 
L 692.215737 129.874838 
L 687.889401 129.931991 
L 683.563065 129.251551 
L 679.236729 129.279688 
L 674.910393 129.183779 
L 670.584056 128.560935 
L 666.25772 127.762412 
L 661.931384 126.96389 
L 657.605048 126.149959 
L 653.278712 125.349321 
L 648.952376 124.549705 
L 644.62604 124.330431 
L 640.299704 124.111157 
L 635.973368 123.891884 
L 631.647032 123.67261 
L 627.320696 123.272195 
L 622.99436 122.674031 
L 618.668023 122.345745 
L 614.341687 121.676789 
L 610.015351 120.806843 
L 605.689015 120.346276 
L 601.362679 119.679786 
L 597.036343 119.013296 
L 592.710007 118.676332 
L 588.383671 117.853201 
L 584.057335 117.701027 
L 579.730999 117.411201 
L 575.404663 116.658715 
L 571.078326 115.83867 
L 566.75199 115.309574 
L 562.425654 114.384665 
L 558.099318 113.525615 
L 553.772982 112.970881 
L 549.446646 112.022116 
L 545.12031 111.352695 
L 540.793974 110.743592 
L 536.467638 110.118014 
L 532.141302 109.486235 
L 527.814966 108.857102 
L 523.488629 107.914529 
L 519.162293 107.086593 
L 514.835957 106.130455 
L 510.509621 105.327692 
L 506.183285 104.416876 
L 501.856949 103.486731 
L 497.530613 102.667563 
L 493.204277 101.618488 
L 488.877941 100.360385 
L 484.551605 99.123259 
L 480.225269 97.878267 
L 475.898933 96.861856 
L 471.572596 95.806414 
L 467.24626 94.408136 
L 462.919924 93.404144 
L 458.593588 91.936114 
L 454.267252 90.325536 
L 449.940916 88.691415 
L 445.61458 87.316705 
L 441.288244 85.833125 
L 436.961908 84.33201 
L 432.635572 82.898397 
L 428.309236 81.191155 
L 423.982899 79.338538 
L 419.656563 77.52718 
L 415.330227 75.74853 
z
" style="fill:#ff4500;fill-opacity:0.15;"/>
   </g>
   <g id="matplotlib.axis_3">
    <g id="xtick_1">
     <g id="line2d_17">
      <defs>
       <path d="M 0 0 
L 0 3.5 
" id="m22385d2d42" style="stroke:#000000;stroke-width:0.8;"/>
      </defs>
      <g>
       <use style="stroke:#000000;stroke-width:0.8;" x="415.330227" xlink:href="#m22385d2d42" y="318.2"/>
      </g>
     </g>
     <g id="text_12">
      <!-- 0 -->
      <g transform="translate(412.148977 332.798438)scale(0.1 -0.1)">
       <use xlink:href="#DejaVuSans-48"/>
      </g>
     </g>
    </g>
    <g id="xtick_2">
     <g id="line2d_18">
      <g>
       <use style="stroke:#000000;stroke-width:0.8;" x="500.991682" xlink:href="#m22385d2d42" y="318.2"/>
      </g>
     </g>
     <g id="text_13">
      <!-- 20 -->
      <g transform="translate(494.629182 332.798438)scale(0.1 -0.1)">
       <use xlink:href="#DejaVuSans-50"/>
       <use x="63.623047" xlink:href="#DejaVuSans-48"/>
      </g>
     </g>
    </g>
    <g id="xtick_3">
     <g id="line2d_19">
      <g>
       <use style="stroke:#000000;stroke-width:0.8;" x="586.653136" xlink:href="#m22385d2d42" y="318.2"/>
      </g>
     </g>
     <g id="text_14">
      <!-- 40 -->
      <defs>
       <path d="M 37.796875 64.3125 
L 12.890625 25.390625 
L 37.796875 25.390625 
z
M 35.203125 72.90625 
L 47.609375 72.90625 
L 47.609375 25.390625 
L 58.015625 25.390625 
L 58.015625 17.1875 
L 47.609375 17.1875 
L 47.609375 0 
L 37.796875 0 
L 37.796875 17.1875 
L 4.890625 17.1875 
L 4.890625 26.703125 
z
" id="DejaVuSans-52"/>
      </defs>
      <g transform="translate(580.290636 332.798438)scale(0.1 -0.1)">
       <use xlink:href="#DejaVuSans-52"/>
       <use x="63.623047" xlink:href="#DejaVuSans-48"/>
      </g>
     </g>
    </g>
    <g id="xtick_4">
     <g id="line2d_20">
      <g>
       <use style="stroke:#000000;stroke-width:0.8;" x="672.314591" xlink:href="#m22385d2d42" y="318.2"/>
      </g>
     </g>
     <g id="text_15">
      <!-- 60 -->
      <defs>
       <path d="M 33.015625 40.375 
Q 26.375 40.375 22.484375 35.828125 
Q 18.609375 31.296875 18.609375 23.390625 
Q 18.609375 15.53125 22.484375 10.953125 
Q 26.375 6.390625 33.015625 6.390625 
Q 39.65625 6.390625 43.53125 10.953125 
Q 47.40625 15.53125 47.40625 23.390625 
Q 47.40625 31.296875 43.53125 35.828125 
Q 39.65625 40.375 33.015625 40.375 
z
M 52.59375 71.296875 
L 52.59375 62.3125 
Q 48.875 64.0625 45.09375 64.984375 
Q 41.3125 65.921875 37.59375 65.921875 
Q 27.828125 65.921875 22.671875 59.328125 
Q 17.53125 52.734375 16.796875 39.40625 
Q 19.671875 43.65625 24.015625 45.921875 
Q 28.375 48.1875 33.59375 48.1875 
Q 44.578125 48.1875 50.953125 41.515625 
Q 57.328125 34.859375 57.328125 23.390625 
Q 57.328125 12.15625 50.6875 5.359375 
Q 44.046875 -1.421875 33.015625 -1.421875 
Q 20.359375 -1.421875 13.671875 8.265625 
Q 6.984375 17.96875 6.984375 36.375 
Q 6.984375 53.65625 15.1875 63.9375 
Q 23.390625 74.21875 37.203125 74.21875 
Q 40.921875 74.21875 44.703125 73.484375 
Q 48.484375 72.75 52.59375 71.296875 
z
" id="DejaVuSans-54"/>
      </defs>
      <g transform="translate(665.952091 332.798438)scale(0.1 -0.1)">
       <use xlink:href="#DejaVuSans-54"/>
       <use x="63.623047" xlink:href="#DejaVuSans-48"/>
      </g>
     </g>
    </g>
    <g id="xtick_5">
     <g id="line2d_21">
      <g>
       <use style="stroke:#000000;stroke-width:0.8;" x="757.976045" xlink:href="#m22385d2d42" y="318.2"/>
      </g>
     </g>
     <g id="text_16">
      <!-- 80 -->
      <defs>
       <path d="M 31.78125 34.625 
Q 24.75 34.625 20.71875 30.859375 
Q 16.703125 27.09375 16.703125 20.515625 
Q 16.703125 13.921875 20.71875 10.15625 
Q 24.75 6.390625 31.78125 6.390625 
Q 38.8125 6.390625 42.859375 10.171875 
Q 46.921875 13.96875 46.921875 20.515625 
Q 46.921875 27.09375 42.890625 30.859375 
Q 38.875 34.625 31.78125 34.625 
z
M 21.921875 38.8125 
Q 15.578125 40.375 12.03125 44.71875 
Q 8.5 49.078125 8.5 55.328125 
Q 8.5 64.0625 14.71875 69.140625 
Q 20.953125 74.21875 31.78125 74.21875 
Q 42.671875 74.21875 48.875 69.140625 
Q 55.078125 64.0625 55.078125 55.328125 
Q 55.078125 49.078125 51.53125 44.71875 
Q 48 40.375 41.703125 38.8125 
Q 48.828125 37.15625 52.796875 32.3125 
Q 56.78125 27.484375 56.78125 20.515625 
Q 56.78125 9.90625 50.3125 4.234375 
Q 43.84375 -1.421875 31.78125 -1.421875 
Q 19.734375 -1.421875 13.25 4.234375 
Q 6.78125 9.90625 6.78125 20.515625 
Q 6.78125 27.484375 10.78125 32.3125 
Q 14.796875 37.15625 21.921875 38.8125 
z
M 18.3125 54.390625 
Q 18.3125 48.734375 21.84375 45.5625 
Q 25.390625 42.390625 31.78125 42.390625 
Q 38.140625 42.390625 41.71875 45.5625 
Q 45.3125 48.734375 45.3125 54.390625 
Q 45.3125 60.0625 41.71875 63.234375 
Q 38.140625 66.40625 31.78125 66.40625 
Q 25.390625 66.40625 21.84375 63.234375 
Q 18.3125 60.0625 18.3125 54.390625 
z
" id="DejaVuSans-56"/>
      </defs>
      <g transform="translate(751.613545 332.798438)scale(0.1 -0.1)">
       <use xlink:href="#DejaVuSans-56"/>
       <use x="63.623047" xlink:href="#DejaVuSans-48"/>
      </g>
     </g>
    </g>
    <g id="xtick_6">
     <g id="line2d_22">
      <g>
       <use style="stroke:#000000;stroke-width:0.8;" x="843.6375" xlink:href="#m22385d2d42" y="318.2"/>
      </g>
     </g>
     <g id="text_17">
      <!-- 100 -->
      <g transform="translate(834.09375 332.798438)scale(0.1 -0.1)">
       <use xlink:href="#DejaVuSans-49"/>
       <use x="63.623047" xlink:href="#DejaVuSans-48"/>
       <use x="127.246094" xlink:href="#DejaVuSans-48"/>
      </g>
     </g>
    </g>
    <g id="text_18">
     <!-- Total number of MW episodes during the experiment -->
     <defs>
      <path d="M -0.296875 72.90625 
L 61.375 72.90625 
L 61.375 64.59375 
L 35.5 64.59375 
L 35.5 0 
L 25.59375 0 
L 25.59375 64.59375 
L -0.296875 64.59375 
z
" id="DejaVuSans-84"/>
      <path d="M 9.421875 75.984375 
L 18.40625 75.984375 
L 18.40625 0 
L 9.421875 0 
z
" id="DejaVuSans-108"/>
      <path d="M 52 44.1875 
Q 55.375 50.25 60.0625 53.125 
Q 64.75 56 71.09375 56 
Q 79.640625 56 84.28125 50.015625 
Q 88.921875 44.046875 88.921875 33.015625 
L 88.921875 0 
L 79.890625 0 
L 79.890625 32.71875 
Q 79.890625 40.578125 77.09375 44.375 
Q 74.3125 48.1875 68.609375 48.1875 
Q 61.625 48.1875 57.5625 43.546875 
Q 53.515625 38.921875 53.515625 30.90625 
L 53.515625 0 
L 44.484375 0 
L 44.484375 32.71875 
Q 44.484375 40.625 41.703125 44.40625 
Q 38.921875 48.1875 33.109375 48.1875 
Q 26.21875 48.1875 22.15625 43.53125 
Q 18.109375 38.875 18.109375 30.90625 
L 18.109375 0 
L 9.078125 0 
L 9.078125 54.6875 
L 18.109375 54.6875 
L 18.109375 46.1875 
Q 21.1875 51.21875 25.484375 53.609375 
Q 29.78125 56 35.6875 56 
Q 41.65625 56 45.828125 52.96875 
Q 50 49.953125 52 44.1875 
z
" id="DejaVuSans-109"/>
      <path d="M 48.6875 27.296875 
Q 48.6875 37.203125 44.609375 42.84375 
Q 40.53125 48.484375 33.40625 48.484375 
Q 26.265625 48.484375 22.1875 42.84375 
Q 18.109375 37.203125 18.109375 27.296875 
Q 18.109375 17.390625 22.1875 11.75 
Q 26.265625 6.109375 33.40625 6.109375 
Q 40.53125 6.109375 44.609375 11.75 
Q 48.6875 17.390625 48.6875 27.296875 
z
M 18.109375 46.390625 
Q 20.953125 51.265625 25.265625 53.625 
Q 29.59375 56 35.59375 56 
Q 45.5625 56 51.78125 48.09375 
Q 58.015625 40.1875 58.015625 27.296875 
Q 58.015625 14.40625 51.78125 6.484375 
Q 45.5625 -1.421875 35.59375 -1.421875 
Q 29.59375 -1.421875 25.265625 0.953125 
Q 20.953125 3.328125 18.109375 8.203125 
L 18.109375 0 
L 9.078125 0 
L 9.078125 75.984375 
L 18.109375 75.984375 
z
" id="DejaVuSans-98"/>
      <path d="M 37.109375 75.984375 
L 37.109375 68.5 
L 28.515625 68.5 
Q 23.6875 68.5 21.796875 66.546875 
Q 19.921875 64.59375 19.921875 59.515625 
L 19.921875 54.6875 
L 34.71875 54.6875 
L 34.71875 47.703125 
L 19.921875 47.703125 
L 19.921875 0 
L 10.890625 0 
L 10.890625 47.703125 
L 2.296875 47.703125 
L 2.296875 54.6875 
L 10.890625 54.6875 
L 10.890625 58.5 
Q 10.890625 67.625 15.140625 71.796875 
Q 19.390625 75.984375 28.609375 75.984375 
z
" id="DejaVuSans-102"/>
      <path d="M 18.109375 8.203125 
L 18.109375 -20.796875 
L 9.078125 -20.796875 
L 9.078125 54.6875 
L 18.109375 54.6875 
L 18.109375 46.390625 
Q 20.953125 51.265625 25.265625 53.625 
Q 29.59375 56 35.59375 56 
Q 45.5625 56 51.78125 48.09375 
Q 58.015625 40.1875 58.015625 27.296875 
Q 58.015625 14.40625 51.78125 6.484375 
Q 45.5625 -1.421875 35.59375 -1.421875 
Q 29.59375 -1.421875 25.265625 0.953125 
Q 20.953125 3.328125 18.109375 8.203125 
z
M 48.6875 27.296875 
Q 48.6875 37.203125 44.609375 42.84375 
Q 40.53125 48.484375 33.40625 48.484375 
Q 26.265625 48.484375 22.1875 42.84375 
Q 18.109375 37.203125 18.109375 27.296875 
Q 18.109375 17.390625 22.1875 11.75 
Q 26.265625 6.109375 33.40625 6.109375 
Q 40.53125 6.109375 44.609375 11.75 
Q 48.6875 17.390625 48.6875 27.296875 
z
" id="DejaVuSans-112"/>
      <path d="M 54.890625 33.015625 
L 54.890625 0 
L 45.90625 0 
L 45.90625 32.71875 
Q 45.90625 40.484375 42.875 44.328125 
Q 39.84375 48.1875 33.796875 48.1875 
Q 26.515625 48.1875 22.3125 43.546875 
Q 18.109375 38.921875 18.109375 30.90625 
L 18.109375 0 
L 9.078125 0 
L 9.078125 75.984375 
L 18.109375 75.984375 
L 18.109375 46.1875 
Q 21.34375 51.125 25.703125 53.5625 
Q 30.078125 56 35.796875 56 
Q 45.21875 56 50.046875 50.171875 
Q 54.890625 44.34375 54.890625 33.015625 
z
" id="DejaVuSans-104"/>
      <path d="M 54.890625 54.6875 
L 35.109375 28.078125 
L 55.90625 0 
L 45.3125 0 
L 29.390625 21.484375 
L 13.484375 0 
L 2.875 0 
L 24.125 28.609375 
L 4.6875 54.6875 
L 15.28125 54.6875 
L 29.78125 35.203125 
L 44.28125 54.6875 
z
" id="DejaVuSans-120"/>
     </defs>
     <g transform="translate(496.954176 346.476562)scale(0.1 -0.1)">
      <use xlink:href="#DejaVuSans-84"/>
      <use x="60.818359" xlink:href="#DejaVuSans-111"/>
      <use x="122" xlink:href="#DejaVuSans-116"/>
      <use x="161.208984" xlink:href="#DejaVuSans-97"/>
      <use x="222.488281" xlink:href="#DejaVuSans-108"/>
      <use x="250.271484" xlink:href="#DejaVuSans-32"/>
      <use x="282.058594" xlink:href="#DejaVuSans-110"/>
      <use x="345.4375" xlink:href="#DejaVuSans-117"/>
      <use x="408.816406" xlink:href="#DejaVuSans-109"/>
      <use x="506.228516" xlink:href="#DejaVuSans-98"/>
      <use x="569.705078" xlink:href="#DejaVuSans-101"/>
      <use x="631.228516" xlink:href="#DejaVuSans-114"/>
      <use x="672.341797" xlink:href="#DejaVuSans-32"/>
      <use x="704.128906" xlink:href="#DejaVuSans-111"/>
      <use x="765.310547" xlink:href="#DejaVuSans-102"/>
      <use x="800.515625" xlink:href="#DejaVuSans-32"/>
      <use x="832.302734" xlink:href="#DejaVuSans-77"/>
      <use x="918.582031" xlink:href="#DejaVuSans-87"/>
      <use x="1017.458984" xlink:href="#DejaVuSans-32"/>
      <use x="1049.246094" xlink:href="#DejaVuSans-101"/>
      <use x="1110.769531" xlink:href="#DejaVuSans-112"/>
      <use x="1174.246094" xlink:href="#DejaVuSans-105"/>
      <use x="1202.029297" xlink:href="#DejaVuSans-115"/>
      <use x="1254.128906" xlink:href="#DejaVuSans-111"/>
      <use x="1315.310547" xlink:href="#DejaVuSans-100"/>
      <use x="1378.787109" xlink:href="#DejaVuSans-101"/>
      <use x="1440.310547" xlink:href="#DejaVuSans-115"/>
      <use x="1492.410156" xlink:href="#DejaVuSans-32"/>
      <use x="1524.197266" xlink:href="#DejaVuSans-100"/>
      <use x="1587.673828" xlink:href="#DejaVuSans-117"/>
      <use x="1651.052734" xlink:href="#DejaVuSans-114"/>
      <use x="1692.166016" xlink:href="#DejaVuSans-105"/>
      <use x="1719.949219" xlink:href="#DejaVuSans-110"/>
      <use x="1783.328125" xlink:href="#DejaVuSans-103"/>
      <use x="1846.804688" xlink:href="#DejaVuSans-32"/>
      <use x="1878.591797" xlink:href="#DejaVuSans-116"/>
      <use x="1917.800781" xlink:href="#DejaVuSans-104"/>
      <use x="1981.179688" xlink:href="#DejaVuSans-101"/>
      <use x="2042.703125" xlink:href="#DejaVuSans-32"/>
      <use x="2074.490234" xlink:href="#DejaVuSans-101"/>
      <use x="2135.998047" xlink:href="#DejaVuSans-120"/>
      <use x="2195.177734" xlink:href="#DejaVuSans-112"/>
      <use x="2258.654297" xlink:href="#DejaVuSans-101"/>
      <use x="2320.177734" xlink:href="#DejaVuSans-114"/>
      <use x="2361.291016" xlink:href="#DejaVuSans-105"/>
      <use x="2389.074219" xlink:href="#DejaVuSans-109"/>
      <use x="2486.486328" xlink:href="#DejaVuSans-101"/>
      <use x="2548.009766" xlink:href="#DejaVuSans-110"/>
      <use x="2611.388672" xlink:href="#DejaVuSans-116"/>
     </g>
    </g>
   </g>
   <g id="matplotlib.axis_4">
    <g id="ytick_10">
     <g id="line2d_23">
      <g>
       <use style="stroke:#000000;stroke-width:0.8;" x="415.330227" xlink:href="#m8fb56aa85d" y="304.954545"/>
      </g>
     </g>
     <g id="text_19">
      <!-- −1.00 -->
      <g transform="translate(377.684915 308.753764)scale(0.1 -0.1)">
       <use xlink:href="#DejaVuSans-8722"/>
       <use x="83.789062" xlink:href="#DejaVuSans-49"/>
       <use x="147.412109" xlink:href="#DejaVuSans-46"/>
       <use x="179.199219" xlink:href="#DejaVuSans-48"/>
       <use x="242.822266" xlink:href="#DejaVuSans-48"/>
      </g>
     </g>
    </g>
    <g id="ytick_11">
     <g id="line2d_24">
      <g>
       <use style="stroke:#000000;stroke-width:0.8;" x="415.330227" xlink:href="#m8fb56aa85d" y="271.840909"/>
      </g>
     </g>
     <g id="text_20">
      <!-- −0.75 -->
      <g transform="translate(377.684915 275.640128)scale(0.1 -0.1)">
       <use xlink:href="#DejaVuSans-8722"/>
       <use x="83.789062" xlink:href="#DejaVuSans-48"/>
       <use x="147.412109" xlink:href="#DejaVuSans-46"/>
       <use x="179.199219" xlink:href="#DejaVuSans-55"/>
       <use x="242.822266" xlink:href="#DejaVuSans-53"/>
      </g>
     </g>
    </g>
    <g id="ytick_12">
     <g id="line2d_25">
      <g>
       <use style="stroke:#000000;stroke-width:0.8;" x="415.330227" xlink:href="#m8fb56aa85d" y="238.727273"/>
      </g>
     </g>
     <g id="text_21">
      <!-- −0.50 -->
      <g transform="translate(377.684915 242.526491)scale(0.1 -0.1)">
       <use xlink:href="#DejaVuSans-8722"/>
       <use x="83.789062" xlink:href="#DejaVuSans-48"/>
       <use x="147.412109" xlink:href="#DejaVuSans-46"/>
       <use x="179.199219" xlink:href="#DejaVuSans-53"/>
       <use x="242.822266" xlink:href="#DejaVuSans-48"/>
      </g>
     </g>
    </g>
    <g id="ytick_13">
     <g id="line2d_26">
      <g>
       <use style="stroke:#000000;stroke-width:0.8;" x="415.330227" xlink:href="#m8fb56aa85d" y="205.613636"/>
      </g>
     </g>
     <g id="text_22">
      <!-- −0.25 -->
      <g transform="translate(377.684915 209.412855)scale(0.1 -0.1)">
       <use xlink:href="#DejaVuSans-8722"/>
       <use x="83.789062" xlink:href="#DejaVuSans-48"/>
       <use x="147.412109" xlink:href="#DejaVuSans-46"/>
       <use x="179.199219" xlink:href="#DejaVuSans-50"/>
       <use x="242.822266" xlink:href="#DejaVuSans-53"/>
      </g>
     </g>
    </g>
    <g id="ytick_14">
     <g id="line2d_27">
      <g>
       <use style="stroke:#000000;stroke-width:0.8;" x="415.330227" xlink:href="#m8fb56aa85d" y="172.5"/>
      </g>
     </g>
     <g id="text_23">
      <!-- 0.00 -->
      <g transform="translate(386.064602 176.299219)scale(0.1 -0.1)">
       <use xlink:href="#DejaVuSans-48"/>
       <use x="63.623047" xlink:href="#DejaVuSans-46"/>
       <use x="95.410156" xlink:href="#DejaVuSans-48"/>
       <use x="159.033203" xlink:href="#DejaVuSans-48"/>
      </g>
     </g>
    </g>
    <g id="ytick_15">
     <g id="line2d_28">
      <g>
       <use style="stroke:#000000;stroke-width:0.8;" x="415.330227" xlink:href="#m8fb56aa85d" y="139.386364"/>
      </g>
     </g>
     <g id="text_24">
      <!-- 0.25 -->
      <g transform="translate(386.064602 143.185582)scale(0.1 -0.1)">
       <use xlink:href="#DejaVuSans-48"/>
       <use x="63.623047" xlink:href="#DejaVuSans-46"/>
       <use x="95.410156" xlink:href="#DejaVuSans-50"/>
       <use x="159.033203" xlink:href="#DejaVuSans-53"/>
      </g>
     </g>
    </g>
    <g id="ytick_16">
     <g id="line2d_29">
      <g>
       <use style="stroke:#000000;stroke-width:0.8;" x="415.330227" xlink:href="#m8fb56aa85d" y="106.272727"/>
      </g>
     </g>
     <g id="text_25">
      <!-- 0.50 -->
      <g transform="translate(386.064602 110.071946)scale(0.1 -0.1)">
       <use xlink:href="#DejaVuSans-48"/>
       <use x="63.623047" xlink:href="#DejaVuSans-46"/>
       <use x="95.410156" xlink:href="#DejaVuSans-53"/>
       <use x="159.033203" xlink:href="#DejaVuSans-48"/>
      </g>
     </g>
    </g>
    <g id="ytick_17">
     <g id="line2d_30">
      <g>
       <use style="stroke:#000000;stroke-width:0.8;" x="415.330227" xlink:href="#m8fb56aa85d" y="73.159091"/>
      </g>
     </g>
     <g id="text_26">
      <!-- 0.75 -->
      <g transform="translate(386.064602 76.95831)scale(0.1 -0.1)">
       <use xlink:href="#DejaVuSans-48"/>
       <use x="63.623047" xlink:href="#DejaVuSans-46"/>
       <use x="95.410156" xlink:href="#DejaVuSans-55"/>
       <use x="159.033203" xlink:href="#DejaVuSans-53"/>
      </g>
     </g>
    </g>
    <g id="ytick_18">
     <g id="line2d_31">
      <g>
       <use style="stroke:#000000;stroke-width:0.8;" x="415.330227" xlink:href="#m8fb56aa85d" y="40.045455"/>
      </g>
     </g>
     <g id="text_27">
      <!-- 1.00 -->
      <g transform="translate(386.064602 43.844673)scale(0.1 -0.1)">
       <use xlink:href="#DejaVuSans-49"/>
       <use x="63.623047" xlink:href="#DejaVuSans-46"/>
       <use x="95.410156" xlink:href="#DejaVuSans-48"/>
       <use x="159.033203" xlink:href="#DejaVuSans-48"/>
      </g>
     </g>
    </g>
    <g id="text_28">
     <!-- AttitudeMW -->
     <g transform="translate(371.605227 201.866406)rotate(-90)scale(0.1 -0.1)">
      <use xlink:href="#DejaVuSans-65"/>
      <use x="68.392578" xlink:href="#DejaVuSans-116"/>
      <use x="107.601562" xlink:href="#DejaVuSans-116"/>
      <use x="146.810547" xlink:href="#DejaVuSans-105"/>
      <use x="174.59375" xlink:href="#DejaVuSans-116"/>
      <use x="213.802734" xlink:href="#DejaVuSans-117"/>
      <use x="277.181641" xlink:href="#DejaVuSans-100"/>
      <use x="340.658203" xlink:href="#DejaVuSans-101"/>
      <use x="402.181641" xlink:href="#DejaVuSans-77"/>
      <use x="488.460938" xlink:href="#DejaVuSans-87"/>
     </g>
    </g>
   </g>
   <g id="line2d_32">
    <path clip-path="url(#p0853a3303e)" d="M 415.330227 102.040002 
L 419.656563 103.028249 
L 423.982899 104.016497 
L 428.309236 105.004744 
L 432.635572 105.992991 
L 436.961908 106.981239 
L 441.288244 107.969486 
L 445.61458 108.957734 
L 449.940916 109.945981 
L 454.267252 110.934228 
L 458.593588 111.922476 
L 462.919924 112.910723 
L 467.24626 113.898971 
L 471.572596 114.887218 
L 475.898933 115.875465 
L 480.225269 116.863713 
L 484.551605 117.85196 
L 488.877941 118.840208 
L 493.204277 119.828455 
L 497.530613 120.816702 
L 501.856949 121.80495 
L 506.183285 122.793197 
L 510.509621 123.781445 
L 514.835957 124.769692 
L 519.162293 125.757939 
L 523.488629 126.746187 
L 527.814966 127.734434 
L 532.141302 128.722682 
L 536.467638 129.710929 
L 540.793974 130.699176 
L 545.12031 131.687424 
L 549.446646 132.675671 
L 553.772982 133.663919 
L 558.099318 134.652166 
L 562.425654 135.640413 
L 566.75199 136.628661 
L 571.078326 137.616908 
L 575.404663 138.605156 
L 579.730999 139.593403 
L 584.057335 140.58165 
L 588.383671 141.569898 
L 592.710007 142.558145 
L 597.036343 143.546393 
L 601.362679 144.53464 
L 605.689015 145.522887 
L 610.015351 146.511135 
L 614.341687 147.499382 
L 618.668023 148.48763 
L 622.99436 149.475877 
L 627.320696 150.464124 
L 631.647032 151.452372 
L 635.973368 152.440619 
L 640.299704 153.428867 
L 644.62604 154.417114 
L 648.952376 155.405361 
L 653.278712 156.393609 
L 657.605048 157.381856 
L 661.931384 158.370103 
L 666.25772 159.358351 
L 670.584056 160.346598 
L 674.910393 161.334846 
L 679.236729 162.323093 
L 683.563065 163.31134 
L 687.889401 164.299588 
L 692.215737 165.287835 
L 696.542073 166.276083 
L 700.868409 167.26433 
L 705.194745 168.252577 
L 709.521081 169.240825 
L 713.847417 170.229072 
L 718.173753 171.21732 
L 722.50009 172.205567 
L 726.826426 173.193814 
L 731.152762 174.182062 
L 735.479098 175.170309 
L 739.805434 176.158557 
L 744.13177 177.146804 
L 748.458106 178.135051 
L 752.784442 179.123299 
L 757.110778 180.111546 
L 761.437114 181.099794 
L 765.76345 182.088041 
L 770.089787 183.076288 
L 774.416123 184.064536 
L 778.742459 185.052783 
L 783.068795 186.041031 
L 787.395131 187.029278 
L 791.721467 188.017525 
L 796.047803 189.005773 
L 800.374139 189.99402 
L 804.700475 190.982268 
L 809.026811 191.970515 
L 813.353147 192.958762 
L 817.679483 193.94701 
L 822.00582 194.935257 
L 826.332156 195.923505 
L 830.658492 196.911752 
L 834.984828 197.899999 
L 839.311164 198.888247 
L 843.6375 199.876494 
" style="fill:none;stroke:#ff4500;stroke-linecap:square;stroke-width:2.25;"/>
   </g>
   <g id="patch_9">
    <path d="M 415.330227 318.2 
L 415.330227 26.8 
" style="fill:none;stroke:#000000;stroke-linecap:square;stroke-linejoin:miter;stroke-width:0.8;"/>
   </g>
   <g id="patch_10">
    <path d="M 843.6375 318.2 
L 843.6375 26.8 
" style="fill:none;stroke:#000000;stroke-linecap:square;stroke-linejoin:miter;stroke-width:0.8;"/>
   </g>
   <g id="patch_11">
    <path d="M 415.330227 318.2 
L 843.6375 318.2 
" style="fill:none;stroke:#000000;stroke-linecap:square;stroke-linejoin:miter;stroke-width:0.8;"/>
   </g>
   <g id="patch_12">
    <path d="M 415.330227 26.8 
L 843.6375 26.8 
" style="fill:none;stroke:#000000;stroke-linecap:square;stroke-linejoin:miter;stroke-width:0.8;"/>
   </g>
   <g id="text_29">
    <!-- Regression -->
    <defs>
     <path d="M 44.390625 34.1875 
Q 47.5625 33.109375 50.5625 29.59375 
Q 53.5625 26.078125 56.59375 19.921875 
L 66.609375 0 
L 56 0 
L 46.6875 18.703125 
Q 43.0625 26.03125 39.671875 28.421875 
Q 36.28125 30.8125 30.421875 30.8125 
L 19.671875 30.8125 
L 19.671875 0 
L 9.8125 0 
L 9.8125 72.90625 
L 32.078125 72.90625 
Q 44.578125 72.90625 50.734375 67.671875 
Q 56.890625 62.453125 56.890625 51.90625 
Q 56.890625 45.015625 53.6875 40.46875 
Q 50.484375 35.9375 44.390625 34.1875 
z
M 19.671875 64.796875 
L 19.671875 38.921875 
L 32.078125 38.921875 
Q 39.203125 38.921875 42.84375 42.21875 
Q 46.484375 45.515625 46.484375 51.90625 
Q 46.484375 58.296875 42.84375 61.546875 
Q 39.203125 64.796875 32.078125 64.796875 
z
" id="DejaVuSans-82"/>
    </defs>
    <g transform="translate(596.269176 20.8)scale(0.12 -0.12)">
     <use xlink:href="#DejaVuSans-82"/>
     <use x="69.419922" xlink:href="#DejaVuSans-101"/>
     <use x="130.943359" xlink:href="#DejaVuSans-103"/>
     <use x="194.419922" xlink:href="#DejaVuSans-114"/>
     <use x="235.501953" xlink:href="#DejaVuSans-101"/>
     <use x="297.025391" xlink:href="#DejaVuSans-115"/>
     <use x="349.125" xlink:href="#DejaVuSans-115"/>
     <use x="401.224609" xlink:href="#DejaVuSans-105"/>
     <use x="429.007812" xlink:href="#DejaVuSans-111"/>
     <use x="490.189453" xlink:href="#DejaVuSans-110"/>
    </g>
   </g>
  </g>
 </g>
 <defs>
  <clipPath id="p3dae5d426d">
   <rect height="291.4" width="285.538182" x="62.55" y="26.8"/>
  </clipPath>
  <clipPath id="p0853a3303e">
   <rect height="291.4" width="428.307273" x="415.330227" y="26.8"/>
  </clipPath>
 </defs>
</svg>
