<?xml version="1.0" encoding="utf-8" standalone="no"?>
<!DOCTYPE svg PUBLIC "-//W3C//DTD SVG 1.1//EN"
  "http://www.w3.org/Graphics/SVG/1.1/DTD/svg11.dtd">
<!-- Created with matplotlib (https://matplotlib.org/) -->
<svg height="432pt" version="1.1" viewBox="0 0 576 432" width="576pt" xmlns="http://www.w3.org/2000/svg" xmlns:xlink="http://www.w3.org/1999/xlink">
 <defs>
  <style type="text/css">
*{stroke-linecap:butt;stroke-linejoin:round;}
  </style>
 </defs>
 <g id="figure_1">
  <g id="patch_1">
   <path d="M 0 432 
L 576 432 
L 576 0 
L 0 0 
z
" style="fill:#ffffff;"/>
  </g>
  <g id="axes_1">
   <g id="patch_2">
    <path d="M 72 378 
L 518.4 378 
L 518.4 51.84 
L 72 51.84 
z
" style="fill:#ffffff;"/>
   </g>
   <g id="PathCollection_1">
    <defs>
     <path d="M 0 3 
C 0.795609 3 1.55874 2.683901 2.12132 2.12132 
C 2.683901 1.55874 3 0.795609 3 0 
C 3 -0.795609 2.683901 -1.55874 2.12132 -2.12132 
C 1.55874 -2.683901 0.795609 -3 0 -3 
C -0.795609 -3 -1.55874 -2.683901 -2.12132 -2.12132 
C -2.683901 -1.55874 -3 -0.795609 -3 0 
C -3 0.795609 -2.683901 1.55874 -2.12132 2.12132 
C -1.55874 2.683901 -0.795609 3 0 3 
z
" id="m2c0c58ac93" style="stroke:#800000;stroke-opacity:0.8;"/>
    </defs>
    <g clip-path="url(#pf9f2e1d52d)">
     <use style="fill:#800000;fill-opacity:0.8;stroke:#800000;stroke-opacity:0.8;" x="138.96" xlink:href="#m2c0c58ac93" y="214.92"/>
     <use style="fill:#800000;fill-opacity:0.8;stroke:#800000;stroke-opacity:0.8;" x="357.696" xlink:href="#m2c0c58ac93" y="287.4"/>
     <use style="fill:#800000;fill-opacity:0.8;stroke:#800000;stroke-opacity:0.8;" x="196.992" xlink:href="#m2c0c58ac93" y="323.64"/>
     <use style="fill:#800000;fill-opacity:0.8;stroke:#800000;stroke-opacity:0.8;" x="170.208" xlink:href="#m2c0c58ac93" y="214.92"/>
     <use style="fill:#800000;fill-opacity:0.8;stroke:#800000;stroke-opacity:0.8;" x="188.064" xlink:href="#m2c0c58ac93" y="214.92"/>
     <use style="fill:#800000;fill-opacity:0.8;stroke:#800000;stroke-opacity:0.8;" x="94.32" xlink:href="#m2c0c58ac93" y="251.16"/>
     <use style="fill:#800000;fill-opacity:0.8;stroke:#800000;stroke-opacity:0.8;" x="482.688" xlink:href="#m2c0c58ac93" y="142.44"/>
     <use style="fill:#800000;fill-opacity:0.8;stroke:#800000;stroke-opacity:0.8;" x="179.136" xlink:href="#m2c0c58ac93" y="106.2"/>
     <use style="fill:#800000;fill-opacity:0.8;stroke:#800000;stroke-opacity:0.8;" x="281.808" xlink:href="#m2c0c58ac93" y="287.4"/>
     <use style="fill:#800000;fill-opacity:0.8;stroke:#800000;stroke-opacity:0.8;" x="98.784" xlink:href="#m2c0c58ac93" y="287.4"/>
     <use style="fill:#800000;fill-opacity:0.8;stroke:#800000;stroke-opacity:0.8;" x="94.32" xlink:href="#m2c0c58ac93" y="287.4"/>
     <use style="fill:#800000;fill-opacity:0.8;stroke:#800000;stroke-opacity:0.8;" x="255.024" xlink:href="#m2c0c58ac93" y="214.92"/>
     <use style="fill:#800000;fill-opacity:0.8;stroke:#800000;stroke-opacity:0.8;" x="89.856" xlink:href="#m2c0c58ac93" y="287.4"/>
     <use style="fill:#800000;fill-opacity:0.8;stroke:#800000;stroke-opacity:0.8;" x="98.784" xlink:href="#m2c0c58ac93" y="251.16"/>
     <use style="fill:#800000;fill-opacity:0.8;stroke:#800000;stroke-opacity:0.8;" x="147.888" xlink:href="#m2c0c58ac93" y="251.16"/>
    </g>
   </g>
   <g id="PolyCollection_1">
    <path clip-path="url(#pf9f2e1d52d)" d="M 72 220.212604 
L 72 290.78203 
L 76.509091 289.643149 
L 81.018182 288.338757 
L 85.527273 287.409433 
L 90.036364 285.887723 
L 94.545455 284.823575 
L 99.054545 283.759557 
L 103.563636 282.697191 
L 108.072727 281.471739 
L 112.581818 280.383275 
L 117.090909 279.274254 
L 121.6 278.173389 
L 126.109091 277.080195 
L 130.618182 276.179733 
L 135.127273 275.261436 
L 139.636364 274.270331 
L 144.145455 273.615269 
L 148.654545 272.403624 
L 153.163636 271.751261 
L 157.672727 271.276922 
L 162.181818 270.86129 
L 166.690909 270.792203 
L 171.2 270.8487 
L 175.709091 270.682147 
L 180.218182 270.531232 
L 184.727273 270.572115 
L 189.236364 270.490316 
L 193.745455 270.269484 
L 198.254545 270.2217 
L 202.763636 270.45503 
L 207.272727 270.505912 
L 211.781818 270.459401 
L 216.290909 270.299366 
L 220.8 270.230322 
L 225.309091 270.516842 
L 229.818182 270.582013 
L 234.327273 270.971996 
L 238.836364 271.256761 
L 243.345455 271.595373 
L 247.854545 271.933985 
L 252.363636 272.272598 
L 256.872727 272.755048 
L 261.381818 273.066232 
L 265.890909 273.591948 
L 270.4 274.120202 
L 274.909091 274.549492 
L 279.418182 274.945751 
L 283.927273 275.344188 
L 288.436364 275.778229 
L 292.945455 276.033044 
L 297.454545 276.180563 
L 301.963636 276.594968 
L 306.472727 277.044476 
L 310.981818 277.539796 
L 315.490909 278.126656 
L 320 278.527951 
L 324.509091 278.989534 
L 329.018182 279.580062 
L 333.527273 280.206165 
L 338.036364 280.994051 
L 342.545455 281.682272 
L 347.054545 282.295321 
L 351.563636 282.597029 
L 356.072727 283.083916 
L 360.581818 283.599005 
L 365.090909 284.290913 
L 369.6 284.884909 
L 374.109091 285.478906 
L 378.618182 286.072903 
L 383.127273 286.660735 
L 387.636364 287.247993 
L 392.145455 288.210037 
L 396.654545 288.936461 
L 401.163636 289.471925 
L 405.672727 290.279906 
L 410.181818 290.536933 
L 414.690909 291.306112 
L 419.2 292.087224 
L 423.709091 292.660592 
L 428.218182 293.440209 
L 432.727273 294.457436 
L 437.236364 295.257393 
L 441.745455 296.044934 
L 446.254545 296.832475 
L 450.763636 297.492018 
L 455.272727 298.116071 
L 459.781818 298.88998 
L 464.290909 299.277776 
L 468.8 299.656138 
L 473.309091 300.257748 
L 477.818182 300.983835 
L 482.327273 301.718663 
L 486.836364 302.45021 
L 491.345455 303.176448 
L 495.854545 303.902686 
L 500.363636 304.628924 
L 504.872727 305.355162 
L 509.381818 306.0814 
L 513.890909 306.807638 
L 518.4 307.533876 
L 518.4 95.24306 
L 518.4 95.24306 
L 513.890909 96.930718 
L 509.381818 98.618376 
L 504.872727 100.306033 
L 500.363636 101.993691 
L 495.854545 103.681348 
L 491.345455 105.369006 
L 486.836364 107.056663 
L 482.327273 108.744321 
L 477.818182 110.431978 
L 473.309091 112.119636 
L 468.8 113.807294 
L 464.290909 115.494951 
L 459.781818 117.182609 
L 455.272727 118.870266 
L 450.763636 120.557924 
L 446.254545 122.245581 
L 441.745455 123.933239 
L 437.236364 125.5812 
L 432.727273 127.19488 
L 428.218182 128.678653 
L 423.709091 130.01955 
L 419.2 131.360446 
L 414.690909 132.701342 
L 410.181818 134.042239 
L 405.672727 135.383135 
L 401.163636 136.724031 
L 396.654545 138.064927 
L 392.145455 139.405824 
L 387.636364 140.74672 
L 383.127273 142.089783 
L 378.618182 143.432935 
L 374.109091 144.776088 
L 369.6 146.119241 
L 365.090909 147.462394 
L 360.581818 148.963119 
L 356.072727 150.742335 
L 351.563636 152.736657 
L 347.054545 154.869924 
L 342.545455 157.00319 
L 338.036364 159.136456 
L 333.527273 161.269722 
L 329.018182 163.402988 
L 324.509091 165.481338 
L 320 167.051589 
L 315.490909 168.622841 
L 310.981818 170.194094 
L 306.472727 171.765346 
L 301.963636 173.336598 
L 297.454545 175.175433 
L 292.945455 177.175932 
L 288.436364 178.845838 
L 283.927273 180.280539 
L 279.418182 181.763266 
L 274.909091 183.25429 
L 270.4 185.07861 
L 265.890909 186.929817 
L 261.381818 188.584329 
L 256.872727 190.01807 
L 252.363636 191.648547 
L 247.854545 193.193608 
L 243.345455 194.310796 
L 238.836364 196.08508 
L 234.327273 197.526756 
L 229.818182 199.165248 
L 225.309091 200.919075 
L 220.8 202.672902 
L 216.290909 203.719659 
L 211.781818 204.989967 
L 207.272727 206.826787 
L 202.763636 207.6605 
L 198.254545 209.196744 
L 193.745455 210.656554 
L 189.236364 212.33583 
L 184.727273 213.881419 
L 180.218182 214.545005 
L 175.709091 215.926587 
L 171.2 217.399459 
L 166.690909 218.288483 
L 162.181818 218.655817 
L 157.672727 219.663989 
L 153.163636 220.250783 
L 148.654545 221.415882 
L 144.145455 221.849703 
L 139.636364 222.198883 
L 135.127273 222.304082 
L 130.618182 222.42322 
L 126.109091 222.309159 
L 121.6 221.923601 
L 117.090909 222.259585 
L 112.581818 222.556963 
L 108.072727 222.548988 
L 103.563636 221.826058 
L 99.054545 220.799291 
L 94.545455 221.034284 
L 90.036364 220.149408 
L 85.527273 219.648265 
L 81.018182 219.836378 
L 76.509091 220.024491 
L 72 220.212604 
z
" style="fill:#800000;fill-opacity:0.15;"/>
   </g>
   <g id="matplotlib.axis_1">
    <g id="xtick_1">
     <g id="line2d_1">
      <defs>
       <path d="M 0 0 
L 0 3.5 
" id="m6e395d0cc3" style="stroke:#000000;stroke-width:0.8;"/>
      </defs>
      <g>
       <use style="stroke:#000000;stroke-width:0.8;" x="72" xlink:href="#m6e395d0cc3" y="378"/>
      </g>
     </g>
     <g id="text_1">
      <!-- 0 -->
      <defs>
       <path d="M 31.78125 66.40625 
Q 24.171875 66.40625 20.328125 58.90625 
Q 16.5 51.421875 16.5 36.375 
Q 16.5 21.390625 20.328125 13.890625 
Q 24.171875 6.390625 31.78125 6.390625 
Q 39.453125 6.390625 43.28125 13.890625 
Q 47.125 21.390625 47.125 36.375 
Q 47.125 51.421875 43.28125 58.90625 
Q 39.453125 66.40625 31.78125 66.40625 
z
M 31.78125 74.21875 
Q 44.046875 74.21875 50.515625 64.515625 
Q 56.984375 54.828125 56.984375 36.375 
Q 56.984375 17.96875 50.515625 8.265625 
Q 44.046875 -1.421875 31.78125 -1.421875 
Q 19.53125 -1.421875 13.0625 8.265625 
Q 6.59375 17.96875 6.59375 36.375 
Q 6.59375 54.828125 13.0625 64.515625 
Q 19.53125 74.21875 31.78125 74.21875 
z
" id="DejaVuSans-48"/>
      </defs>
      <g transform="translate(68.81875 392.598437)scale(0.1 -0.1)">
       <use xlink:href="#DejaVuSans-48"/>
      </g>
     </g>
    </g>
    <g id="xtick_2">
     <g id="line2d_2">
      <g>
       <use style="stroke:#000000;stroke-width:0.8;" x="161.28" xlink:href="#m6e395d0cc3" y="378"/>
      </g>
     </g>
     <g id="text_2">
      <!-- 20 -->
      <defs>
       <path d="M 19.1875 8.296875 
L 53.609375 8.296875 
L 53.609375 0 
L 7.328125 0 
L 7.328125 8.296875 
Q 12.9375 14.109375 22.625 23.890625 
Q 32.328125 33.6875 34.8125 36.53125 
Q 39.546875 41.84375 41.421875 45.53125 
Q 43.3125 49.21875 43.3125 52.78125 
Q 43.3125 58.59375 39.234375 62.25 
Q 35.15625 65.921875 28.609375 65.921875 
Q 23.96875 65.921875 18.8125 64.3125 
Q 13.671875 62.703125 7.8125 59.421875 
L 7.8125 69.390625 
Q 13.765625 71.78125 18.9375 73 
Q 24.125 74.21875 28.421875 74.21875 
Q 39.75 74.21875 46.484375 68.546875 
Q 53.21875 62.890625 53.21875 53.421875 
Q 53.21875 48.921875 51.53125 44.890625 
Q 49.859375 40.875 45.40625 35.40625 
Q 44.1875 33.984375 37.640625 27.21875 
Q 31.109375 20.453125 19.1875 8.296875 
z
" id="DejaVuSans-50"/>
      </defs>
      <g transform="translate(154.9175 392.598437)scale(0.1 -0.1)">
       <use xlink:href="#DejaVuSans-50"/>
       <use x="63.623047" xlink:href="#DejaVuSans-48"/>
      </g>
     </g>
    </g>
    <g id="xtick_3">
     <g id="line2d_3">
      <g>
       <use style="stroke:#000000;stroke-width:0.8;" x="250.56" xlink:href="#m6e395d0cc3" y="378"/>
      </g>
     </g>
     <g id="text_3">
      <!-- 40 -->
      <defs>
       <path d="M 37.796875 64.3125 
L 12.890625 25.390625 
L 37.796875 25.390625 
z
M 35.203125 72.90625 
L 47.609375 72.90625 
L 47.609375 25.390625 
L 58.015625 25.390625 
L 58.015625 17.1875 
L 47.609375 17.1875 
L 47.609375 0 
L 37.796875 0 
L 37.796875 17.1875 
L 4.890625 17.1875 
L 4.890625 26.703125 
z
" id="DejaVuSans-52"/>
      </defs>
      <g transform="translate(244.1975 392.598437)scale(0.1 -0.1)">
       <use xlink:href="#DejaVuSans-52"/>
       <use x="63.623047" xlink:href="#DejaVuSans-48"/>
      </g>
     </g>
    </g>
    <g id="xtick_4">
     <g id="line2d_4">
      <g>
       <use style="stroke:#000000;stroke-width:0.8;" x="339.84" xlink:href="#m6e395d0cc3" y="378"/>
      </g>
     </g>
     <g id="text_4">
      <!-- 60 -->
      <defs>
       <path d="M 33.015625 40.375 
Q 26.375 40.375 22.484375 35.828125 
Q 18.609375 31.296875 18.609375 23.390625 
Q 18.609375 15.53125 22.484375 10.953125 
Q 26.375 6.390625 33.015625 6.390625 
Q 39.65625 6.390625 43.53125 10.953125 
Q 47.40625 15.53125 47.40625 23.390625 
Q 47.40625 31.296875 43.53125 35.828125 
Q 39.65625 40.375 33.015625 40.375 
z
M 52.59375 71.296875 
L 52.59375 62.3125 
Q 48.875 64.0625 45.09375 64.984375 
Q 41.3125 65.921875 37.59375 65.921875 
Q 27.828125 65.921875 22.671875 59.328125 
Q 17.53125 52.734375 16.796875 39.40625 
Q 19.671875 43.65625 24.015625 45.921875 
Q 28.375 48.1875 33.59375 48.1875 
Q 44.578125 48.1875 50.953125 41.515625 
Q 57.328125 34.859375 57.328125 23.390625 
Q 57.328125 12.15625 50.6875 5.359375 
Q 44.046875 -1.421875 33.015625 -1.421875 
Q 20.359375 -1.421875 13.671875 8.265625 
Q 6.984375 17.96875 6.984375 36.375 
Q 6.984375 53.65625 15.1875 63.9375 
Q 23.390625 74.21875 37.203125 74.21875 
Q 40.921875 74.21875 44.703125 73.484375 
Q 48.484375 72.75 52.59375 71.296875 
z
" id="DejaVuSans-54"/>
      </defs>
      <g transform="translate(333.4775 392.598437)scale(0.1 -0.1)">
       <use xlink:href="#DejaVuSans-54"/>
       <use x="63.623047" xlink:href="#DejaVuSans-48"/>
      </g>
     </g>
    </g>
    <g id="xtick_5">
     <g id="line2d_5">
      <g>
       <use style="stroke:#000000;stroke-width:0.8;" x="429.12" xlink:href="#m6e395d0cc3" y="378"/>
      </g>
     </g>
     <g id="text_5">
      <!-- 80 -->
      <defs>
       <path d="M 31.78125 34.625 
Q 24.75 34.625 20.71875 30.859375 
Q 16.703125 27.09375 16.703125 20.515625 
Q 16.703125 13.921875 20.71875 10.15625 
Q 24.75 6.390625 31.78125 6.390625 
Q 38.8125 6.390625 42.859375 10.171875 
Q 46.921875 13.96875 46.921875 20.515625 
Q 46.921875 27.09375 42.890625 30.859375 
Q 38.875 34.625 31.78125 34.625 
z
M 21.921875 38.8125 
Q 15.578125 40.375 12.03125 44.71875 
Q 8.5 49.078125 8.5 55.328125 
Q 8.5 64.0625 14.71875 69.140625 
Q 20.953125 74.21875 31.78125 74.21875 
Q 42.671875 74.21875 48.875 69.140625 
Q 55.078125 64.0625 55.078125 55.328125 
Q 55.078125 49.078125 51.53125 44.71875 
Q 48 40.375 41.703125 38.8125 
Q 48.828125 37.15625 52.796875 32.3125 
Q 56.78125 27.484375 56.78125 20.515625 
Q 56.78125 9.90625 50.3125 4.234375 
Q 43.84375 -1.421875 31.78125 -1.421875 
Q 19.734375 -1.421875 13.25 4.234375 
Q 6.78125 9.90625 6.78125 20.515625 
Q 6.78125 27.484375 10.78125 32.3125 
Q 14.796875 37.15625 21.921875 38.8125 
z
M 18.3125 54.390625 
Q 18.3125 48.734375 21.84375 45.5625 
Q 25.390625 42.390625 31.78125 42.390625 
Q 38.140625 42.390625 41.71875 45.5625 
Q 45.3125 48.734375 45.3125 54.390625 
Q 45.3125 60.0625 41.71875 63.234375 
Q 38.140625 66.40625 31.78125 66.40625 
Q 25.390625 66.40625 21.84375 63.234375 
Q 18.3125 60.0625 18.3125 54.390625 
z
" id="DejaVuSans-56"/>
      </defs>
      <g transform="translate(422.7575 392.598437)scale(0.1 -0.1)">
       <use xlink:href="#DejaVuSans-56"/>
       <use x="63.623047" xlink:href="#DejaVuSans-48"/>
      </g>
     </g>
    </g>
    <g id="xtick_6">
     <g id="line2d_6">
      <g>
       <use style="stroke:#000000;stroke-width:0.8;" x="518.4" xlink:href="#m6e395d0cc3" y="378"/>
      </g>
     </g>
     <g id="text_6">
      <!-- 100 -->
      <defs>
       <path d="M 12.40625 8.296875 
L 28.515625 8.296875 
L 28.515625 63.921875 
L 10.984375 60.40625 
L 10.984375 69.390625 
L 28.421875 72.90625 
L 38.28125 72.90625 
L 38.28125 8.296875 
L 54.390625 8.296875 
L 54.390625 0 
L 12.40625 0 
z
" id="DejaVuSans-49"/>
      </defs>
      <g transform="translate(508.85625 392.598437)scale(0.1 -0.1)">
       <use xlink:href="#DejaVuSans-49"/>
       <use x="63.623047" xlink:href="#DejaVuSans-48"/>
       <use x="127.246094" xlink:href="#DejaVuSans-48"/>
      </g>
     </g>
    </g>
    <g id="text_7">
     <!-- Total number of MW episodes during the experiment -->
     <defs>
      <path d="M -0.296875 72.90625 
L 61.375 72.90625 
L 61.375 64.59375 
L 35.5 64.59375 
L 35.5 0 
L 25.59375 0 
L 25.59375 64.59375 
L -0.296875 64.59375 
z
" id="DejaVuSans-84"/>
      <path d="M 30.609375 48.390625 
Q 23.390625 48.390625 19.1875 42.75 
Q 14.984375 37.109375 14.984375 27.296875 
Q 14.984375 17.484375 19.15625 11.84375 
Q 23.34375 6.203125 30.609375 6.203125 
Q 37.796875 6.203125 41.984375 11.859375 
Q 46.1875 17.53125 46.1875 27.296875 
Q 46.1875 37.015625 41.984375 42.703125 
Q 37.796875 48.390625 30.609375 48.390625 
z
M 30.609375 56 
Q 42.328125 56 49.015625 48.375 
Q 55.71875 40.765625 55.71875 27.296875 
Q 55.71875 13.875 49.015625 6.21875 
Q 42.328125 -1.421875 30.609375 -1.421875 
Q 18.84375 -1.421875 12.171875 6.21875 
Q 5.515625 13.875 5.515625 27.296875 
Q 5.515625 40.765625 12.171875 48.375 
Q 18.84375 56 30.609375 56 
z
" id="DejaVuSans-111"/>
      <path d="M 18.3125 70.21875 
L 18.3125 54.6875 
L 36.8125 54.6875 
L 36.8125 47.703125 
L 18.3125 47.703125 
L 18.3125 18.015625 
Q 18.3125 11.328125 20.140625 9.421875 
Q 21.96875 7.515625 27.59375 7.515625 
L 36.8125 7.515625 
L 36.8125 0 
L 27.59375 0 
Q 17.1875 0 13.234375 3.875 
Q 9.28125 7.765625 9.28125 18.015625 
L 9.28125 47.703125 
L 2.6875 47.703125 
L 2.6875 54.6875 
L 9.28125 54.6875 
L 9.28125 70.21875 
z
" id="DejaVuSans-116"/>
      <path d="M 34.28125 27.484375 
Q 23.390625 27.484375 19.1875 25 
Q 14.984375 22.515625 14.984375 16.5 
Q 14.984375 11.71875 18.140625 8.90625 
Q 21.296875 6.109375 26.703125 6.109375 
Q 34.1875 6.109375 38.703125 11.40625 
Q 43.21875 16.703125 43.21875 25.484375 
L 43.21875 27.484375 
z
M 52.203125 31.203125 
L 52.203125 0 
L 43.21875 0 
L 43.21875 8.296875 
Q 40.140625 3.328125 35.546875 0.953125 
Q 30.953125 -1.421875 24.3125 -1.421875 
Q 15.921875 -1.421875 10.953125 3.296875 
Q 6 8.015625 6 15.921875 
Q 6 25.140625 12.171875 29.828125 
Q 18.359375 34.515625 30.609375 34.515625 
L 43.21875 34.515625 
L 43.21875 35.40625 
Q 43.21875 41.609375 39.140625 45 
Q 35.0625 48.390625 27.6875 48.390625 
Q 23 48.390625 18.546875 47.265625 
Q 14.109375 46.140625 10.015625 43.890625 
L 10.015625 52.203125 
Q 14.9375 54.109375 19.578125 55.046875 
Q 24.21875 56 28.609375 56 
Q 40.484375 56 46.34375 49.84375 
Q 52.203125 43.703125 52.203125 31.203125 
z
" id="DejaVuSans-97"/>
      <path d="M 9.421875 75.984375 
L 18.40625 75.984375 
L 18.40625 0 
L 9.421875 0 
z
" id="DejaVuSans-108"/>
      <path id="DejaVuSans-32"/>
      <path d="M 54.890625 33.015625 
L 54.890625 0 
L 45.90625 0 
L 45.90625 32.71875 
Q 45.90625 40.484375 42.875 44.328125 
Q 39.84375 48.1875 33.796875 48.1875 
Q 26.515625 48.1875 22.3125 43.546875 
Q 18.109375 38.921875 18.109375 30.90625 
L 18.109375 0 
L 9.078125 0 
L 9.078125 54.6875 
L 18.109375 54.6875 
L 18.109375 46.1875 
Q 21.34375 51.125 25.703125 53.5625 
Q 30.078125 56 35.796875 56 
Q 45.21875 56 50.046875 50.171875 
Q 54.890625 44.34375 54.890625 33.015625 
z
" id="DejaVuSans-110"/>
      <path d="M 8.5 21.578125 
L 8.5 54.6875 
L 17.484375 54.6875 
L 17.484375 21.921875 
Q 17.484375 14.15625 20.5 10.265625 
Q 23.53125 6.390625 29.59375 6.390625 
Q 36.859375 6.390625 41.078125 11.03125 
Q 45.3125 15.671875 45.3125 23.6875 
L 45.3125 54.6875 
L 54.296875 54.6875 
L 54.296875 0 
L 45.3125 0 
L 45.3125 8.40625 
Q 42.046875 3.421875 37.71875 1 
Q 33.40625 -1.421875 27.6875 -1.421875 
Q 18.265625 -1.421875 13.375 4.4375 
Q 8.5 10.296875 8.5 21.578125 
z
M 31.109375 56 
z
" id="DejaVuSans-117"/>
      <path d="M 52 44.1875 
Q 55.375 50.25 60.0625 53.125 
Q 64.75 56 71.09375 56 
Q 79.640625 56 84.28125 50.015625 
Q 88.921875 44.046875 88.921875 33.015625 
L 88.921875 0 
L 79.890625 0 
L 79.890625 32.71875 
Q 79.890625 40.578125 77.09375 44.375 
Q 74.3125 48.1875 68.609375 48.1875 
Q 61.625 48.1875 57.5625 43.546875 
Q 53.515625 38.921875 53.515625 30.90625 
L 53.515625 0 
L 44.484375 0 
L 44.484375 32.71875 
Q 44.484375 40.625 41.703125 44.40625 
Q 38.921875 48.1875 33.109375 48.1875 
Q 26.21875 48.1875 22.15625 43.53125 
Q 18.109375 38.875 18.109375 30.90625 
L 18.109375 0 
L 9.078125 0 
L 9.078125 54.6875 
L 18.109375 54.6875 
L 18.109375 46.1875 
Q 21.1875 51.21875 25.484375 53.609375 
Q 29.78125 56 35.6875 56 
Q 41.65625 56 45.828125 52.96875 
Q 50 49.953125 52 44.1875 
z
" id="DejaVuSans-109"/>
      <path d="M 48.6875 27.296875 
Q 48.6875 37.203125 44.609375 42.84375 
Q 40.53125 48.484375 33.40625 48.484375 
Q 26.265625 48.484375 22.1875 42.84375 
Q 18.109375 37.203125 18.109375 27.296875 
Q 18.109375 17.390625 22.1875 11.75 
Q 26.265625 6.109375 33.40625 6.109375 
Q 40.53125 6.109375 44.609375 11.75 
Q 48.6875 17.390625 48.6875 27.296875 
z
M 18.109375 46.390625 
Q 20.953125 51.265625 25.265625 53.625 
Q 29.59375 56 35.59375 56 
Q 45.5625 56 51.78125 48.09375 
Q 58.015625 40.1875 58.015625 27.296875 
Q 58.015625 14.40625 51.78125 6.484375 
Q 45.5625 -1.421875 35.59375 -1.421875 
Q 29.59375 -1.421875 25.265625 0.953125 
Q 20.953125 3.328125 18.109375 8.203125 
L 18.109375 0 
L 9.078125 0 
L 9.078125 75.984375 
L 18.109375 75.984375 
z
" id="DejaVuSans-98"/>
      <path d="M 56.203125 29.59375 
L 56.203125 25.203125 
L 14.890625 25.203125 
Q 15.484375 15.921875 20.484375 11.0625 
Q 25.484375 6.203125 34.421875 6.203125 
Q 39.59375 6.203125 44.453125 7.46875 
Q 49.3125 8.734375 54.109375 11.28125 
L 54.109375 2.78125 
Q 49.265625 0.734375 44.1875 -0.34375 
Q 39.109375 -1.421875 33.890625 -1.421875 
Q 20.796875 -1.421875 13.15625 6.1875 
Q 5.515625 13.8125 5.515625 26.8125 
Q 5.515625 40.234375 12.765625 48.109375 
Q 20.015625 56 32.328125 56 
Q 43.359375 56 49.78125 48.890625 
Q 56.203125 41.796875 56.203125 29.59375 
z
M 47.21875 32.234375 
Q 47.125 39.59375 43.09375 43.984375 
Q 39.0625 48.390625 32.421875 48.390625 
Q 24.90625 48.390625 20.390625 44.140625 
Q 15.875 39.890625 15.1875 32.171875 
z
" id="DejaVuSans-101"/>
      <path d="M 41.109375 46.296875 
Q 39.59375 47.171875 37.8125 47.578125 
Q 36.03125 48 33.890625 48 
Q 26.265625 48 22.1875 43.046875 
Q 18.109375 38.09375 18.109375 28.8125 
L 18.109375 0 
L 9.078125 0 
L 9.078125 54.6875 
L 18.109375 54.6875 
L 18.109375 46.1875 
Q 20.953125 51.171875 25.484375 53.578125 
Q 30.03125 56 36.53125 56 
Q 37.453125 56 38.578125 55.875 
Q 39.703125 55.765625 41.0625 55.515625 
z
" id="DejaVuSans-114"/>
      <path d="M 37.109375 75.984375 
L 37.109375 68.5 
L 28.515625 68.5 
Q 23.6875 68.5 21.796875 66.546875 
Q 19.921875 64.59375 19.921875 59.515625 
L 19.921875 54.6875 
L 34.71875 54.6875 
L 34.71875 47.703125 
L 19.921875 47.703125 
L 19.921875 0 
L 10.890625 0 
L 10.890625 47.703125 
L 2.296875 47.703125 
L 2.296875 54.6875 
L 10.890625 54.6875 
L 10.890625 58.5 
Q 10.890625 67.625 15.140625 71.796875 
Q 19.390625 75.984375 28.609375 75.984375 
z
" id="DejaVuSans-102"/>
      <path d="M 9.8125 72.90625 
L 24.515625 72.90625 
L 43.109375 23.296875 
L 61.8125 72.90625 
L 76.515625 72.90625 
L 76.515625 0 
L 66.890625 0 
L 66.890625 64.015625 
L 48.09375 14.015625 
L 38.1875 14.015625 
L 19.390625 64.015625 
L 19.390625 0 
L 9.8125 0 
z
" id="DejaVuSans-77"/>
      <path d="M 3.328125 72.90625 
L 13.28125 72.90625 
L 28.609375 11.28125 
L 43.890625 72.90625 
L 54.984375 72.90625 
L 70.3125 11.28125 
L 85.59375 72.90625 
L 95.609375 72.90625 
L 77.296875 0 
L 64.890625 0 
L 49.515625 63.28125 
L 33.984375 0 
L 21.578125 0 
z
" id="DejaVuSans-87"/>
      <path d="M 18.109375 8.203125 
L 18.109375 -20.796875 
L 9.078125 -20.796875 
L 9.078125 54.6875 
L 18.109375 54.6875 
L 18.109375 46.390625 
Q 20.953125 51.265625 25.265625 53.625 
Q 29.59375 56 35.59375 56 
Q 45.5625 56 51.78125 48.09375 
Q 58.015625 40.1875 58.015625 27.296875 
Q 58.015625 14.40625 51.78125 6.484375 
Q 45.5625 -1.421875 35.59375 -1.421875 
Q 29.59375 -1.421875 25.265625 0.953125 
Q 20.953125 3.328125 18.109375 8.203125 
z
M 48.6875 27.296875 
Q 48.6875 37.203125 44.609375 42.84375 
Q 40.53125 48.484375 33.40625 48.484375 
Q 26.265625 48.484375 22.1875 42.84375 
Q 18.109375 37.203125 18.109375 27.296875 
Q 18.109375 17.390625 22.1875 11.75 
Q 26.265625 6.109375 33.40625 6.109375 
Q 40.53125 6.109375 44.609375 11.75 
Q 48.6875 17.390625 48.6875 27.296875 
z
" id="DejaVuSans-112"/>
      <path d="M 9.421875 54.6875 
L 18.40625 54.6875 
L 18.40625 0 
L 9.421875 0 
z
M 9.421875 75.984375 
L 18.40625 75.984375 
L 18.40625 64.59375 
L 9.421875 64.59375 
z
" id="DejaVuSans-105"/>
      <path d="M 44.28125 53.078125 
L 44.28125 44.578125 
Q 40.484375 46.53125 36.375 47.5 
Q 32.28125 48.484375 27.875 48.484375 
Q 21.1875 48.484375 17.84375 46.4375 
Q 14.5 44.390625 14.5 40.28125 
Q 14.5 37.15625 16.890625 35.375 
Q 19.28125 33.59375 26.515625 31.984375 
L 29.59375 31.296875 
Q 39.15625 29.25 43.1875 25.515625 
Q 47.21875 21.78125 47.21875 15.09375 
Q 47.21875 7.46875 41.1875 3.015625 
Q 35.15625 -1.421875 24.609375 -1.421875 
Q 20.21875 -1.421875 15.453125 -0.5625 
Q 10.6875 0.296875 5.421875 2 
L 5.421875 11.28125 
Q 10.40625 8.6875 15.234375 7.390625 
Q 20.0625 6.109375 24.8125 6.109375 
Q 31.15625 6.109375 34.5625 8.28125 
Q 37.984375 10.453125 37.984375 14.40625 
Q 37.984375 18.0625 35.515625 20.015625 
Q 33.0625 21.96875 24.703125 23.78125 
L 21.578125 24.515625 
Q 13.234375 26.265625 9.515625 29.90625 
Q 5.8125 33.546875 5.8125 39.890625 
Q 5.8125 47.609375 11.28125 51.796875 
Q 16.75 56 26.8125 56 
Q 31.78125 56 36.171875 55.265625 
Q 40.578125 54.546875 44.28125 53.078125 
z
" id="DejaVuSans-115"/>
      <path d="M 45.40625 46.390625 
L 45.40625 75.984375 
L 54.390625 75.984375 
L 54.390625 0 
L 45.40625 0 
L 45.40625 8.203125 
Q 42.578125 3.328125 38.25 0.953125 
Q 33.9375 -1.421875 27.875 -1.421875 
Q 17.96875 -1.421875 11.734375 6.484375 
Q 5.515625 14.40625 5.515625 27.296875 
Q 5.515625 40.1875 11.734375 48.09375 
Q 17.96875 56 27.875 56 
Q 33.9375 56 38.25 53.625 
Q 42.578125 51.265625 45.40625 46.390625 
z
M 14.796875 27.296875 
Q 14.796875 17.390625 18.875 11.75 
Q 22.953125 6.109375 30.078125 6.109375 
Q 37.203125 6.109375 41.296875 11.75 
Q 45.40625 17.390625 45.40625 27.296875 
Q 45.40625 37.203125 41.296875 42.84375 
Q 37.203125 48.484375 30.078125 48.484375 
Q 22.953125 48.484375 18.875 42.84375 
Q 14.796875 37.203125 14.796875 27.296875 
z
" id="DejaVuSans-100"/>
      <path d="M 45.40625 27.984375 
Q 45.40625 37.75 41.375 43.109375 
Q 37.359375 48.484375 30.078125 48.484375 
Q 22.859375 48.484375 18.828125 43.109375 
Q 14.796875 37.75 14.796875 27.984375 
Q 14.796875 18.265625 18.828125 12.890625 
Q 22.859375 7.515625 30.078125 7.515625 
Q 37.359375 7.515625 41.375 12.890625 
Q 45.40625 18.265625 45.40625 27.984375 
z
M 54.390625 6.78125 
Q 54.390625 -7.171875 48.1875 -13.984375 
Q 42 -20.796875 29.203125 -20.796875 
Q 24.46875 -20.796875 20.265625 -20.09375 
Q 16.0625 -19.390625 12.109375 -17.921875 
L 12.109375 -9.1875 
Q 16.0625 -11.328125 19.921875 -12.34375 
Q 23.78125 -13.375 27.78125 -13.375 
Q 36.625 -13.375 41.015625 -8.765625 
Q 45.40625 -4.15625 45.40625 5.171875 
L 45.40625 9.625 
Q 42.625 4.78125 38.28125 2.390625 
Q 33.9375 0 27.875 0 
Q 17.828125 0 11.671875 7.65625 
Q 5.515625 15.328125 5.515625 27.984375 
Q 5.515625 40.671875 11.671875 48.328125 
Q 17.828125 56 27.875 56 
Q 33.9375 56 38.28125 53.609375 
Q 42.625 51.21875 45.40625 46.390625 
L 45.40625 54.6875 
L 54.390625 54.6875 
z
" id="DejaVuSans-103"/>
      <path d="M 54.890625 33.015625 
L 54.890625 0 
L 45.90625 0 
L 45.90625 32.71875 
Q 45.90625 40.484375 42.875 44.328125 
Q 39.84375 48.1875 33.796875 48.1875 
Q 26.515625 48.1875 22.3125 43.546875 
Q 18.109375 38.921875 18.109375 30.90625 
L 18.109375 0 
L 9.078125 0 
L 9.078125 75.984375 
L 18.109375 75.984375 
L 18.109375 46.1875 
Q 21.34375 51.125 25.703125 53.5625 
Q 30.078125 56 35.796875 56 
Q 45.21875 56 50.046875 50.171875 
Q 54.890625 44.34375 54.890625 33.015625 
z
" id="DejaVuSans-104"/>
      <path d="M 54.890625 54.6875 
L 35.109375 28.078125 
L 55.90625 0 
L 45.3125 0 
L 29.390625 21.484375 
L 13.484375 0 
L 2.875 0 
L 24.125 28.609375 
L 4.6875 54.6875 
L 15.28125 54.6875 
L 29.78125 35.203125 
L 44.28125 54.6875 
z
" id="DejaVuSans-120"/>
     </defs>
     <g transform="translate(162.670312 406.276563)scale(0.1 -0.1)">
      <use xlink:href="#DejaVuSans-84"/>
      <use x="60.818359" xlink:href="#DejaVuSans-111"/>
      <use x="122" xlink:href="#DejaVuSans-116"/>
      <use x="161.208984" xlink:href="#DejaVuSans-97"/>
      <use x="222.488281" xlink:href="#DejaVuSans-108"/>
      <use x="250.271484" xlink:href="#DejaVuSans-32"/>
      <use x="282.058594" xlink:href="#DejaVuSans-110"/>
      <use x="345.4375" xlink:href="#DejaVuSans-117"/>
      <use x="408.816406" xlink:href="#DejaVuSans-109"/>
      <use x="506.228516" xlink:href="#DejaVuSans-98"/>
      <use x="569.705078" xlink:href="#DejaVuSans-101"/>
      <use x="631.228516" xlink:href="#DejaVuSans-114"/>
      <use x="672.341797" xlink:href="#DejaVuSans-32"/>
      <use x="704.128906" xlink:href="#DejaVuSans-111"/>
      <use x="765.310547" xlink:href="#DejaVuSans-102"/>
      <use x="800.515625" xlink:href="#DejaVuSans-32"/>
      <use x="832.302734" xlink:href="#DejaVuSans-77"/>
      <use x="918.582031" xlink:href="#DejaVuSans-87"/>
      <use x="1017.458984" xlink:href="#DejaVuSans-32"/>
      <use x="1049.246094" xlink:href="#DejaVuSans-101"/>
      <use x="1110.769531" xlink:href="#DejaVuSans-112"/>
      <use x="1174.246094" xlink:href="#DejaVuSans-105"/>
      <use x="1202.029297" xlink:href="#DejaVuSans-115"/>
      <use x="1254.128906" xlink:href="#DejaVuSans-111"/>
      <use x="1315.310547" xlink:href="#DejaVuSans-100"/>
      <use x="1378.787109" xlink:href="#DejaVuSans-101"/>
      <use x="1440.310547" xlink:href="#DejaVuSans-115"/>
      <use x="1492.410156" xlink:href="#DejaVuSans-32"/>
      <use x="1524.197266" xlink:href="#DejaVuSans-100"/>
      <use x="1587.673828" xlink:href="#DejaVuSans-117"/>
      <use x="1651.052734" xlink:href="#DejaVuSans-114"/>
      <use x="1692.166016" xlink:href="#DejaVuSans-105"/>
      <use x="1719.949219" xlink:href="#DejaVuSans-110"/>
      <use x="1783.328125" xlink:href="#DejaVuSans-103"/>
      <use x="1846.804688" xlink:href="#DejaVuSans-32"/>
      <use x="1878.591797" xlink:href="#DejaVuSans-116"/>
      <use x="1917.800781" xlink:href="#DejaVuSans-104"/>
      <use x="1981.179688" xlink:href="#DejaVuSans-101"/>
      <use x="2042.703125" xlink:href="#DejaVuSans-32"/>
      <use x="2074.490234" xlink:href="#DejaVuSans-101"/>
      <use x="2135.998047" xlink:href="#DejaVuSans-120"/>
      <use x="2195.177734" xlink:href="#DejaVuSans-112"/>
      <use x="2258.654297" xlink:href="#DejaVuSans-101"/>
      <use x="2320.177734" xlink:href="#DejaVuSans-114"/>
      <use x="2361.291016" xlink:href="#DejaVuSans-105"/>
      <use x="2389.074219" xlink:href="#DejaVuSans-109"/>
      <use x="2486.486328" xlink:href="#DejaVuSans-101"/>
      <use x="2548.009766" xlink:href="#DejaVuSans-110"/>
      <use x="2611.388672" xlink:href="#DejaVuSans-116"/>
     </g>
    </g>
   </g>
   <g id="matplotlib.axis_2">
    <g id="ytick_1">
     <g id="line2d_7">
      <defs>
       <path d="M 0 0 
L -3.5 0 
" id="me6042f52b6" style="stroke:#000000;stroke-width:0.8;"/>
      </defs>
      <g>
       <use style="stroke:#000000;stroke-width:0.8;" x="72" xlink:href="#me6042f52b6" y="359.88"/>
      </g>
     </g>
     <g id="text_8">
      <!-- No MW at all -->
      <defs>
       <path d="M 9.8125 72.90625 
L 23.09375 72.90625 
L 55.421875 11.921875 
L 55.421875 72.90625 
L 64.984375 72.90625 
L 64.984375 0 
L 51.703125 0 
L 19.390625 60.984375 
L 19.390625 0 
L 9.8125 0 
z
" id="DejaVuSans-78"/>
      </defs>
      <g transform="translate(1.617188 363.679219)scale(0.1 -0.1)">
       <use xlink:href="#DejaVuSans-78"/>
       <use x="74.804688" xlink:href="#DejaVuSans-111"/>
       <use x="135.986328" xlink:href="#DejaVuSans-32"/>
       <use x="167.773438" xlink:href="#DejaVuSans-77"/>
       <use x="254.052734" xlink:href="#DejaVuSans-87"/>
       <use x="352.929688" xlink:href="#DejaVuSans-32"/>
       <use x="384.716797" xlink:href="#DejaVuSans-97"/>
       <use x="445.996094" xlink:href="#DejaVuSans-116"/>
       <use x="485.205078" xlink:href="#DejaVuSans-32"/>
       <use x="516.992188" xlink:href="#DejaVuSans-97"/>
       <use x="578.271484" xlink:href="#DejaVuSans-108"/>
       <use x="606.054688" xlink:href="#DejaVuSans-108"/>
      </g>
     </g>
    </g>
    <g id="ytick_2">
     <g id="line2d_8">
      <g>
       <use style="stroke:#000000;stroke-width:0.8;" x="72" xlink:href="#me6042f52b6" y="323.64"/>
      </g>
     </g>
     <g id="text_9">
      <!-- A couple of minutes -->
      <defs>
       <path d="M 34.1875 63.1875 
L 20.796875 26.90625 
L 47.609375 26.90625 
z
M 28.609375 72.90625 
L 39.796875 72.90625 
L 67.578125 0 
L 57.328125 0 
L 50.6875 18.703125 
L 17.828125 18.703125 
L 11.1875 0 
L 0.78125 0 
z
" id="DejaVuSans-65"/>
       <path d="M 48.78125 52.59375 
L 48.78125 44.1875 
Q 44.96875 46.296875 41.140625 47.34375 
Q 37.3125 48.390625 33.40625 48.390625 
Q 24.65625 48.390625 19.8125 42.84375 
Q 14.984375 37.3125 14.984375 27.296875 
Q 14.984375 17.28125 19.8125 11.734375 
Q 24.65625 6.203125 33.40625 6.203125 
Q 37.3125 6.203125 41.140625 7.25 
Q 44.96875 8.296875 48.78125 10.40625 
L 48.78125 2.09375 
Q 45.015625 0.34375 40.984375 -0.53125 
Q 36.96875 -1.421875 32.421875 -1.421875 
Q 20.0625 -1.421875 12.78125 6.34375 
Q 5.515625 14.109375 5.515625 27.296875 
Q 5.515625 40.671875 12.859375 48.328125 
Q 20.21875 56 33.015625 56 
Q 37.15625 56 41.109375 55.140625 
Q 45.0625 54.296875 48.78125 52.59375 
z
" id="DejaVuSans-99"/>
      </defs>
      <g transform="translate(-34.725 327.439219)scale(0.1 -0.1)">
       <use xlink:href="#DejaVuSans-65"/>
       <use x="68.408203" xlink:href="#DejaVuSans-32"/>
       <use x="100.195312" xlink:href="#DejaVuSans-99"/>
       <use x="155.175781" xlink:href="#DejaVuSans-111"/>
       <use x="216.357422" xlink:href="#DejaVuSans-117"/>
       <use x="279.736328" xlink:href="#DejaVuSans-112"/>
       <use x="343.212891" xlink:href="#DejaVuSans-108"/>
       <use x="370.996094" xlink:href="#DejaVuSans-101"/>
       <use x="432.519531" xlink:href="#DejaVuSans-32"/>
       <use x="464.306641" xlink:href="#DejaVuSans-111"/>
       <use x="525.488281" xlink:href="#DejaVuSans-102"/>
       <use x="560.693359" xlink:href="#DejaVuSans-32"/>
       <use x="592.480469" xlink:href="#DejaVuSans-109"/>
       <use x="689.892578" xlink:href="#DejaVuSans-105"/>
       <use x="717.675781" xlink:href="#DejaVuSans-110"/>
       <use x="781.054688" xlink:href="#DejaVuSans-117"/>
       <use x="844.433594" xlink:href="#DejaVuSans-116"/>
       <use x="883.642578" xlink:href="#DejaVuSans-101"/>
       <use x="945.166016" xlink:href="#DejaVuSans-115"/>
      </g>
     </g>
    </g>
    <g id="ytick_3">
     <g id="line2d_9">
      <g>
       <use style="stroke:#000000;stroke-width:0.8;" x="72" xlink:href="#me6042f52b6" y="287.4"/>
      </g>
     </g>
     <g id="text_10">
      <!-- About half an hour -->
      <g transform="translate(-28.234375 291.199219)scale(0.1 -0.1)">
       <use xlink:href="#DejaVuSans-65"/>
       <use x="68.408203" xlink:href="#DejaVuSans-98"/>
       <use x="131.884766" xlink:href="#DejaVuSans-111"/>
       <use x="193.066406" xlink:href="#DejaVuSans-117"/>
       <use x="256.445312" xlink:href="#DejaVuSans-116"/>
       <use x="295.654297" xlink:href="#DejaVuSans-32"/>
       <use x="327.441406" xlink:href="#DejaVuSans-104"/>
       <use x="390.820312" xlink:href="#DejaVuSans-97"/>
       <use x="452.099609" xlink:href="#DejaVuSans-108"/>
       <use x="479.882812" xlink:href="#DejaVuSans-102"/>
       <use x="515.087891" xlink:href="#DejaVuSans-32"/>
       <use x="546.875" xlink:href="#DejaVuSans-97"/>
       <use x="608.154297" xlink:href="#DejaVuSans-110"/>
       <use x="671.533203" xlink:href="#DejaVuSans-32"/>
       <use x="703.320312" xlink:href="#DejaVuSans-104"/>
       <use x="766.699219" xlink:href="#DejaVuSans-111"/>
       <use x="827.880859" xlink:href="#DejaVuSans-117"/>
       <use x="891.259766" xlink:href="#DejaVuSans-114"/>
      </g>
     </g>
    </g>
    <g id="ytick_4">
     <g id="line2d_10">
      <g>
       <use style="stroke:#000000;stroke-width:0.8;" x="72" xlink:href="#me6042f52b6" y="251.16"/>
      </g>
     </g>
     <g id="text_11">
      <!-- About 1 hour -->
      <g transform="translate(-0.189063 254.959219)scale(0.1 -0.1)">
       <use xlink:href="#DejaVuSans-65"/>
       <use x="68.408203" xlink:href="#DejaVuSans-98"/>
       <use x="131.884766" xlink:href="#DejaVuSans-111"/>
       <use x="193.066406" xlink:href="#DejaVuSans-117"/>
       <use x="256.445312" xlink:href="#DejaVuSans-116"/>
       <use x="295.654297" xlink:href="#DejaVuSans-32"/>
       <use x="327.441406" xlink:href="#DejaVuSans-49"/>
       <use x="391.064453" xlink:href="#DejaVuSans-32"/>
       <use x="422.851562" xlink:href="#DejaVuSans-104"/>
       <use x="486.230469" xlink:href="#DejaVuSans-111"/>
       <use x="547.412109" xlink:href="#DejaVuSans-117"/>
       <use x="610.791016" xlink:href="#DejaVuSans-114"/>
      </g>
     </g>
    </g>
    <g id="ytick_5">
     <g id="line2d_11">
      <g>
       <use style="stroke:#000000;stroke-width:0.8;" x="72" xlink:href="#me6042f52b6" y="214.92"/>
      </g>
     </g>
     <g id="text_12">
      <!-- About 2 hours -->
      <g transform="translate(-5.398438 218.719219)scale(0.1 -0.1)">
       <use xlink:href="#DejaVuSans-65"/>
       <use x="68.408203" xlink:href="#DejaVuSans-98"/>
       <use x="131.884766" xlink:href="#DejaVuSans-111"/>
       <use x="193.066406" xlink:href="#DejaVuSans-117"/>
       <use x="256.445312" xlink:href="#DejaVuSans-116"/>
       <use x="295.654297" xlink:href="#DejaVuSans-32"/>
       <use x="327.441406" xlink:href="#DejaVuSans-50"/>
       <use x="391.064453" xlink:href="#DejaVuSans-32"/>
       <use x="422.851562" xlink:href="#DejaVuSans-104"/>
       <use x="486.230469" xlink:href="#DejaVuSans-111"/>
       <use x="547.412109" xlink:href="#DejaVuSans-117"/>
       <use x="610.791016" xlink:href="#DejaVuSans-114"/>
       <use x="651.904297" xlink:href="#DejaVuSans-115"/>
      </g>
     </g>
    </g>
    <g id="ytick_6">
     <g id="line2d_12">
      <g>
       <use style="stroke:#000000;stroke-width:0.8;" x="72" xlink:href="#me6042f52b6" y="178.68"/>
      </g>
     </g>
     <g id="text_13">
      <!-- About 3 hours -->
      <defs>
       <path d="M 40.578125 39.3125 
Q 47.65625 37.796875 51.625 33 
Q 55.609375 28.21875 55.609375 21.1875 
Q 55.609375 10.40625 48.1875 4.484375 
Q 40.765625 -1.421875 27.09375 -1.421875 
Q 22.515625 -1.421875 17.65625 -0.515625 
Q 12.796875 0.390625 7.625 2.203125 
L 7.625 11.71875 
Q 11.71875 9.328125 16.59375 8.109375 
Q 21.484375 6.890625 26.8125 6.890625 
Q 36.078125 6.890625 40.9375 10.546875 
Q 45.796875 14.203125 45.796875 21.1875 
Q 45.796875 27.640625 41.28125 31.265625 
Q 36.765625 34.90625 28.71875 34.90625 
L 20.21875 34.90625 
L 20.21875 43.015625 
L 29.109375 43.015625 
Q 36.375 43.015625 40.234375 45.921875 
Q 44.09375 48.828125 44.09375 54.296875 
Q 44.09375 59.90625 40.109375 62.90625 
Q 36.140625 65.921875 28.71875 65.921875 
Q 24.65625 65.921875 20.015625 65.03125 
Q 15.375 64.15625 9.8125 62.3125 
L 9.8125 71.09375 
Q 15.4375 72.65625 20.34375 73.4375 
Q 25.25 74.21875 29.59375 74.21875 
Q 40.828125 74.21875 47.359375 69.109375 
Q 53.90625 64.015625 53.90625 55.328125 
Q 53.90625 49.265625 50.4375 45.09375 
Q 46.96875 40.921875 40.578125 39.3125 
z
" id="DejaVuSans-51"/>
      </defs>
      <g transform="translate(-5.398438 182.479219)scale(0.1 -0.1)">
       <use xlink:href="#DejaVuSans-65"/>
       <use x="68.408203" xlink:href="#DejaVuSans-98"/>
       <use x="131.884766" xlink:href="#DejaVuSans-111"/>
       <use x="193.066406" xlink:href="#DejaVuSans-117"/>
       <use x="256.445312" xlink:href="#DejaVuSans-116"/>
       <use x="295.654297" xlink:href="#DejaVuSans-32"/>
       <use x="327.441406" xlink:href="#DejaVuSans-51"/>
       <use x="391.064453" xlink:href="#DejaVuSans-32"/>
       <use x="422.851562" xlink:href="#DejaVuSans-104"/>
       <use x="486.230469" xlink:href="#DejaVuSans-111"/>
       <use x="547.412109" xlink:href="#DejaVuSans-117"/>
       <use x="610.791016" xlink:href="#DejaVuSans-114"/>
       <use x="651.904297" xlink:href="#DejaVuSans-115"/>
      </g>
     </g>
    </g>
    <g id="ytick_7">
     <g id="line2d_13">
      <g>
       <use style="stroke:#000000;stroke-width:0.8;" x="72" xlink:href="#me6042f52b6" y="142.44"/>
      </g>
     </g>
     <g id="text_14">
      <!-- More than 3 hours -->
      <g transform="translate(-26.742188 146.239219)scale(0.1 -0.1)">
       <use xlink:href="#DejaVuSans-77"/>
       <use x="86.279297" xlink:href="#DejaVuSans-111"/>
       <use x="147.460938" xlink:href="#DejaVuSans-114"/>
       <use x="188.542969" xlink:href="#DejaVuSans-101"/>
       <use x="250.066406" xlink:href="#DejaVuSans-32"/>
       <use x="281.853516" xlink:href="#DejaVuSans-116"/>
       <use x="321.0625" xlink:href="#DejaVuSans-104"/>
       <use x="384.441406" xlink:href="#DejaVuSans-97"/>
       <use x="445.720703" xlink:href="#DejaVuSans-110"/>
       <use x="509.099609" xlink:href="#DejaVuSans-32"/>
       <use x="540.886719" xlink:href="#DejaVuSans-51"/>
       <use x="604.509766" xlink:href="#DejaVuSans-32"/>
       <use x="636.296875" xlink:href="#DejaVuSans-104"/>
       <use x="699.675781" xlink:href="#DejaVuSans-111"/>
       <use x="760.857422" xlink:href="#DejaVuSans-117"/>
       <use x="824.236328" xlink:href="#DejaVuSans-114"/>
       <use x="865.349609" xlink:href="#DejaVuSans-115"/>
      </g>
     </g>
    </g>
    <g id="ytick_8">
     <g id="line2d_14">
      <g>
       <use style="stroke:#000000;stroke-width:0.8;" x="72" xlink:href="#me6042f52b6" y="106.2"/>
      </g>
     </g>
     <g id="text_15">
      <!-- Half of wake time -->
      <defs>
       <path d="M 9.8125 72.90625 
L 19.671875 72.90625 
L 19.671875 43.015625 
L 55.515625 43.015625 
L 55.515625 72.90625 
L 65.375 72.90625 
L 65.375 0 
L 55.515625 0 
L 55.515625 34.71875 
L 19.671875 34.71875 
L 19.671875 0 
L 9.8125 0 
z
" id="DejaVuSans-72"/>
       <path d="M 4.203125 54.6875 
L 13.1875 54.6875 
L 24.421875 12.015625 
L 35.59375 54.6875 
L 46.1875 54.6875 
L 57.421875 12.015625 
L 68.609375 54.6875 
L 77.59375 54.6875 
L 63.28125 0 
L 52.6875 0 
L 40.921875 44.828125 
L 29.109375 0 
L 18.5 0 
z
" id="DejaVuSans-119"/>
       <path d="M 9.078125 75.984375 
L 18.109375 75.984375 
L 18.109375 31.109375 
L 44.921875 54.6875 
L 56.390625 54.6875 
L 27.390625 29.109375 
L 57.625 0 
L 45.90625 0 
L 18.109375 26.703125 
L 18.109375 0 
L 9.078125 0 
z
" id="DejaVuSans-107"/>
      </defs>
      <g transform="translate(-22.957813 109.999219)scale(0.1 -0.1)">
       <use xlink:href="#DejaVuSans-72"/>
       <use x="75.195312" xlink:href="#DejaVuSans-97"/>
       <use x="136.474609" xlink:href="#DejaVuSans-108"/>
       <use x="164.257812" xlink:href="#DejaVuSans-102"/>
       <use x="199.462891" xlink:href="#DejaVuSans-32"/>
       <use x="231.25" xlink:href="#DejaVuSans-111"/>
       <use x="292.431641" xlink:href="#DejaVuSans-102"/>
       <use x="327.636719" xlink:href="#DejaVuSans-32"/>
       <use x="359.423828" xlink:href="#DejaVuSans-119"/>
       <use x="441.210938" xlink:href="#DejaVuSans-97"/>
       <use x="502.490234" xlink:href="#DejaVuSans-107"/>
       <use x="560.353516" xlink:href="#DejaVuSans-101"/>
       <use x="621.876953" xlink:href="#DejaVuSans-32"/>
       <use x="653.664062" xlink:href="#DejaVuSans-116"/>
       <use x="692.873047" xlink:href="#DejaVuSans-105"/>
       <use x="720.65625" xlink:href="#DejaVuSans-109"/>
       <use x="818.068359" xlink:href="#DejaVuSans-101"/>
      </g>
     </g>
    </g>
    <g id="ytick_9">
     <g id="line2d_15">
      <g>
       <use style="stroke:#000000;stroke-width:0.8;" x="72" xlink:href="#me6042f52b6" y="69.96"/>
      </g>
     </g>
     <g id="text_16">
      <!-- Almost all the time -->
      <g transform="translate(-29.829688 73.759219)scale(0.1 -0.1)">
       <use xlink:href="#DejaVuSans-65"/>
       <use x="68.408203" xlink:href="#DejaVuSans-108"/>
       <use x="96.191406" xlink:href="#DejaVuSans-109"/>
       <use x="193.603516" xlink:href="#DejaVuSans-111"/>
       <use x="254.785156" xlink:href="#DejaVuSans-115"/>
       <use x="306.884766" xlink:href="#DejaVuSans-116"/>
       <use x="346.09375" xlink:href="#DejaVuSans-32"/>
       <use x="377.880859" xlink:href="#DejaVuSans-97"/>
       <use x="439.160156" xlink:href="#DejaVuSans-108"/>
       <use x="466.943359" xlink:href="#DejaVuSans-108"/>
       <use x="494.726562" xlink:href="#DejaVuSans-32"/>
       <use x="526.513672" xlink:href="#DejaVuSans-116"/>
       <use x="565.722656" xlink:href="#DejaVuSans-104"/>
       <use x="629.101562" xlink:href="#DejaVuSans-101"/>
       <use x="690.625" xlink:href="#DejaVuSans-32"/>
       <use x="722.412109" xlink:href="#DejaVuSans-116"/>
       <use x="761.621094" xlink:href="#DejaVuSans-105"/>
       <use x="789.404297" xlink:href="#DejaVuSans-109"/>
       <use x="886.816406" xlink:href="#DejaVuSans-101"/>
      </g>
     </g>
    </g>
    <g id="text_17">
     <!-- Self-estimation of daily MW -->
     <defs>
      <path d="M 53.515625 70.515625 
L 53.515625 60.890625 
Q 47.90625 63.578125 42.921875 64.890625 
Q 37.9375 66.21875 33.296875 66.21875 
Q 25.25 66.21875 20.875 63.09375 
Q 16.5 59.96875 16.5 54.203125 
Q 16.5 49.359375 19.40625 46.890625 
Q 22.3125 44.4375 30.421875 42.921875 
L 36.375 41.703125 
Q 47.40625 39.59375 52.65625 34.296875 
Q 57.90625 29 57.90625 20.125 
Q 57.90625 9.515625 50.796875 4.046875 
Q 43.703125 -1.421875 29.984375 -1.421875 
Q 24.8125 -1.421875 18.96875 -0.25 
Q 13.140625 0.921875 6.890625 3.21875 
L 6.890625 13.375 
Q 12.890625 10.015625 18.65625 8.296875 
Q 24.421875 6.59375 29.984375 6.59375 
Q 38.421875 6.59375 43.015625 9.90625 
Q 47.609375 13.234375 47.609375 19.390625 
Q 47.609375 24.75 44.3125 27.78125 
Q 41.015625 30.8125 33.5 32.328125 
L 27.484375 33.5 
Q 16.453125 35.6875 11.515625 40.375 
Q 6.59375 45.0625 6.59375 53.421875 
Q 6.59375 63.09375 13.40625 68.65625 
Q 20.21875 74.21875 32.171875 74.21875 
Q 37.3125 74.21875 42.625 73.28125 
Q 47.953125 72.359375 53.515625 70.515625 
z
" id="DejaVuSans-83"/>
      <path d="M 4.890625 31.390625 
L 31.203125 31.390625 
L 31.203125 23.390625 
L 4.890625 23.390625 
z
" id="DejaVuSans-45"/>
      <path d="M 32.171875 -5.078125 
Q 28.375 -14.84375 24.75 -17.8125 
Q 21.140625 -20.796875 15.09375 -20.796875 
L 7.90625 -20.796875 
L 7.90625 -13.28125 
L 13.1875 -13.28125 
Q 16.890625 -13.28125 18.9375 -11.515625 
Q 21 -9.765625 23.484375 -3.21875 
L 25.09375 0.875 
L 2.984375 54.6875 
L 12.5 54.6875 
L 29.59375 11.921875 
L 46.6875 54.6875 
L 56.203125 54.6875 
z
" id="DejaVuSans-121"/>
     </defs>
     <g transform="translate(-40.804688 283.4825)rotate(-90)scale(0.1 -0.1)">
      <use xlink:href="#DejaVuSans-83"/>
      <use x="63.476562" xlink:href="#DejaVuSans-101"/>
      <use x="125" xlink:href="#DejaVuSans-108"/>
      <use x="152.783203" xlink:href="#DejaVuSans-102"/>
      <use x="187.910156" xlink:href="#DejaVuSans-45"/>
      <use x="223.994141" xlink:href="#DejaVuSans-101"/>
      <use x="285.517578" xlink:href="#DejaVuSans-115"/>
      <use x="337.617188" xlink:href="#DejaVuSans-116"/>
      <use x="376.826172" xlink:href="#DejaVuSans-105"/>
      <use x="404.609375" xlink:href="#DejaVuSans-109"/>
      <use x="502.021484" xlink:href="#DejaVuSans-97"/>
      <use x="563.300781" xlink:href="#DejaVuSans-116"/>
      <use x="602.509766" xlink:href="#DejaVuSans-105"/>
      <use x="630.292969" xlink:href="#DejaVuSans-111"/>
      <use x="691.474609" xlink:href="#DejaVuSans-110"/>
      <use x="754.853516" xlink:href="#DejaVuSans-32"/>
      <use x="786.640625" xlink:href="#DejaVuSans-111"/>
      <use x="847.822266" xlink:href="#DejaVuSans-102"/>
      <use x="883.027344" xlink:href="#DejaVuSans-32"/>
      <use x="914.814453" xlink:href="#DejaVuSans-100"/>
      <use x="978.291016" xlink:href="#DejaVuSans-97"/>
      <use x="1039.570312" xlink:href="#DejaVuSans-105"/>
      <use x="1067.353516" xlink:href="#DejaVuSans-108"/>
      <use x="1095.136719" xlink:href="#DejaVuSans-121"/>
      <use x="1154.316406" xlink:href="#DejaVuSans-32"/>
      <use x="1186.103516" xlink:href="#DejaVuSans-77"/>
      <use x="1272.382812" xlink:href="#DejaVuSans-87"/>
     </g>
    </g>
   </g>
   <g id="line2d_16">
    <path clip-path="url(#pf9f2e1d52d)" d="M 72 261.999835 
L 76.509091 261.227039 
L 81.018182 260.454243 
L 85.527273 259.681446 
L 90.036364 258.90865 
L 94.545455 258.135853 
L 99.054545 257.363057 
L 103.563636 256.59026 
L 108.072727 255.817464 
L 112.581818 255.044667 
L 117.090909 254.271871 
L 121.6 253.499074 
L 126.109091 252.726278 
L 130.618182 251.953482 
L 135.127273 251.180685 
L 139.636364 250.407889 
L 144.145455 249.635092 
L 148.654545 248.862296 
L 153.163636 248.089499 
L 157.672727 247.316703 
L 162.181818 246.543906 
L 166.690909 245.77111 
L 171.2 244.998314 
L 175.709091 244.225517 
L 180.218182 243.452721 
L 184.727273 242.679924 
L 189.236364 241.907128 
L 193.745455 241.134331 
L 198.254545 240.361535 
L 202.763636 239.588738 
L 207.272727 238.815942 
L 211.781818 238.043145 
L 216.290909 237.270349 
L 220.8 236.497553 
L 225.309091 235.724756 
L 229.818182 234.95196 
L 234.327273 234.179163 
L 238.836364 233.406367 
L 243.345455 232.63357 
L 247.854545 231.860774 
L 252.363636 231.087977 
L 256.872727 230.315181 
L 261.381818 229.542384 
L 265.890909 228.769588 
L 270.4 227.996792 
L 274.909091 227.223995 
L 279.418182 226.451199 
L 283.927273 225.678402 
L 288.436364 224.905606 
L 292.945455 224.132809 
L 297.454545 223.360013 
L 301.963636 222.587216 
L 306.472727 221.81442 
L 310.981818 221.041624 
L 315.490909 220.268827 
L 320 219.496031 
L 324.509091 218.723234 
L 329.018182 217.950438 
L 333.527273 217.177641 
L 338.036364 216.404845 
L 342.545455 215.632048 
L 347.054545 214.859252 
L 351.563636 214.086455 
L 356.072727 213.313659 
L 360.581818 212.540863 
L 365.090909 211.768066 
L 369.6 210.99527 
L 374.109091 210.222473 
L 378.618182 209.449677 
L 383.127273 208.67688 
L 387.636364 207.904084 
L 392.145455 207.131287 
L 396.654545 206.358491 
L 401.163636 205.585694 
L 405.672727 204.812898 
L 410.181818 204.040102 
L 414.690909 203.267305 
L 419.2 202.494509 
L 423.709091 201.721712 
L 428.218182 200.948916 
L 432.727273 200.176119 
L 437.236364 199.403323 
L 441.745455 198.630526 
L 446.254545 197.85773 
L 450.763636 197.084934 
L 455.272727 196.312137 
L 459.781818 195.539341 
L 464.290909 194.766544 
L 468.8 193.993748 
L 473.309091 193.220951 
L 477.818182 192.448155 
L 482.327273 191.675358 
L 486.836364 190.902562 
L 491.345455 190.129765 
L 495.854545 189.356969 
L 500.363636 188.584173 
L 504.872727 187.811376 
L 509.381818 187.03858 
L 513.890909 186.265783 
L 518.4 185.492987 
" style="fill:none;stroke:#800000;stroke-linecap:square;stroke-width:2.25;"/>
   </g>
   <g id="patch_3">
    <path d="M 72 378 
L 72 51.84 
" style="fill:none;stroke:#000000;stroke-linecap:square;stroke-linejoin:miter;stroke-width:0.8;"/>
   </g>
   <g id="patch_4">
    <path d="M 518.4 378 
L 518.4 51.84 
" style="fill:none;stroke:#000000;stroke-linecap:square;stroke-linejoin:miter;stroke-width:0.8;"/>
   </g>
   <g id="patch_5">
    <path d="M 72 378 
L 518.4 378 
" style="fill:none;stroke:#000000;stroke-linecap:square;stroke-linejoin:miter;stroke-width:0.8;"/>
   </g>
   <g id="patch_6">
    <path d="M 72 51.84 
L 518.4 51.84 
" style="fill:none;stroke:#000000;stroke-linecap:square;stroke-linejoin:miter;stroke-width:0.8;"/>
   </g>
   <g id="text_18">
    <!-- Regression plot -->
    <defs>
     <path d="M 44.390625 34.1875 
Q 47.5625 33.109375 50.5625 29.59375 
Q 53.5625 26.078125 56.59375 19.921875 
L 66.609375 0 
L 56 0 
L 46.6875 18.703125 
Q 43.0625 26.03125 39.671875 28.421875 
Q 36.28125 30.8125 30.421875 30.8125 
L 19.671875 30.8125 
L 19.671875 0 
L 9.8125 0 
L 9.8125 72.90625 
L 32.078125 72.90625 
Q 44.578125 72.90625 50.734375 67.671875 
Q 56.890625 62.453125 56.890625 51.90625 
Q 56.890625 45.015625 53.6875 40.46875 
Q 50.484375 35.9375 44.390625 34.1875 
z
M 19.671875 64.796875 
L 19.671875 38.921875 
L 32.078125 38.921875 
Q 39.203125 38.921875 42.84375 42.21875 
Q 46.484375 45.515625 46.484375 51.90625 
Q 46.484375 58.296875 42.84375 61.546875 
Q 39.203125 64.796875 32.078125 64.796875 
z
" id="DejaVuSans-82"/>
    </defs>
    <g transform="translate(248.579062 45.84)scale(0.12 -0.12)">
     <use xlink:href="#DejaVuSans-82"/>
     <use x="69.419922" xlink:href="#DejaVuSans-101"/>
     <use x="130.943359" xlink:href="#DejaVuSans-103"/>
     <use x="194.419922" xlink:href="#DejaVuSans-114"/>
     <use x="235.501953" xlink:href="#DejaVuSans-101"/>
     <use x="297.025391" xlink:href="#DejaVuSans-115"/>
     <use x="349.125" xlink:href="#DejaVuSans-115"/>
     <use x="401.224609" xlink:href="#DejaVuSans-105"/>
     <use x="429.007812" xlink:href="#DejaVuSans-111"/>
     <use x="490.189453" xlink:href="#DejaVuSans-110"/>
     <use x="553.568359" xlink:href="#DejaVuSans-32"/>
     <use x="585.355469" xlink:href="#DejaVuSans-112"/>
     <use x="648.832031" xlink:href="#DejaVuSans-108"/>
     <use x="676.615234" xlink:href="#DejaVuSans-111"/>
     <use x="737.796875" xlink:href="#DejaVuSans-116"/>
    </g>
   </g>
  </g>
 </g>
 <defs>
  <clipPath id="pf9f2e1d52d">
   <rect height="326.16" width="446.4" x="72" y="51.84"/>
  </clipPath>
 </defs>
</svg>
