<?xml version="1.0" encoding="utf-8" standalone="no"?>
<!DOCTYPE svg PUBLIC "-//W3C//DTD SVG 1.1//EN"
  "http://www.w3.org/Graphics/SVG/1.1/DTD/svg11.dtd">
<!-- Created with matplotlib (https://matplotlib.org/) -->
<svg height="360pt" version="1.1" viewBox="0 0 504 360" width="504pt" xmlns="http://www.w3.org/2000/svg" xmlns:xlink="http://www.w3.org/1999/xlink">
 <defs>
  <style type="text/css">
*{stroke-linecap:butt;stroke-linejoin:round;}
  </style>
 </defs>
 <g id="figure_1">
  <g id="patch_1">
   <path d="M 0 360 
L 504 360 
L 504 0 
L 0 0 
z
" style="fill:#ffffff;"/>
  </g>
  <g id="axes_1">
   <g id="patch_2">
    <path d="M 63 315 
L 453.6 315 
L 453.6 43.2 
L 63 43.2 
z
" style="fill:#ffffff;"/>
   </g>
   <g id="patch_3">
    <path d="M 63 305.695129 
L 63 62.38446 
" style="fill:none;stroke:#000000;stroke-linecap:square;stroke-linejoin:miter;stroke-width:0.8;"/>
   </g>
   <g id="LineCollection_1">
    <path clip-path="url(#p659425bdba)" d="M 133.436066 315 
L 133.436066 62.38446 
" style="fill:none;stroke:#000000;stroke-dasharray:3.7,1.6;stroke-dashoffset:0;"/>
   </g>
   <g id="matplotlib.axis_1">
    <g id="xtick_1">
     <g id="line2d_1">
      <defs>
       <path d="M 0 0 
L 0 3.5 
" id="md5ad8da2f1" style="stroke:#000000;stroke-width:0.8;"/>
      </defs>
      <g>
       <use style="stroke:#000000;stroke-width:0.8;" x="133.436066" xlink:href="#md5ad8da2f1" y="315"/>
      </g>
     </g>
     <g id="text_1">
      <!-- 0.0 -->
      <defs>
       <path d="M 31.78125 66.40625 
Q 24.171875 66.40625 20.328125 58.90625 
Q 16.5 51.421875 16.5 36.375 
Q 16.5 21.390625 20.328125 13.890625 
Q 24.171875 6.390625 31.78125 6.390625 
Q 39.453125 6.390625 43.28125 13.890625 
Q 47.125 21.390625 47.125 36.375 
Q 47.125 51.421875 43.28125 58.90625 
Q 39.453125 66.40625 31.78125 66.40625 
z
M 31.78125 74.21875 
Q 44.046875 74.21875 50.515625 64.515625 
Q 56.984375 54.828125 56.984375 36.375 
Q 56.984375 17.96875 50.515625 8.265625 
Q 44.046875 -1.421875 31.78125 -1.421875 
Q 19.53125 -1.421875 13.0625 8.265625 
Q 6.59375 17.96875 6.59375 36.375 
Q 6.59375 54.828125 13.0625 64.515625 
Q 19.53125 74.21875 31.78125 74.21875 
z
" id="DejaVuSans-48"/>
       <path d="M 10.6875 12.40625 
L 21 12.40625 
L 21 0 
L 10.6875 0 
z
" id="DejaVuSans-46"/>
      </defs>
      <g transform="translate(123.894191 331.118125)scale(0.12 -0.12)">
       <use xlink:href="#DejaVuSans-48"/>
       <use x="63.623047" xlink:href="#DejaVuSans-46"/>
       <use x="95.410156" xlink:href="#DejaVuSans-48"/>
      </g>
     </g>
    </g>
    <g id="xtick_2">
     <g id="line2d_2">
      <g>
       <use style="stroke:#000000;stroke-width:0.8;" x="204.512459" xlink:href="#md5ad8da2f1" y="315"/>
      </g>
     </g>
     <g id="text_2">
      <!-- 0.1 -->
      <defs>
       <path d="M 12.40625 8.296875 
L 28.515625 8.296875 
L 28.515625 63.921875 
L 10.984375 60.40625 
L 10.984375 69.390625 
L 28.421875 72.90625 
L 38.28125 72.90625 
L 38.28125 8.296875 
L 54.390625 8.296875 
L 54.390625 0 
L 12.40625 0 
z
" id="DejaVuSans-49"/>
      </defs>
      <g transform="translate(194.970584 331.118125)scale(0.12 -0.12)">
       <use xlink:href="#DejaVuSans-48"/>
       <use x="63.623047" xlink:href="#DejaVuSans-46"/>
       <use x="95.410156" xlink:href="#DejaVuSans-49"/>
      </g>
     </g>
    </g>
    <g id="xtick_3">
     <g id="line2d_3">
      <g>
       <use style="stroke:#000000;stroke-width:0.8;" x="275.588852" xlink:href="#md5ad8da2f1" y="315"/>
      </g>
     </g>
     <g id="text_3">
      <!-- 0.2 -->
      <defs>
       <path d="M 19.1875 8.296875 
L 53.609375 8.296875 
L 53.609375 0 
L 7.328125 0 
L 7.328125 8.296875 
Q 12.9375 14.109375 22.625 23.890625 
Q 32.328125 33.6875 34.8125 36.53125 
Q 39.546875 41.84375 41.421875 45.53125 
Q 43.3125 49.21875 43.3125 52.78125 
Q 43.3125 58.59375 39.234375 62.25 
Q 35.15625 65.921875 28.609375 65.921875 
Q 23.96875 65.921875 18.8125 64.3125 
Q 13.671875 62.703125 7.8125 59.421875 
L 7.8125 69.390625 
Q 13.765625 71.78125 18.9375 73 
Q 24.125 74.21875 28.421875 74.21875 
Q 39.75 74.21875 46.484375 68.546875 
Q 53.21875 62.890625 53.21875 53.421875 
Q 53.21875 48.921875 51.53125 44.890625 
Q 49.859375 40.875 45.40625 35.40625 
Q 44.1875 33.984375 37.640625 27.21875 
Q 31.109375 20.453125 19.1875 8.296875 
z
" id="DejaVuSans-50"/>
      </defs>
      <g transform="translate(266.046977 331.118125)scale(0.12 -0.12)">
       <use xlink:href="#DejaVuSans-48"/>
       <use x="63.623047" xlink:href="#DejaVuSans-46"/>
       <use x="95.410156" xlink:href="#DejaVuSans-50"/>
      </g>
     </g>
    </g>
    <g id="xtick_4">
     <g id="line2d_4">
      <g>
       <use style="stroke:#000000;stroke-width:0.8;" x="346.665246" xlink:href="#md5ad8da2f1" y="315"/>
      </g>
     </g>
     <g id="text_4">
      <!-- 0.3 -->
      <defs>
       <path d="M 40.578125 39.3125 
Q 47.65625 37.796875 51.625 33 
Q 55.609375 28.21875 55.609375 21.1875 
Q 55.609375 10.40625 48.1875 4.484375 
Q 40.765625 -1.421875 27.09375 -1.421875 
Q 22.515625 -1.421875 17.65625 -0.515625 
Q 12.796875 0.390625 7.625 2.203125 
L 7.625 11.71875 
Q 11.71875 9.328125 16.59375 8.109375 
Q 21.484375 6.890625 26.8125 6.890625 
Q 36.078125 6.890625 40.9375 10.546875 
Q 45.796875 14.203125 45.796875 21.1875 
Q 45.796875 27.640625 41.28125 31.265625 
Q 36.765625 34.90625 28.71875 34.90625 
L 20.21875 34.90625 
L 20.21875 43.015625 
L 29.109375 43.015625 
Q 36.375 43.015625 40.234375 45.921875 
Q 44.09375 48.828125 44.09375 54.296875 
Q 44.09375 59.90625 40.109375 62.90625 
Q 36.140625 65.921875 28.71875 65.921875 
Q 24.65625 65.921875 20.015625 65.03125 
Q 15.375 64.15625 9.8125 62.3125 
L 9.8125 71.09375 
Q 15.4375 72.65625 20.34375 73.4375 
Q 25.25 74.21875 29.59375 74.21875 
Q 40.828125 74.21875 47.359375 69.109375 
Q 53.90625 64.015625 53.90625 55.328125 
Q 53.90625 49.265625 50.4375 45.09375 
Q 46.96875 40.921875 40.578125 39.3125 
z
" id="DejaVuSans-51"/>
      </defs>
      <g transform="translate(337.123371 331.118125)scale(0.12 -0.12)">
       <use xlink:href="#DejaVuSans-48"/>
       <use x="63.623047" xlink:href="#DejaVuSans-46"/>
       <use x="95.410156" xlink:href="#DejaVuSans-51"/>
      </g>
     </g>
    </g>
    <g id="xtick_5">
     <g id="line2d_5">
      <g>
       <use style="stroke:#000000;stroke-width:0.8;" x="417.741639" xlink:href="#md5ad8da2f1" y="315"/>
      </g>
     </g>
     <g id="text_5">
      <!-- 0.4 -->
      <defs>
       <path d="M 37.796875 64.3125 
L 12.890625 25.390625 
L 37.796875 25.390625 
z
M 35.203125 72.90625 
L 47.609375 72.90625 
L 47.609375 25.390625 
L 58.015625 25.390625 
L 58.015625 17.1875 
L 47.609375 17.1875 
L 47.609375 0 
L 37.796875 0 
L 37.796875 17.1875 
L 4.890625 17.1875 
L 4.890625 26.703125 
z
" id="DejaVuSans-52"/>
      </defs>
      <g transform="translate(408.199764 331.118125)scale(0.12 -0.12)">
       <use xlink:href="#DejaVuSans-48"/>
       <use x="63.623047" xlink:href="#DejaVuSans-46"/>
       <use x="95.410156" xlink:href="#DejaVuSans-52"/>
      </g>
     </g>
    </g>
    <g id="text_6">
     <!-- Time (s) -->
     <defs>
      <path d="M -0.296875 72.90625 
L 61.375 72.90625 
L 61.375 64.59375 
L 35.5 64.59375 
L 35.5 0 
L 25.59375 0 
L 25.59375 64.59375 
L -0.296875 64.59375 
z
" id="DejaVuSans-84"/>
      <path d="M 9.421875 54.6875 
L 18.40625 54.6875 
L 18.40625 0 
L 9.421875 0 
z
M 9.421875 75.984375 
L 18.40625 75.984375 
L 18.40625 64.59375 
L 9.421875 64.59375 
z
" id="DejaVuSans-105"/>
      <path d="M 52 44.1875 
Q 55.375 50.25 60.0625 53.125 
Q 64.75 56 71.09375 56 
Q 79.640625 56 84.28125 50.015625 
Q 88.921875 44.046875 88.921875 33.015625 
L 88.921875 0 
L 79.890625 0 
L 79.890625 32.71875 
Q 79.890625 40.578125 77.09375 44.375 
Q 74.3125 48.1875 68.609375 48.1875 
Q 61.625 48.1875 57.5625 43.546875 
Q 53.515625 38.921875 53.515625 30.90625 
L 53.515625 0 
L 44.484375 0 
L 44.484375 32.71875 
Q 44.484375 40.625 41.703125 44.40625 
Q 38.921875 48.1875 33.109375 48.1875 
Q 26.21875 48.1875 22.15625 43.53125 
Q 18.109375 38.875 18.109375 30.90625 
L 18.109375 0 
L 9.078125 0 
L 9.078125 54.6875 
L 18.109375 54.6875 
L 18.109375 46.1875 
Q 21.1875 51.21875 25.484375 53.609375 
Q 29.78125 56 35.6875 56 
Q 41.65625 56 45.828125 52.96875 
Q 50 49.953125 52 44.1875 
z
" id="DejaVuSans-109"/>
      <path d="M 56.203125 29.59375 
L 56.203125 25.203125 
L 14.890625 25.203125 
Q 15.484375 15.921875 20.484375 11.0625 
Q 25.484375 6.203125 34.421875 6.203125 
Q 39.59375 6.203125 44.453125 7.46875 
Q 49.3125 8.734375 54.109375 11.28125 
L 54.109375 2.78125 
Q 49.265625 0.734375 44.1875 -0.34375 
Q 39.109375 -1.421875 33.890625 -1.421875 
Q 20.796875 -1.421875 13.15625 6.1875 
Q 5.515625 13.8125 5.515625 26.8125 
Q 5.515625 40.234375 12.765625 48.109375 
Q 20.015625 56 32.328125 56 
Q 43.359375 56 49.78125 48.890625 
Q 56.203125 41.796875 56.203125 29.59375 
z
M 47.21875 32.234375 
Q 47.125 39.59375 43.09375 43.984375 
Q 39.0625 48.390625 32.421875 48.390625 
Q 24.90625 48.390625 20.390625 44.140625 
Q 15.875 39.890625 15.1875 32.171875 
z
" id="DejaVuSans-101"/>
      <path id="DejaVuSans-32"/>
      <path d="M 31 75.875 
Q 24.46875 64.65625 21.28125 53.65625 
Q 18.109375 42.671875 18.109375 31.390625 
Q 18.109375 20.125 21.3125 9.0625 
Q 24.515625 -2 31 -13.1875 
L 23.1875 -13.1875 
Q 15.875 -1.703125 12.234375 9.375 
Q 8.59375 20.453125 8.59375 31.390625 
Q 8.59375 42.28125 12.203125 53.3125 
Q 15.828125 64.359375 23.1875 75.875 
z
" id="DejaVuSans-40"/>
      <path d="M 44.28125 53.078125 
L 44.28125 44.578125 
Q 40.484375 46.53125 36.375 47.5 
Q 32.28125 48.484375 27.875 48.484375 
Q 21.1875 48.484375 17.84375 46.4375 
Q 14.5 44.390625 14.5 40.28125 
Q 14.5 37.15625 16.890625 35.375 
Q 19.28125 33.59375 26.515625 31.984375 
L 29.59375 31.296875 
Q 39.15625 29.25 43.1875 25.515625 
Q 47.21875 21.78125 47.21875 15.09375 
Q 47.21875 7.46875 41.1875 3.015625 
Q 35.15625 -1.421875 24.609375 -1.421875 
Q 20.21875 -1.421875 15.453125 -0.5625 
Q 10.6875 0.296875 5.421875 2 
L 5.421875 11.28125 
Q 10.40625 8.6875 15.234375 7.390625 
Q 20.0625 6.109375 24.8125 6.109375 
Q 31.15625 6.109375 34.5625 8.28125 
Q 37.984375 10.453125 37.984375 14.40625 
Q 37.984375 18.0625 35.515625 20.015625 
Q 33.0625 21.96875 24.703125 23.78125 
L 21.578125 24.515625 
Q 13.234375 26.265625 9.515625 29.90625 
Q 5.8125 33.546875 5.8125 39.890625 
Q 5.8125 47.609375 11.28125 51.796875 
Q 16.75 56 26.8125 56 
Q 31.78125 56 36.171875 55.265625 
Q 40.578125 54.546875 44.28125 53.078125 
z
" id="DejaVuSans-115"/>
      <path d="M 8.015625 75.875 
L 15.828125 75.875 
Q 23.140625 64.359375 26.78125 53.3125 
Q 30.421875 42.28125 30.421875 31.390625 
Q 30.421875 20.453125 26.78125 9.375 
Q 23.140625 -1.703125 15.828125 -13.1875 
L 8.015625 -13.1875 
Q 14.5 -2 17.703125 9.0625 
Q 20.90625 20.125 20.90625 31.390625 
Q 20.90625 42.671875 17.703125 53.65625 
Q 14.5 64.65625 8.015625 75.875 
z
" id="DejaVuSans-41"/>
     </defs>
     <g transform="translate(233.720625 340.925)scale(0.12 -0.12)">
      <use xlink:href="#DejaVuSans-84"/>
      <use x="61.037109" xlink:href="#DejaVuSans-105"/>
      <use x="88.820312" xlink:href="#DejaVuSans-109"/>
      <use x="186.232422" xlink:href="#DejaVuSans-101"/>
      <use x="247.755859" xlink:href="#DejaVuSans-32"/>
      <use x="279.542969" xlink:href="#DejaVuSans-40"/>
      <use x="318.556641" xlink:href="#DejaVuSans-115"/>
      <use x="370.65625" xlink:href="#DejaVuSans-41"/>
     </g>
    </g>
   </g>
   <g id="matplotlib.axis_2">
    <g id="ytick_1">
     <g id="line2d_6">
      <defs>
       <path d="M 0 0 
L -3.5 0 
" id="mef237002fc" style="stroke:#000000;stroke-width:0.8;"/>
      </defs>
      <g>
       <use style="stroke:#000000;stroke-width:0.8;" x="63" xlink:href="#mef237002fc" y="305.695129"/>
      </g>
     </g>
     <g id="text_7">
      <!-- -5 -->
      <defs>
       <path d="M 4.890625 31.390625 
L 31.203125 31.390625 
L 31.203125 23.390625 
L 4.890625 23.390625 
z
" id="DejaVuSans-45"/>
       <path d="M 10.796875 72.90625 
L 49.515625 72.90625 
L 49.515625 64.59375 
L 19.828125 64.59375 
L 19.828125 46.734375 
Q 21.96875 47.46875 24.109375 47.828125 
Q 26.265625 48.1875 28.421875 48.1875 
Q 40.625 48.1875 47.75 41.5 
Q 54.890625 34.8125 54.890625 23.390625 
Q 54.890625 11.625 47.5625 5.09375 
Q 40.234375 -1.421875 26.90625 -1.421875 
Q 22.3125 -1.421875 17.546875 -0.640625 
Q 12.796875 0.140625 7.71875 1.703125 
L 7.71875 11.625 
Q 12.109375 9.234375 16.796875 8.0625 
Q 21.484375 6.890625 26.703125 6.890625 
Q 35.15625 6.890625 40.078125 11.328125 
Q 45.015625 15.765625 45.015625 23.390625 
Q 45.015625 31 40.078125 35.4375 
Q 35.15625 39.890625 26.703125 39.890625 
Q 22.75 39.890625 18.8125 39.015625 
Q 14.890625 38.140625 10.796875 36.28125 
z
" id="DejaVuSans-53"/>
      </defs>
      <g transform="translate(44.035625 310.254192)scale(0.12 -0.12)">
       <use xlink:href="#DejaVuSans-45"/>
       <use x="36.083984" xlink:href="#DejaVuSans-53"/>
      </g>
     </g>
    </g>
    <g id="ytick_2">
     <g id="line2d_7">
      <g>
       <use style="stroke:#000000;stroke-width:0.8;" x="63" xlink:href="#mef237002fc" y="275.281296"/>
      </g>
     </g>
     <g id="text_8">
      <!-- -4 -->
      <g transform="translate(44.035625 279.840358)scale(0.12 -0.12)">
       <use xlink:href="#DejaVuSans-45"/>
       <use x="36.083984" xlink:href="#DejaVuSans-52"/>
      </g>
     </g>
    </g>
    <g id="ytick_3">
     <g id="line2d_8">
      <g>
       <use style="stroke:#000000;stroke-width:0.8;" x="63" xlink:href="#mef237002fc" y="244.867462"/>
      </g>
     </g>
     <g id="text_9">
      <!-- -3 -->
      <g transform="translate(44.035625 249.426524)scale(0.12 -0.12)">
       <use xlink:href="#DejaVuSans-45"/>
       <use x="36.083984" xlink:href="#DejaVuSans-51"/>
      </g>
     </g>
    </g>
    <g id="ytick_4">
     <g id="line2d_9">
      <g>
       <use style="stroke:#000000;stroke-width:0.8;" x="63" xlink:href="#mef237002fc" y="214.453628"/>
      </g>
     </g>
     <g id="text_10">
      <!-- -2 -->
      <g transform="translate(44.035625 219.012691)scale(0.12 -0.12)">
       <use xlink:href="#DejaVuSans-45"/>
       <use x="36.083984" xlink:href="#DejaVuSans-50"/>
      </g>
     </g>
    </g>
    <g id="ytick_5">
     <g id="line2d_10">
      <g>
       <use style="stroke:#000000;stroke-width:0.8;" x="63" xlink:href="#mef237002fc" y="184.039795"/>
      </g>
     </g>
     <g id="text_11">
      <!-- -1 -->
      <g transform="translate(44.035625 188.598857)scale(0.12 -0.12)">
       <use xlink:href="#DejaVuSans-45"/>
       <use x="36.083984" xlink:href="#DejaVuSans-49"/>
      </g>
     </g>
    </g>
    <g id="ytick_6">
     <g id="line2d_11">
      <g>
       <use style="stroke:#000000;stroke-width:0.8;" x="63" xlink:href="#mef237002fc" y="153.625961"/>
      </g>
     </g>
     <g id="text_12">
      <!-- 0 -->
      <g transform="translate(48.365 158.185023)scale(0.12 -0.12)">
       <use xlink:href="#DejaVuSans-48"/>
      </g>
     </g>
    </g>
    <g id="ytick_7">
     <g id="line2d_12">
      <g>
       <use style="stroke:#000000;stroke-width:0.8;" x="63" xlink:href="#mef237002fc" y="123.212127"/>
      </g>
     </g>
     <g id="text_13">
      <!-- 1 -->
      <g transform="translate(48.365 127.77119)scale(0.12 -0.12)">
       <use xlink:href="#DejaVuSans-49"/>
      </g>
     </g>
    </g>
    <g id="ytick_8">
     <g id="line2d_13">
      <g>
       <use style="stroke:#000000;stroke-width:0.8;" x="63" xlink:href="#mef237002fc" y="92.798294"/>
      </g>
     </g>
     <g id="text_14">
      <!-- 2 -->
      <g transform="translate(48.365 97.357356)scale(0.12 -0.12)">
       <use xlink:href="#DejaVuSans-50"/>
      </g>
     </g>
    </g>
    <g id="ytick_9">
     <g id="line2d_14">
      <g>
       <use style="stroke:#000000;stroke-width:0.8;" x="63" xlink:href="#mef237002fc" y="62.38446"/>
      </g>
     </g>
     <g id="text_15">
      <!-- 3 -->
      <g transform="translate(48.365 66.943522)scale(0.12 -0.12)">
       <use xlink:href="#DejaVuSans-51"/>
      </g>
     </g>
    </g>
    <g id="text_16">
     <!-- uV -->
     <defs>
      <path d="M 8.5 21.578125 
L 8.5 54.6875 
L 17.484375 54.6875 
L 17.484375 21.921875 
Q 17.484375 14.15625 20.5 10.265625 
Q 23.53125 6.390625 29.59375 6.390625 
Q 36.859375 6.390625 41.078125 11.03125 
Q 45.3125 15.671875 45.3125 23.6875 
L 45.3125 54.6875 
L 54.296875 54.6875 
L 54.296875 0 
L 45.3125 0 
L 45.3125 8.40625 
Q 42.046875 3.421875 37.71875 1 
Q 33.40625 -1.421875 27.6875 -1.421875 
Q 18.265625 -1.421875 13.375 4.4375 
Q 8.5 10.296875 8.5 21.578125 
z
M 31.109375 56 
z
" id="DejaVuSans-117"/>
      <path d="M 28.609375 0 
L 0.78125 72.90625 
L 11.078125 72.90625 
L 34.1875 11.53125 
L 57.328125 72.90625 
L 67.578125 72.90625 
L 39.796875 0 
z
" id="DejaVuSans-86"/>
     </defs>
     <g transform="translate(27.537 161.532836)rotate(-90)scale(0.12 -0.12)">
      <use xlink:href="#DejaVuSans-117"/>
      <use x="63.378906" xlink:href="#DejaVuSans-86"/>
     </g>
     <!--  -->
     <g transform="translate(40.974375 153.625961)rotate(-90)scale(0.12 -0.12)"/>
    </g>
   </g>
   <g id="patch_4">
    <path d="M 453.6 315 
L 453.6 43.2 
" style="fill:none;"/>
   </g>
   <g id="patch_5">
    <path d="M 133.436066 315 
L 417.741639 315 
" style="fill:none;stroke:#000000;stroke-linecap:square;stroke-linejoin:miter;stroke-width:0.8;"/>
   </g>
   <g id="patch_6">
    <path d="M 63 153.625961 
L 453.6 153.625961 
" style="fill:none;stroke:#000000;stroke-linecap:square;stroke-linejoin:miter;stroke-width:0.8;"/>
   </g>
   <g id="legend_1">
    <g id="patch_7">
     <path d="M 71.4 309 
L 274.30125 309 
Q 276.70125 309 276.70125 306.6 
L 276.70125 237.345 
Q 276.70125 234.945 274.30125 234.945 
L 71.4 234.945 
Q 69 234.945 69 237.345 
L 69 306.6 
Q 69 309 71.4 309 
z
" style="fill:#ffffff;opacity:0.8;stroke:#cccccc;stroke-linejoin:miter;"/>
    </g>
    <g id="line2d_15">
     <path d="M 73.8 244.663125 
L 97.8 244.663125 
" style="fill:none;stroke:#ff8c00;stroke-linecap:square;stroke-width:1.5;"/>
    </g>
    <g id="line2d_16"/>
    <g id="text_17">
     <!-- Oddball / Breath Focus -->
     <defs>
      <path d="M 39.40625 66.21875 
Q 28.65625 66.21875 22.328125 58.203125 
Q 16.015625 50.203125 16.015625 36.375 
Q 16.015625 22.609375 22.328125 14.59375 
Q 28.65625 6.59375 39.40625 6.59375 
Q 50.140625 6.59375 56.421875 14.59375 
Q 62.703125 22.609375 62.703125 36.375 
Q 62.703125 50.203125 56.421875 58.203125 
Q 50.140625 66.21875 39.40625 66.21875 
z
M 39.40625 74.21875 
Q 54.734375 74.21875 63.90625 63.9375 
Q 73.09375 53.65625 73.09375 36.375 
Q 73.09375 19.140625 63.90625 8.859375 
Q 54.734375 -1.421875 39.40625 -1.421875 
Q 24.03125 -1.421875 14.8125 8.828125 
Q 5.609375 19.09375 5.609375 36.375 
Q 5.609375 53.65625 14.8125 63.9375 
Q 24.03125 74.21875 39.40625 74.21875 
z
" id="DejaVuSans-79"/>
      <path d="M 45.40625 46.390625 
L 45.40625 75.984375 
L 54.390625 75.984375 
L 54.390625 0 
L 45.40625 0 
L 45.40625 8.203125 
Q 42.578125 3.328125 38.25 0.953125 
Q 33.9375 -1.421875 27.875 -1.421875 
Q 17.96875 -1.421875 11.734375 6.484375 
Q 5.515625 14.40625 5.515625 27.296875 
Q 5.515625 40.1875 11.734375 48.09375 
Q 17.96875 56 27.875 56 
Q 33.9375 56 38.25 53.625 
Q 42.578125 51.265625 45.40625 46.390625 
z
M 14.796875 27.296875 
Q 14.796875 17.390625 18.875 11.75 
Q 22.953125 6.109375 30.078125 6.109375 
Q 37.203125 6.109375 41.296875 11.75 
Q 45.40625 17.390625 45.40625 27.296875 
Q 45.40625 37.203125 41.296875 42.84375 
Q 37.203125 48.484375 30.078125 48.484375 
Q 22.953125 48.484375 18.875 42.84375 
Q 14.796875 37.203125 14.796875 27.296875 
z
" id="DejaVuSans-100"/>
      <path d="M 48.6875 27.296875 
Q 48.6875 37.203125 44.609375 42.84375 
Q 40.53125 48.484375 33.40625 48.484375 
Q 26.265625 48.484375 22.1875 42.84375 
Q 18.109375 37.203125 18.109375 27.296875 
Q 18.109375 17.390625 22.1875 11.75 
Q 26.265625 6.109375 33.40625 6.109375 
Q 40.53125 6.109375 44.609375 11.75 
Q 48.6875 17.390625 48.6875 27.296875 
z
M 18.109375 46.390625 
Q 20.953125 51.265625 25.265625 53.625 
Q 29.59375 56 35.59375 56 
Q 45.5625 56 51.78125 48.09375 
Q 58.015625 40.1875 58.015625 27.296875 
Q 58.015625 14.40625 51.78125 6.484375 
Q 45.5625 -1.421875 35.59375 -1.421875 
Q 29.59375 -1.421875 25.265625 0.953125 
Q 20.953125 3.328125 18.109375 8.203125 
L 18.109375 0 
L 9.078125 0 
L 9.078125 75.984375 
L 18.109375 75.984375 
z
" id="DejaVuSans-98"/>
      <path d="M 34.28125 27.484375 
Q 23.390625 27.484375 19.1875 25 
Q 14.984375 22.515625 14.984375 16.5 
Q 14.984375 11.71875 18.140625 8.90625 
Q 21.296875 6.109375 26.703125 6.109375 
Q 34.1875 6.109375 38.703125 11.40625 
Q 43.21875 16.703125 43.21875 25.484375 
L 43.21875 27.484375 
z
M 52.203125 31.203125 
L 52.203125 0 
L 43.21875 0 
L 43.21875 8.296875 
Q 40.140625 3.328125 35.546875 0.953125 
Q 30.953125 -1.421875 24.3125 -1.421875 
Q 15.921875 -1.421875 10.953125 3.296875 
Q 6 8.015625 6 15.921875 
Q 6 25.140625 12.171875 29.828125 
Q 18.359375 34.515625 30.609375 34.515625 
L 43.21875 34.515625 
L 43.21875 35.40625 
Q 43.21875 41.609375 39.140625 45 
Q 35.0625 48.390625 27.6875 48.390625 
Q 23 48.390625 18.546875 47.265625 
Q 14.109375 46.140625 10.015625 43.890625 
L 10.015625 52.203125 
Q 14.9375 54.109375 19.578125 55.046875 
Q 24.21875 56 28.609375 56 
Q 40.484375 56 46.34375 49.84375 
Q 52.203125 43.703125 52.203125 31.203125 
z
" id="DejaVuSans-97"/>
      <path d="M 9.421875 75.984375 
L 18.40625 75.984375 
L 18.40625 0 
L 9.421875 0 
z
" id="DejaVuSans-108"/>
      <path d="M 25.390625 72.90625 
L 33.6875 72.90625 
L 8.296875 -9.28125 
L 0 -9.28125 
z
" id="DejaVuSans-47"/>
      <path d="M 19.671875 34.8125 
L 19.671875 8.109375 
L 35.5 8.109375 
Q 43.453125 8.109375 47.28125 11.40625 
Q 51.125 14.703125 51.125 21.484375 
Q 51.125 28.328125 47.28125 31.5625 
Q 43.453125 34.8125 35.5 34.8125 
z
M 19.671875 64.796875 
L 19.671875 42.828125 
L 34.28125 42.828125 
Q 41.5 42.828125 45.03125 45.53125 
Q 48.578125 48.25 48.578125 53.8125 
Q 48.578125 59.328125 45.03125 62.0625 
Q 41.5 64.796875 34.28125 64.796875 
z
M 9.8125 72.90625 
L 35.015625 72.90625 
Q 46.296875 72.90625 52.390625 68.21875 
Q 58.5 63.53125 58.5 54.890625 
Q 58.5 48.1875 55.375 44.234375 
Q 52.25 40.28125 46.1875 39.3125 
Q 53.46875 37.75 57.5 32.78125 
Q 61.53125 27.828125 61.53125 20.40625 
Q 61.53125 10.640625 54.890625 5.3125 
Q 48.25 0 35.984375 0 
L 9.8125 0 
z
" id="DejaVuSans-66"/>
      <path d="M 41.109375 46.296875 
Q 39.59375 47.171875 37.8125 47.578125 
Q 36.03125 48 33.890625 48 
Q 26.265625 48 22.1875 43.046875 
Q 18.109375 38.09375 18.109375 28.8125 
L 18.109375 0 
L 9.078125 0 
L 9.078125 54.6875 
L 18.109375 54.6875 
L 18.109375 46.1875 
Q 20.953125 51.171875 25.484375 53.578125 
Q 30.03125 56 36.53125 56 
Q 37.453125 56 38.578125 55.875 
Q 39.703125 55.765625 41.0625 55.515625 
z
" id="DejaVuSans-114"/>
      <path d="M 18.3125 70.21875 
L 18.3125 54.6875 
L 36.8125 54.6875 
L 36.8125 47.703125 
L 18.3125 47.703125 
L 18.3125 18.015625 
Q 18.3125 11.328125 20.140625 9.421875 
Q 21.96875 7.515625 27.59375 7.515625 
L 36.8125 7.515625 
L 36.8125 0 
L 27.59375 0 
Q 17.1875 0 13.234375 3.875 
Q 9.28125 7.765625 9.28125 18.015625 
L 9.28125 47.703125 
L 2.6875 47.703125 
L 2.6875 54.6875 
L 9.28125 54.6875 
L 9.28125 70.21875 
z
" id="DejaVuSans-116"/>
      <path d="M 54.890625 33.015625 
L 54.890625 0 
L 45.90625 0 
L 45.90625 32.71875 
Q 45.90625 40.484375 42.875 44.328125 
Q 39.84375 48.1875 33.796875 48.1875 
Q 26.515625 48.1875 22.3125 43.546875 
Q 18.109375 38.921875 18.109375 30.90625 
L 18.109375 0 
L 9.078125 0 
L 9.078125 75.984375 
L 18.109375 75.984375 
L 18.109375 46.1875 
Q 21.34375 51.125 25.703125 53.5625 
Q 30.078125 56 35.796875 56 
Q 45.21875 56 50.046875 50.171875 
Q 54.890625 44.34375 54.890625 33.015625 
z
" id="DejaVuSans-104"/>
      <path d="M 9.8125 72.90625 
L 51.703125 72.90625 
L 51.703125 64.59375 
L 19.671875 64.59375 
L 19.671875 43.109375 
L 48.578125 43.109375 
L 48.578125 34.8125 
L 19.671875 34.8125 
L 19.671875 0 
L 9.8125 0 
z
" id="DejaVuSans-70"/>
      <path d="M 30.609375 48.390625 
Q 23.390625 48.390625 19.1875 42.75 
Q 14.984375 37.109375 14.984375 27.296875 
Q 14.984375 17.484375 19.15625 11.84375 
Q 23.34375 6.203125 30.609375 6.203125 
Q 37.796875 6.203125 41.984375 11.859375 
Q 46.1875 17.53125 46.1875 27.296875 
Q 46.1875 37.015625 41.984375 42.703125 
Q 37.796875 48.390625 30.609375 48.390625 
z
M 30.609375 56 
Q 42.328125 56 49.015625 48.375 
Q 55.71875 40.765625 55.71875 27.296875 
Q 55.71875 13.875 49.015625 6.21875 
Q 42.328125 -1.421875 30.609375 -1.421875 
Q 18.84375 -1.421875 12.171875 6.21875 
Q 5.515625 13.875 5.515625 27.296875 
Q 5.515625 40.765625 12.171875 48.375 
Q 18.84375 56 30.609375 56 
z
" id="DejaVuSans-111"/>
      <path d="M 48.78125 52.59375 
L 48.78125 44.1875 
Q 44.96875 46.296875 41.140625 47.34375 
Q 37.3125 48.390625 33.40625 48.390625 
Q 24.65625 48.390625 19.8125 42.84375 
Q 14.984375 37.3125 14.984375 27.296875 
Q 14.984375 17.28125 19.8125 11.734375 
Q 24.65625 6.203125 33.40625 6.203125 
Q 37.3125 6.203125 41.140625 7.25 
Q 44.96875 8.296875 48.78125 10.40625 
L 48.78125 2.09375 
Q 45.015625 0.34375 40.984375 -0.53125 
Q 36.96875 -1.421875 32.421875 -1.421875 
Q 20.0625 -1.421875 12.78125 6.34375 
Q 5.515625 14.109375 5.515625 27.296875 
Q 5.515625 40.671875 12.859375 48.328125 
Q 20.21875 56 33.015625 56 
Q 37.15625 56 41.109375 55.140625 
Q 45.0625 54.296875 48.78125 52.59375 
z
" id="DejaVuSans-99"/>
     </defs>
     <g transform="translate(107.4 248.863125)scale(0.12 -0.12)">
      <use xlink:href="#DejaVuSans-79"/>
      <use x="78.710938" xlink:href="#DejaVuSans-100"/>
      <use x="142.1875" xlink:href="#DejaVuSans-100"/>
      <use x="205.664062" xlink:href="#DejaVuSans-98"/>
      <use x="269.140625" xlink:href="#DejaVuSans-97"/>
      <use x="330.419922" xlink:href="#DejaVuSans-108"/>
      <use x="358.203125" xlink:href="#DejaVuSans-108"/>
      <use x="385.986328" xlink:href="#DejaVuSans-32"/>
      <use x="417.773438" xlink:href="#DejaVuSans-47"/>
      <use x="451.464844" xlink:href="#DejaVuSans-32"/>
      <use x="483.251953" xlink:href="#DejaVuSans-66"/>
      <use x="551.855469" xlink:href="#DejaVuSans-114"/>
      <use x="592.9375" xlink:href="#DejaVuSans-101"/>
      <use x="654.460938" xlink:href="#DejaVuSans-97"/>
      <use x="715.740234" xlink:href="#DejaVuSans-116"/>
      <use x="754.949219" xlink:href="#DejaVuSans-104"/>
      <use x="818.328125" xlink:href="#DejaVuSans-32"/>
      <use x="850.115234" xlink:href="#DejaVuSans-70"/>
      <use x="907.587891" xlink:href="#DejaVuSans-111"/>
      <use x="968.769531" xlink:href="#DejaVuSans-99"/>
      <use x="1023.75" xlink:href="#DejaVuSans-117"/>
      <use x="1087.128906" xlink:href="#DejaVuSans-115"/>
     </g>
    </g>
    <g id="line2d_17">
     <path d="M 73.8 262.276875 
L 97.8 262.276875 
" style="fill:none;stroke:#9467bd;stroke-linecap:square;stroke-width:1.5;"/>
    </g>
    <g id="line2d_18"/>
    <g id="text_18">
     <!-- Oddball / Mind Wandering -->
     <defs>
      <path d="M 9.8125 72.90625 
L 24.515625 72.90625 
L 43.109375 23.296875 
L 61.8125 72.90625 
L 76.515625 72.90625 
L 76.515625 0 
L 66.890625 0 
L 66.890625 64.015625 
L 48.09375 14.015625 
L 38.1875 14.015625 
L 19.390625 64.015625 
L 19.390625 0 
L 9.8125 0 
z
" id="DejaVuSans-77"/>
      <path d="M 54.890625 33.015625 
L 54.890625 0 
L 45.90625 0 
L 45.90625 32.71875 
Q 45.90625 40.484375 42.875 44.328125 
Q 39.84375 48.1875 33.796875 48.1875 
Q 26.515625 48.1875 22.3125 43.546875 
Q 18.109375 38.921875 18.109375 30.90625 
L 18.109375 0 
L 9.078125 0 
L 9.078125 54.6875 
L 18.109375 54.6875 
L 18.109375 46.1875 
Q 21.34375 51.125 25.703125 53.5625 
Q 30.078125 56 35.796875 56 
Q 45.21875 56 50.046875 50.171875 
Q 54.890625 44.34375 54.890625 33.015625 
z
" id="DejaVuSans-110"/>
      <path d="M 3.328125 72.90625 
L 13.28125 72.90625 
L 28.609375 11.28125 
L 43.890625 72.90625 
L 54.984375 72.90625 
L 70.3125 11.28125 
L 85.59375 72.90625 
L 95.609375 72.90625 
L 77.296875 0 
L 64.890625 0 
L 49.515625 63.28125 
L 33.984375 0 
L 21.578125 0 
z
" id="DejaVuSans-87"/>
      <path d="M 45.40625 27.984375 
Q 45.40625 37.75 41.375 43.109375 
Q 37.359375 48.484375 30.078125 48.484375 
Q 22.859375 48.484375 18.828125 43.109375 
Q 14.796875 37.75 14.796875 27.984375 
Q 14.796875 18.265625 18.828125 12.890625 
Q 22.859375 7.515625 30.078125 7.515625 
Q 37.359375 7.515625 41.375 12.890625 
Q 45.40625 18.265625 45.40625 27.984375 
z
M 54.390625 6.78125 
Q 54.390625 -7.171875 48.1875 -13.984375 
Q 42 -20.796875 29.203125 -20.796875 
Q 24.46875 -20.796875 20.265625 -20.09375 
Q 16.0625 -19.390625 12.109375 -17.921875 
L 12.109375 -9.1875 
Q 16.0625 -11.328125 19.921875 -12.34375 
Q 23.78125 -13.375 27.78125 -13.375 
Q 36.625 -13.375 41.015625 -8.765625 
Q 45.40625 -4.15625 45.40625 5.171875 
L 45.40625 9.625 
Q 42.625 4.78125 38.28125 2.390625 
Q 33.9375 0 27.875 0 
Q 17.828125 0 11.671875 7.65625 
Q 5.515625 15.328125 5.515625 27.984375 
Q 5.515625 40.671875 11.671875 48.328125 
Q 17.828125 56 27.875 56 
Q 33.9375 56 38.28125 53.609375 
Q 42.625 51.21875 45.40625 46.390625 
L 45.40625 54.6875 
L 54.390625 54.6875 
z
" id="DejaVuSans-103"/>
     </defs>
     <g transform="translate(107.4 266.476875)scale(0.12 -0.12)">
      <use xlink:href="#DejaVuSans-79"/>
      <use x="78.710938" xlink:href="#DejaVuSans-100"/>
      <use x="142.1875" xlink:href="#DejaVuSans-100"/>
      <use x="205.664062" xlink:href="#DejaVuSans-98"/>
      <use x="269.140625" xlink:href="#DejaVuSans-97"/>
      <use x="330.419922" xlink:href="#DejaVuSans-108"/>
      <use x="358.203125" xlink:href="#DejaVuSans-108"/>
      <use x="385.986328" xlink:href="#DejaVuSans-32"/>
      <use x="417.773438" xlink:href="#DejaVuSans-47"/>
      <use x="451.464844" xlink:href="#DejaVuSans-32"/>
      <use x="483.251953" xlink:href="#DejaVuSans-77"/>
      <use x="569.53125" xlink:href="#DejaVuSans-105"/>
      <use x="597.314453" xlink:href="#DejaVuSans-110"/>
      <use x="660.693359" xlink:href="#DejaVuSans-100"/>
      <use x="724.169922" xlink:href="#DejaVuSans-32"/>
      <use x="755.957031" xlink:href="#DejaVuSans-87"/>
      <use x="854.740234" xlink:href="#DejaVuSans-97"/>
      <use x="916.019531" xlink:href="#DejaVuSans-110"/>
      <use x="979.398438" xlink:href="#DejaVuSans-100"/>
      <use x="1042.875" xlink:href="#DejaVuSans-101"/>
      <use x="1104.398438" xlink:href="#DejaVuSans-114"/>
      <use x="1145.511719" xlink:href="#DejaVuSans-105"/>
      <use x="1173.294922" xlink:href="#DejaVuSans-110"/>
      <use x="1236.673828" xlink:href="#DejaVuSans-103"/>
     </g>
    </g>
    <g id="line2d_19">
     <path d="M 73.8 279.890625 
L 97.8 279.890625 
" style="fill:none;stroke:#32cd32;stroke-linecap:square;stroke-width:1.5;"/>
    </g>
    <g id="line2d_20"/>
    <g id="text_19">
     <!-- Standard / Breath Focus -->
     <defs>
      <path d="M 53.515625 70.515625 
L 53.515625 60.890625 
Q 47.90625 63.578125 42.921875 64.890625 
Q 37.9375 66.21875 33.296875 66.21875 
Q 25.25 66.21875 20.875 63.09375 
Q 16.5 59.96875 16.5 54.203125 
Q 16.5 49.359375 19.40625 46.890625 
Q 22.3125 44.4375 30.421875 42.921875 
L 36.375 41.703125 
Q 47.40625 39.59375 52.65625 34.296875 
Q 57.90625 29 57.90625 20.125 
Q 57.90625 9.515625 50.796875 4.046875 
Q 43.703125 -1.421875 29.984375 -1.421875 
Q 24.8125 -1.421875 18.96875 -0.25 
Q 13.140625 0.921875 6.890625 3.21875 
L 6.890625 13.375 
Q 12.890625 10.015625 18.65625 8.296875 
Q 24.421875 6.59375 29.984375 6.59375 
Q 38.421875 6.59375 43.015625 9.90625 
Q 47.609375 13.234375 47.609375 19.390625 
Q 47.609375 24.75 44.3125 27.78125 
Q 41.015625 30.8125 33.5 32.328125 
L 27.484375 33.5 
Q 16.453125 35.6875 11.515625 40.375 
Q 6.59375 45.0625 6.59375 53.421875 
Q 6.59375 63.09375 13.40625 68.65625 
Q 20.21875 74.21875 32.171875 74.21875 
Q 37.3125 74.21875 42.625 73.28125 
Q 47.953125 72.359375 53.515625 70.515625 
z
" id="DejaVuSans-83"/>
     </defs>
     <g transform="translate(107.4 284.090625)scale(0.12 -0.12)">
      <use xlink:href="#DejaVuSans-83"/>
      <use x="63.476562" xlink:href="#DejaVuSans-116"/>
      <use x="102.685547" xlink:href="#DejaVuSans-97"/>
      <use x="163.964844" xlink:href="#DejaVuSans-110"/>
      <use x="227.34375" xlink:href="#DejaVuSans-100"/>
      <use x="290.820312" xlink:href="#DejaVuSans-97"/>
      <use x="352.099609" xlink:href="#DejaVuSans-114"/>
      <use x="393.197266" xlink:href="#DejaVuSans-100"/>
      <use x="456.673828" xlink:href="#DejaVuSans-32"/>
      <use x="488.460938" xlink:href="#DejaVuSans-47"/>
      <use x="522.152344" xlink:href="#DejaVuSans-32"/>
      <use x="553.939453" xlink:href="#DejaVuSans-66"/>
      <use x="622.542969" xlink:href="#DejaVuSans-114"/>
      <use x="663.625" xlink:href="#DejaVuSans-101"/>
      <use x="725.148438" xlink:href="#DejaVuSans-97"/>
      <use x="786.427734" xlink:href="#DejaVuSans-116"/>
      <use x="825.636719" xlink:href="#DejaVuSans-104"/>
      <use x="889.015625" xlink:href="#DejaVuSans-32"/>
      <use x="920.802734" xlink:href="#DejaVuSans-70"/>
      <use x="978.275391" xlink:href="#DejaVuSans-111"/>
      <use x="1039.457031" xlink:href="#DejaVuSans-99"/>
      <use x="1094.4375" xlink:href="#DejaVuSans-117"/>
      <use x="1157.816406" xlink:href="#DejaVuSans-115"/>
     </g>
    </g>
    <g id="line2d_21">
     <path d="M 73.8 297.504375 
L 97.8 297.504375 
" style="fill:none;stroke:#1f77b4;stroke-linecap:square;stroke-width:1.5;"/>
    </g>
    <g id="line2d_22"/>
    <g id="text_20">
     <!-- Standard / Mind Wandering -->
     <g transform="translate(107.4 301.704375)scale(0.12 -0.12)">
      <use xlink:href="#DejaVuSans-83"/>
      <use x="63.476562" xlink:href="#DejaVuSans-116"/>
      <use x="102.685547" xlink:href="#DejaVuSans-97"/>
      <use x="163.964844" xlink:href="#DejaVuSans-110"/>
      <use x="227.34375" xlink:href="#DejaVuSans-100"/>
      <use x="290.820312" xlink:href="#DejaVuSans-97"/>
      <use x="352.099609" xlink:href="#DejaVuSans-114"/>
      <use x="393.197266" xlink:href="#DejaVuSans-100"/>
      <use x="456.673828" xlink:href="#DejaVuSans-32"/>
      <use x="488.460938" xlink:href="#DejaVuSans-47"/>
      <use x="522.152344" xlink:href="#DejaVuSans-32"/>
      <use x="553.939453" xlink:href="#DejaVuSans-77"/>
      <use x="640.21875" xlink:href="#DejaVuSans-105"/>
      <use x="668.001953" xlink:href="#DejaVuSans-110"/>
      <use x="731.380859" xlink:href="#DejaVuSans-100"/>
      <use x="794.857422" xlink:href="#DejaVuSans-32"/>
      <use x="826.644531" xlink:href="#DejaVuSans-87"/>
      <use x="925.427734" xlink:href="#DejaVuSans-97"/>
      <use x="986.707031" xlink:href="#DejaVuSans-110"/>
      <use x="1050.085938" xlink:href="#DejaVuSans-100"/>
      <use x="1113.5625" xlink:href="#DejaVuSans-101"/>
      <use x="1175.085938" xlink:href="#DejaVuSans-114"/>
      <use x="1216.199219" xlink:href="#DejaVuSans-105"/>
      <use x="1243.982422" xlink:href="#DejaVuSans-110"/>
      <use x="1307.361328" xlink:href="#DejaVuSans-103"/>
     </g>
    </g>
   </g>
   <g id="PolyCollection_1">
    <defs>
     <path d="M 63 -232.131315 
L 63 -232.131315 
L 66.201639 -246.682902 
L 69.403279 -248.284145 
L 72.604918 -241.446943 
L 75.806557 -234.652946 
L 79.008197 -234.147033 
L 82.209836 -241.218006 
L 85.411475 -252.650636 
L 88.613115 -262.469024 
L 91.814754 -265.21772 
L 95.016393 -258.981459 
L 98.218033 -246.556601 
L 101.419672 -233.867702 
L 104.621311 -226.351432 
L 107.822951 -225.846395 
L 111.02459 -230.719891 
L 114.22623 -237.46642 
L 117.427869 -241.608358 
L 120.629508 -239.510201 
L 123.831148 -230.832374 
L 127.032787 -219.495582 
L 130.234426 -211.66046 
L 133.436066 -211.745794 
L 136.637705 -219.166599 
L 139.839344 -228.682493 
L 143.040984 -233.514822 
L 146.242623 -228.552955 
L 149.444262 -213.26209 
L 152.645902 -193.377787 
L 155.847541 -178.589515 
L 159.04918 -176.726955 
L 162.25082 -188.495733 
L 165.452459 -206.358782 
L 168.654098 -219.313813 
L 171.855738 -219.860916 
L 175.057377 -208.017475 
L 178.259016 -190.883931 
L 181.460656 -179.036865 
L 184.662295 -180.44611 
L 187.863934 -194.874716 
L 191.065574 -213.83253 
L 194.267213 -226.116441 
L 197.468852 -225.899891 
L 200.670492 -216.946343 
L 203.872131 -209.737652 
L 207.07377 -213.969229 
L 210.27541 -232.87914 
L 213.477049 -261.501793 
L 216.678689 -288.93347 
L 219.880328 -304.445455 
L 223.081967 -303.678097 
L 226.283607 -290.726011 
L 229.485246 -274.685457 
L 232.686885 -263.049885 
L 235.888525 -257.101374 
L 239.090164 -253.115574 
L 242.291803 -246.76966 
L 245.493443 -235.975331 
L 248.695082 -221.997412 
L 251.896721 -208.780807 
L 255.098361 -200.814063 
L 258.3 -200.548063 
L 261.501639 -206.812634 
L 264.703279 -215.204722 
L 267.904918 -220.80262 
L 271.106557 -220.599852 
L 274.308197 -213.553282 
L 277.509836 -200.378175 
L 280.711475 -184.394482 
L 283.913115 -170.959826 
L 287.114754 -164.651536 
L 290.316393 -166.130317 
L 293.518033 -170.9277 
L 296.719672 -172.343115 
L 299.921311 -165.925814 
L 303.122951 -152.039666 
L 306.32459 -135.74556 
L 309.52623 -124.580314 
L 312.727869 -124.182419 
L 315.929508 -133.961725 
L 319.131148 -147.129393 
L 322.332787 -155.415009 
L 325.534426 -155.733155 
L 328.736066 -152.963395 
L 331.937705 -156.420602 
L 335.139344 -172.746644 
L 338.340984 -201.762727 
L 341.542623 -236.376143 
L 344.744262 -265.71421 
L 347.945902 -280.961381 
L 351.147541 -280.186652 
L 354.34918 -269.059385 
L 357.55082 -256.862962 
L 360.752459 -250.419545 
L 363.954098 -250.39426 
L 367.155738 -253.066418 
L 370.357377 -254.234985 
L 373.559016 -251.263192 
L 376.760656 -243.749006 
L 379.962295 -233.48229 
L 383.163934 -223.672226 
L 386.365574 -217.371004 
L 389.567213 -215.759252 
L 392.768852 -217.268792 
L 395.970492 -218.653923 
L 399.172131 -216.711835 
L 402.37377 -208.983144 
L 405.57541 -195.044614 
L 408.777049 -178.336881 
L 411.978689 -165.447623 
L 415.180328 -162.039624 
L 418.381967 -168.346249 
L 421.583607 -177.817621 
L 424.785246 -181.067339 
L 427.986885 -172.202293 
L 431.188525 -152.620387 
L 434.390164 -130.521053 
L 437.591803 -117.08633 
L 440.793443 -120.033467 
L 443.995082 -138.185972 
L 447.196721 -161.669002 
L 450.398361 -178.061323 
L 453.6 -180.798744 
L 453.6 -180.798744 
L 453.6 -180.798744 
L 450.398361 -178.061323 
L 447.196721 -161.669002 
L 443.995082 -138.185972 
L 440.793443 -120.033467 
L 437.591803 -117.08633 
L 434.390164 -130.521053 
L 431.188525 -152.620387 
L 427.986885 -172.202293 
L 424.785246 -181.067339 
L 421.583607 -177.817621 
L 418.381967 -168.346249 
L 415.180328 -162.039624 
L 411.978689 -165.447623 
L 408.777049 -178.336881 
L 405.57541 -195.044614 
L 402.37377 -208.983144 
L 399.172131 -216.711835 
L 395.970492 -218.653923 
L 392.768852 -217.268792 
L 389.567213 -215.759252 
L 386.365574 -217.371004 
L 383.163934 -223.672226 
L 379.962295 -233.48229 
L 376.760656 -243.749006 
L 373.559016 -251.263192 
L 370.357377 -254.234985 
L 367.155738 -253.066418 
L 363.954098 -250.39426 
L 360.752459 -250.419545 
L 357.55082 -256.862962 
L 354.34918 -269.059385 
L 351.147541 -280.186652 
L 347.945902 -280.961381 
L 344.744262 -265.71421 
L 341.542623 -236.376143 
L 338.340984 -201.762727 
L 335.139344 -172.746644 
L 331.937705 -156.420602 
L 328.736066 -152.963395 
L 325.534426 -155.733155 
L 322.332787 -155.415009 
L 319.131148 -147.129393 
L 315.929508 -133.961725 
L 312.727869 -124.182419 
L 309.52623 -124.580314 
L 306.32459 -135.74556 
L 303.122951 -152.039666 
L 299.921311 -165.925814 
L 296.719672 -172.343115 
L 293.518033 -170.9277 
L 290.316393 -166.130317 
L 287.114754 -164.651536 
L 283.913115 -170.959826 
L 280.711475 -184.394482 
L 277.509836 -200.378175 
L 274.308197 -213.553282 
L 271.106557 -220.599852 
L 267.904918 -220.80262 
L 264.703279 -215.204722 
L 261.501639 -206.812634 
L 258.3 -200.548063 
L 255.098361 -200.814063 
L 251.896721 -208.780807 
L 248.695082 -221.997412 
L 245.493443 -235.975331 
L 242.291803 -246.76966 
L 239.090164 -253.115574 
L 235.888525 -257.101374 
L 232.686885 -263.049885 
L 229.485246 -274.685457 
L 226.283607 -290.726011 
L 223.081967 -303.678097 
L 219.880328 -304.445455 
L 216.678689 -288.93347 
L 213.477049 -261.501793 
L 210.27541 -232.87914 
L 207.07377 -213.969229 
L 203.872131 -209.737652 
L 200.670492 -216.946343 
L 197.468852 -225.899891 
L 194.267213 -226.116441 
L 191.065574 -213.83253 
L 187.863934 -194.874716 
L 184.662295 -180.44611 
L 181.460656 -179.036865 
L 178.259016 -190.883931 
L 175.057377 -208.017475 
L 171.855738 -219.860916 
L 168.654098 -219.313813 
L 165.452459 -206.358782 
L 162.25082 -188.495733 
L 159.04918 -176.726955 
L 155.847541 -178.589515 
L 152.645902 -193.377787 
L 149.444262 -213.26209 
L 146.242623 -228.552955 
L 143.040984 -233.514822 
L 139.839344 -228.682493 
L 136.637705 -219.166599 
L 133.436066 -211.745794 
L 130.234426 -211.66046 
L 127.032787 -219.495582 
L 123.831148 -230.832374 
L 120.629508 -239.510201 
L 117.427869 -241.608358 
L 114.22623 -237.46642 
L 111.02459 -230.719891 
L 107.822951 -225.846395 
L 104.621311 -226.351432 
L 101.419672 -233.867702 
L 98.218033 -246.556601 
L 95.016393 -258.981459 
L 91.814754 -265.21772 
L 88.613115 -262.469024 
L 85.411475 -252.650636 
L 82.209836 -241.218006 
L 79.008197 -234.147033 
L 75.806557 -234.652946 
L 72.604918 -241.446943 
L 69.403279 -248.284145 
L 66.201639 -246.682902 
L 63 -232.131315 
z
" id="md9324c06fe" style="stroke:#ff8c00;stroke-opacity:0.3;"/>
    </defs>
    <g>
     <use style="fill:#ff8c00;fill-opacity:0.3;stroke:#ff8c00;stroke-opacity:0.3;" x="0" xlink:href="#md9324c06fe" y="360"/>
    </g>
   </g>
   <g id="PolyCollection_2">
    <defs>
     <path d="M 63 -243.608745 
L 63 -243.608745 
L 66.201639 -219.839027 
L 69.403279 -195.771906 
L 72.604918 -180.37771 
L 75.806557 -177.945975 
L 79.008197 -186.123557 
L 82.209836 -198.421804 
L 85.411475 -209.059163 
L 88.613115 -215.840569 
L 91.814754 -219.424997 
L 95.016393 -221.572167 
L 98.218033 -223.743217 
L 101.419672 -226.049683 
L 104.621311 -226.866436 
L 107.822951 -223.612105 
L 111.02459 -215.206086 
L 114.22623 -203.766541 
L 117.427869 -193.596377 
L 120.629508 -188.012465 
L 123.831148 -187.714441 
L 127.032787 -191.389548 
L 130.234426 -196.567656 
L 133.436066 -200.232283 
L 136.637705 -199.679141 
L 139.839344 -194.333914 
L 143.040984 -186.550959 
L 146.242623 -180.087414 
L 149.444262 -177.057656 
L 152.645902 -176.776603 
L 155.847541 -176.811057 
L 159.04918 -174.415966 
L 162.25082 -167.606145 
L 165.452459 -156.692127 
L 168.654098 -145.382613 
L 171.855738 -139.924845 
L 175.057377 -145.407613 
L 178.259016 -161.715922 
L 181.460656 -183.028634 
L 184.662295 -201.025712 
L 187.863934 -208.994813 
L 191.065574 -204.516398 
L 194.267213 -191.150968 
L 197.468852 -177.688783 
L 200.670492 -174.337596 
L 203.872131 -186.600177 
L 207.07377 -211.077861 
L 210.27541 -237.090316 
L 213.477049 -253.02767 
L 216.678689 -252.6277 
L 219.880328 -237.477824 
L 223.081967 -216.037949 
L 226.283607 -199.136624 
L 229.485246 -193.482081 
L 232.686885 -197.010342 
L 235.888525 -199.7996 
L 239.090164 -191.36007 
L 242.291803 -168.870983 
L 245.493443 -139.888672 
L 248.695082 -117.526459 
L 251.896721 -112.818913 
L 255.098361 -128.745824 
L 258.3 -158.363516 
L 261.501639 -188.109043 
L 264.703279 -204.827895 
L 267.904918 -202.989304 
L 271.106557 -187.009559 
L 274.308197 -166.900776 
L 277.509836 -150.659792 
L 280.711475 -140.079295 
L 283.913115 -131.85668 
L 287.114754 -121.21372 
L 290.316393 -105.24997 
L 293.518033 -85.229613 
L 296.719672 -66.770156 
L 299.921311 -57.354545 
L 303.122951 -61.825032 
L 306.32459 -78.786372 
L 309.52623 -101.296176 
L 312.727869 -120.886968 
L 315.929508 -131.38436 
L 319.131148 -130.731237 
L 322.332787 -121.985857 
L 325.534426 -112.647752 
L 328.736066 -111.632942 
L 331.937705 -124.394952 
L 335.139344 -149.473491 
L 338.340984 -179.73253 
L 341.542623 -207.089931 
L 344.744262 -226.57561 
L 347.945902 -237.490055 
L 351.147541 -242.942337 
L 354.34918 -247.846387 
L 357.55082 -255.447865 
L 360.752459 -264.636545 
L 363.954098 -269.918476 
L 367.155738 -265.476715 
L 370.357377 -249.682521 
L 373.559016 -226.344453 
L 376.760656 -201.989529 
L 379.962295 -182.972301 
L 383.163934 -173.682103 
L 386.365574 -175.213689 
L 389.567213 -184.776656 
L 392.768852 -196.75587 
L 395.970492 -205.639939 
L 399.172131 -208.539 
L 402.37377 -205.426784 
L 405.57541 -197.626924 
L 408.777049 -187.304736 
L 411.978689 -177.531273 
L 415.180328 -171.01402 
L 418.381967 -168.358123 
L 421.583607 -168.308978 
L 424.785246 -169.895656 
L 427.986885 -174.253883 
L 431.188525 -183.456003 
L 434.390164 -197.276571 
L 437.591803 -211.422733 
L 440.793443 -218.767925 
L 443.995082 -212.315068 
L 447.196721 -188.793077 
L 450.398361 -152.321531 
L 453.6 -114.83997 
L 453.6 -114.83997 
L 453.6 -114.83997 
L 450.398361 -152.321531 
L 447.196721 -188.793077 
L 443.995082 -212.315068 
L 440.793443 -218.767925 
L 437.591803 -211.422733 
L 434.390164 -197.276571 
L 431.188525 -183.456003 
L 427.986885 -174.253883 
L 424.785246 -169.895656 
L 421.583607 -168.308978 
L 418.381967 -168.358123 
L 415.180328 -171.01402 
L 411.978689 -177.531273 
L 408.777049 -187.304736 
L 405.57541 -197.626924 
L 402.37377 -205.426784 
L 399.172131 -208.539 
L 395.970492 -205.639939 
L 392.768852 -196.75587 
L 389.567213 -184.776656 
L 386.365574 -175.213689 
L 383.163934 -173.682103 
L 379.962295 -182.972301 
L 376.760656 -201.989529 
L 373.559016 -226.344453 
L 370.357377 -249.682521 
L 367.155738 -265.476715 
L 363.954098 -269.918476 
L 360.752459 -264.636545 
L 357.55082 -255.447865 
L 354.34918 -247.846387 
L 351.147541 -242.942337 
L 347.945902 -237.490055 
L 344.744262 -226.57561 
L 341.542623 -207.089931 
L 338.340984 -179.73253 
L 335.139344 -149.473491 
L 331.937705 -124.394952 
L 328.736066 -111.632942 
L 325.534426 -112.647752 
L 322.332787 -121.985857 
L 319.131148 -130.731237 
L 315.929508 -131.38436 
L 312.727869 -120.886968 
L 309.52623 -101.296176 
L 306.32459 -78.786372 
L 303.122951 -61.825032 
L 299.921311 -57.354545 
L 296.719672 -66.770156 
L 293.518033 -85.229613 
L 290.316393 -105.24997 
L 287.114754 -121.21372 
L 283.913115 -131.85668 
L 280.711475 -140.079295 
L 277.509836 -150.659792 
L 274.308197 -166.900776 
L 271.106557 -187.009559 
L 267.904918 -202.989304 
L 264.703279 -204.827895 
L 261.501639 -188.109043 
L 258.3 -158.363516 
L 255.098361 -128.745824 
L 251.896721 -112.818913 
L 248.695082 -117.526459 
L 245.493443 -139.888672 
L 242.291803 -168.870983 
L 239.090164 -191.36007 
L 235.888525 -199.7996 
L 232.686885 -197.010342 
L 229.485246 -193.482081 
L 226.283607 -199.136624 
L 223.081967 -216.037949 
L 219.880328 -237.477824 
L 216.678689 -252.6277 
L 213.477049 -253.02767 
L 210.27541 -237.090316 
L 207.07377 -211.077861 
L 203.872131 -186.600177 
L 200.670492 -174.337596 
L 197.468852 -177.688783 
L 194.267213 -191.150968 
L 191.065574 -204.516398 
L 187.863934 -208.994813 
L 184.662295 -201.025712 
L 181.460656 -183.028634 
L 178.259016 -161.715922 
L 175.057377 -145.407613 
L 171.855738 -139.924845 
L 168.654098 -145.382613 
L 165.452459 -156.692127 
L 162.25082 -167.606145 
L 159.04918 -174.415966 
L 155.847541 -176.811057 
L 152.645902 -176.776603 
L 149.444262 -177.057656 
L 146.242623 -180.087414 
L 143.040984 -186.550959 
L 139.839344 -194.333914 
L 136.637705 -199.679141 
L 133.436066 -200.232283 
L 130.234426 -196.567656 
L 127.032787 -191.389548 
L 123.831148 -187.714441 
L 120.629508 -188.012465 
L 117.427869 -193.596377 
L 114.22623 -203.766541 
L 111.02459 -215.206086 
L 107.822951 -223.612105 
L 104.621311 -226.866436 
L 101.419672 -226.049683 
L 98.218033 -223.743217 
L 95.016393 -221.572167 
L 91.814754 -219.424997 
L 88.613115 -215.840569 
L 85.411475 -209.059163 
L 82.209836 -198.421804 
L 79.008197 -186.123557 
L 75.806557 -177.945975 
L 72.604918 -180.37771 
L 69.403279 -195.771906 
L 66.201639 -219.839027 
L 63 -243.608745 
z
" id="mab8912a843" style="stroke:#9467bd;stroke-opacity:0.3;"/>
    </defs>
    <g>
     <use style="fill:#9467bd;fill-opacity:0.3;stroke:#9467bd;stroke-opacity:0.3;" x="0" xlink:href="#mab8912a843" y="360"/>
    </g>
   </g>
   <g id="PolyCollection_3">
    <defs>
     <path d="M 63 -201.357225 
L 63 -201.357225 
L 66.201639 -221.897674 
L 69.403279 -245.892796 
L 72.604918 -263.737081 
L 75.806557 -270.031683 
L 79.008197 -266.045028 
L 82.209836 -257.20589 
L 85.411475 -248.162362 
L 88.613115 -240.110574 
L 91.814754 -232.17187 
L 95.016393 -223.101297 
L 98.218033 -212.140502 
L 101.419672 -199.557288 
L 104.621311 -187.181073 
L 107.822951 -178.099742 
L 111.02459 -174.908523 
L 114.22623 -177.717108 
L 117.427869 -183.72246 
L 120.629508 -188.953624 
L 123.831148 -189.508732 
L 127.032787 -182.389959 
L 130.234426 -167.514535 
L 133.436066 -149.630481 
L 136.637705 -136.999579 
L 139.839344 -136.796226 
L 143.040984 -150.022327 
L 146.242623 -170.232531 
L 149.444262 -187.494781 
L 152.645902 -193.91587 
L 155.847541 -187.516255 
L 159.04918 -173.574676 
L 162.25082 -162.540497 
L 165.452459 -163.778984 
L 168.654098 -179.151334 
L 171.855738 -201.269749 
L 175.057377 -218.074908 
L 178.259016 -220.814838 
L 181.460656 -208.941004 
L 184.662295 -189.252822 
L 187.863934 -171.553483 
L 191.065574 -164.226267 
L 194.267213 -170.117459 
L 197.468852 -185.356226 
L 200.670492 -202.137714 
L 203.872131 -213.765057 
L 207.07377 -218.409774 
L 210.27541 -218.641621 
L 213.477049 -217.897272 
L 216.678689 -217.730117 
L 219.880328 -218.039008 
L 223.081967 -217.661832 
L 226.283607 -214.949429 
L 229.485246 -209.205889 
L 232.686885 -202.195871 
L 235.888525 -197.98633 
L 239.090164 -200.432987 
L 242.291803 -210.091203 
L 245.493443 -223.197609 
L 248.695082 -233.99933 
L 251.896721 -237.276104 
L 255.098361 -230.136917 
L 258.3 -213.947673 
L 261.501639 -195.088104 
L 264.703279 -182.313893 
L 267.904918 -181.584482 
L 271.106557 -191.862583 
L 274.308197 -205.465756 
L 277.509836 -213.243298 
L 280.711475 -209.806698 
L 283.913115 -195.844852 
L 287.114754 -177.647342 
L 290.316393 -164.205459 
L 293.518033 -161.863238 
L 296.719672 -170.13693 
L 299.921311 -181.943862 
L 303.122951 -188.664589 
L 306.32459 -186.596818 
L 309.52623 -179.264387 
L 312.727869 -174.374347 
L 315.929508 -178.8487 
L 319.131148 -195.75876 
L 322.332787 -222.478536 
L 325.534426 -251.512887 
L 328.736066 -274.061891 
L 331.937705 -284.703442 
L 335.139344 -284.12835 
L 338.340984 -277.631311 
L 341.542623 -270.911361 
L 344.744262 -266.840556 
L 347.945902 -265.30804 
L 351.147541 -263.686113 
L 354.34918 -257.810963 
L 357.55082 -244.451441 
L 360.752459 -224.197942 
L 363.954098 -202.13266 
L 367.155738 -185.057097 
L 370.357377 -177.048643 
L 373.559016 -176.841217 
L 376.760656 -179.130821 
L 379.962295 -177.220248 
L 383.163934 -165.9527 
L 386.365574 -145.006332 
L 389.567213 -120.352519 
L 392.768852 -101.494741 
L 395.970492 -95.776102 
L 399.172131 -103.591583 
L 402.37377 -118.413715 
L 405.57541 -131.75217 
L 408.777049 -138.274693 
L 411.978689 -137.962676 
L 415.180328 -135.562814 
L 418.381967 -137.80588 
L 421.583607 -148.642406 
L 424.785246 -165.505558 
L 427.986885 -179.974009 
L 431.188525 -183.096595 
L 434.390164 -172.028796 
L 437.591803 -152.322625 
L 440.793443 -134.545884 
L 443.995082 -128.389517 
L 447.196721 -138.322778 
L 450.398361 -160.89537 
L 453.6 -185.829441 
L 453.6 -185.829441 
L 453.6 -185.829441 
L 450.398361 -160.89537 
L 447.196721 -138.322778 
L 443.995082 -128.389517 
L 440.793443 -134.545884 
L 437.591803 -152.322625 
L 434.390164 -172.028796 
L 431.188525 -183.096595 
L 427.986885 -179.974009 
L 424.785246 -165.505558 
L 421.583607 -148.642406 
L 418.381967 -137.80588 
L 415.180328 -135.562814 
L 411.978689 -137.962676 
L 408.777049 -138.274693 
L 405.57541 -131.75217 
L 402.37377 -118.413715 
L 399.172131 -103.591583 
L 395.970492 -95.776102 
L 392.768852 -101.494741 
L 389.567213 -120.352519 
L 386.365574 -145.006332 
L 383.163934 -165.9527 
L 379.962295 -177.220248 
L 376.760656 -179.130821 
L 373.559016 -176.841217 
L 370.357377 -177.048643 
L 367.155738 -185.057097 
L 363.954098 -202.13266 
L 360.752459 -224.197942 
L 357.55082 -244.451441 
L 354.34918 -257.810963 
L 351.147541 -263.686113 
L 347.945902 -265.30804 
L 344.744262 -266.840556 
L 341.542623 -270.911361 
L 338.340984 -277.631311 
L 335.139344 -284.12835 
L 331.937705 -284.703442 
L 328.736066 -274.061891 
L 325.534426 -251.512887 
L 322.332787 -222.478536 
L 319.131148 -195.75876 
L 315.929508 -178.8487 
L 312.727869 -174.374347 
L 309.52623 -179.264387 
L 306.32459 -186.596818 
L 303.122951 -188.664589 
L 299.921311 -181.943862 
L 296.719672 -170.13693 
L 293.518033 -161.863238 
L 290.316393 -164.205459 
L 287.114754 -177.647342 
L 283.913115 -195.844852 
L 280.711475 -209.806698 
L 277.509836 -213.243298 
L 274.308197 -205.465756 
L 271.106557 -191.862583 
L 267.904918 -181.584482 
L 264.703279 -182.313893 
L 261.501639 -195.088104 
L 258.3 -213.947673 
L 255.098361 -230.136917 
L 251.896721 -237.276104 
L 248.695082 -233.99933 
L 245.493443 -223.197609 
L 242.291803 -210.091203 
L 239.090164 -200.432987 
L 235.888525 -197.98633 
L 232.686885 -202.195871 
L 229.485246 -209.205889 
L 226.283607 -214.949429 
L 223.081967 -217.661832 
L 219.880328 -218.039008 
L 216.678689 -217.730117 
L 213.477049 -217.897272 
L 210.27541 -218.641621 
L 207.07377 -218.409774 
L 203.872131 -213.765057 
L 200.670492 -202.137714 
L 197.468852 -185.356226 
L 194.267213 -170.117459 
L 191.065574 -164.226267 
L 187.863934 -171.553483 
L 184.662295 -189.252822 
L 181.460656 -208.941004 
L 178.259016 -220.814838 
L 175.057377 -218.074908 
L 171.855738 -201.269749 
L 168.654098 -179.151334 
L 165.452459 -163.778984 
L 162.25082 -162.540497 
L 159.04918 -173.574676 
L 155.847541 -187.516255 
L 152.645902 -193.91587 
L 149.444262 -187.494781 
L 146.242623 -170.232531 
L 143.040984 -150.022327 
L 139.839344 -136.796226 
L 136.637705 -136.999579 
L 133.436066 -149.630481 
L 130.234426 -167.514535 
L 127.032787 -182.389959 
L 123.831148 -189.508732 
L 120.629508 -188.953624 
L 117.427869 -183.72246 
L 114.22623 -177.717108 
L 111.02459 -174.908523 
L 107.822951 -178.099742 
L 104.621311 -187.181073 
L 101.419672 -199.557288 
L 98.218033 -212.140502 
L 95.016393 -223.101297 
L 91.814754 -232.17187 
L 88.613115 -240.110574 
L 85.411475 -248.162362 
L 82.209836 -257.20589 
L 79.008197 -266.045028 
L 75.806557 -270.031683 
L 72.604918 -263.737081 
L 69.403279 -245.892796 
L 66.201639 -221.897674 
L 63 -201.357225 
z
" id="mc83d5b41e2" style="stroke:#32cd32;stroke-opacity:0.3;"/>
    </defs>
    <g>
     <use style="fill:#32cd32;fill-opacity:0.3;stroke:#32cd32;stroke-opacity:0.3;" x="0" xlink:href="#mc83d5b41e2" y="360"/>
    </g>
   </g>
   <g id="PolyCollection_4">
    <defs>
     <path d="M 63 -226.708688 
L 63 -226.708688 
L 66.201639 -243.078991 
L 69.403279 -232.929911 
L 72.604918 -200.389362 
L 75.806557 -163.151277 
L 79.008197 -142.43846 
L 82.209836 -149.618678 
L 85.411475 -178.789239 
L 88.613115 -211.484292 
L 91.814754 -229.180403 
L 95.016393 -223.748191 
L 98.218033 -200.686784 
L 101.419672 -175.604507 
L 104.621311 -166.050813 
L 107.822951 -181.661537 
L 111.02459 -217.639535 
L 114.22623 -256.596453 
L 117.427869 -279.156689 
L 120.629508 -275.95678 
L 123.831148 -251.885284 
L 127.032787 -221.753928 
L 130.234426 -202.024402 
L 133.436066 -202.753006 
L 136.637705 -222.251457 
L 139.839344 -247.299423 
L 143.040984 -260.443514 
L 146.242623 -251.210519 
L 149.444262 -223.546215 
L 152.645902 -192.883772 
L 155.847541 -175.880568 
L 159.04918 -180.857186 
L 162.25082 -203.961266 
L 165.452459 -231.266232 
L 168.654098 -245.875366 
L 171.855738 -237.628102 
L 175.057377 -210.315799 
L 178.259016 -180.626724 
L 181.460656 -167.621377 
L 184.662295 -180.402099 
L 187.863934 -213.294775 
L 191.065574 -250.331527 
L 194.267213 -273.941797 
L 197.468852 -273.474224 
L 200.670492 -250.562693 
L 203.872131 -218.789639 
L 207.07377 -196.374143 
L 210.27541 -195.137713 
L 213.477049 -213.122825 
L 216.678689 -236.958605 
L 219.880328 -251.142296 
L 223.081967 -246.609074 
L 226.283607 -224.74152 
L 229.485246 -196.627904 
L 232.686885 -178.029387 
L 235.888525 -180.953165 
L 239.090164 -205.738091 
L 242.291803 -239.63199 
L 245.493443 -264.43038 
L 248.695082 -267.899746 
L 251.896721 -250.063997 
L 255.098361 -221.996304 
L 258.3 -199.645547 
L 261.501639 -195.780145 
L 264.703279 -212.640688 
L 267.904918 -239.47449 
L 271.106557 -258.245749 
L 274.308197 -255.161184 
L 277.509836 -230.189154 
L 280.711475 -196.458679 
L 283.913115 -171.160518 
L 287.114754 -165.346458 
L 290.316393 -178.39195 
L 293.518033 -198.38879 
L 296.719672 -208.495461 
L 299.921311 -197.153078 
L 303.122951 -166.588268 
L 306.32459 -133.115729 
L 309.52623 -117.066446 
L 312.727869 -129.567911 
L 315.929508 -166.237358 
L 319.131148 -210.680808 
L 322.332787 -243.456889 
L 325.534426 -251.792987 
L 328.736066 -236.278628 
L 331.937705 -211.066249 
L 335.139344 -195.819917 
L 338.340984 -203.124447 
L 341.542623 -229.886978 
L 344.744262 -259.863555 
L 347.945902 -274.676779 
L 351.147541 -264.547251 
L 354.34918 -233.195948 
L 357.55082 -195.941578 
L 360.752459 -172.226204 
L 363.954098 -175.06719 
L 367.155738 -202.839123 
L 370.357377 -239.374688 
L 373.559016 -263.92287 
L 376.760656 -264.012257 
L 379.962295 -241.356333 
L 383.163934 -208.795166 
L 386.365574 -182.376842 
L 389.567213 -173.285005 
L 392.768852 -182.165787 
L 395.970492 -198.587408 
L 399.172131 -207.170515 
L 402.37377 -197.666924 
L 405.57541 -172.191511 
L 408.777049 -143.250131 
L 411.978689 -125.112283 
L 415.180328 -125.686468 
L 418.381967 -143.122378 
L 421.583607 -166.755674 
L 424.785246 -181.885373 
L 427.986885 -177.638005 
L 431.188525 -154.249612 
L 434.390164 -124.484352 
L 437.591803 -106.247038 
L 440.793443 -111.516189 
L 443.995082 -139.95565 
L 447.196721 -179.978603 
L 450.398361 -214.54094 
L 453.6 -229.019918 
L 453.6 -229.019918 
L 453.6 -229.019918 
L 450.398361 -214.54094 
L 447.196721 -179.978603 
L 443.995082 -139.95565 
L 440.793443 -111.516189 
L 437.591803 -106.247038 
L 434.390164 -124.484352 
L 431.188525 -154.249612 
L 427.986885 -177.638005 
L 424.785246 -181.885373 
L 421.583607 -166.755674 
L 418.381967 -143.122378 
L 415.180328 -125.686468 
L 411.978689 -125.112283 
L 408.777049 -143.250131 
L 405.57541 -172.191511 
L 402.37377 -197.666924 
L 399.172131 -207.170515 
L 395.970492 -198.587408 
L 392.768852 -182.165787 
L 389.567213 -173.285005 
L 386.365574 -182.376842 
L 383.163934 -208.795166 
L 379.962295 -241.356333 
L 376.760656 -264.012257 
L 373.559016 -263.92287 
L 370.357377 -239.374688 
L 367.155738 -202.839123 
L 363.954098 -175.06719 
L 360.752459 -172.226204 
L 357.55082 -195.941578 
L 354.34918 -233.195948 
L 351.147541 -264.547251 
L 347.945902 -274.676779 
L 344.744262 -259.863555 
L 341.542623 -229.886978 
L 338.340984 -203.124447 
L 335.139344 -195.819917 
L 331.937705 -211.066249 
L 328.736066 -236.278628 
L 325.534426 -251.792987 
L 322.332787 -243.456889 
L 319.131148 -210.680808 
L 315.929508 -166.237358 
L 312.727869 -129.567911 
L 309.52623 -117.066446 
L 306.32459 -133.115729 
L 303.122951 -166.588268 
L 299.921311 -197.153078 
L 296.719672 -208.495461 
L 293.518033 -198.38879 
L 290.316393 -178.39195 
L 287.114754 -165.346458 
L 283.913115 -171.160518 
L 280.711475 -196.458679 
L 277.509836 -230.189154 
L 274.308197 -255.161184 
L 271.106557 -258.245749 
L 267.904918 -239.47449 
L 264.703279 -212.640688 
L 261.501639 -195.780145 
L 258.3 -199.645547 
L 255.098361 -221.996304 
L 251.896721 -250.063997 
L 248.695082 -267.899746 
L 245.493443 -264.43038 
L 242.291803 -239.63199 
L 239.090164 -205.738091 
L 235.888525 -180.953165 
L 232.686885 -178.029387 
L 229.485246 -196.627904 
L 226.283607 -224.74152 
L 223.081967 -246.609074 
L 219.880328 -251.142296 
L 216.678689 -236.958605 
L 213.477049 -213.122825 
L 210.27541 -195.137713 
L 207.07377 -196.374143 
L 203.872131 -218.789639 
L 200.670492 -250.562693 
L 197.468852 -273.474224 
L 194.267213 -273.941797 
L 191.065574 -250.331527 
L 187.863934 -213.294775 
L 184.662295 -180.402099 
L 181.460656 -167.621377 
L 178.259016 -180.626724 
L 175.057377 -210.315799 
L 171.855738 -237.628102 
L 168.654098 -245.875366 
L 165.452459 -231.266232 
L 162.25082 -203.961266 
L 159.04918 -180.857186 
L 155.847541 -175.880568 
L 152.645902 -192.883772 
L 149.444262 -223.546215 
L 146.242623 -251.210519 
L 143.040984 -260.443514 
L 139.839344 -247.299423 
L 136.637705 -222.251457 
L 133.436066 -202.753006 
L 130.234426 -202.024402 
L 127.032787 -221.753928 
L 123.831148 -251.885284 
L 120.629508 -275.95678 
L 117.427869 -279.156689 
L 114.22623 -256.596453 
L 111.02459 -217.639535 
L 107.822951 -181.661537 
L 104.621311 -166.050813 
L 101.419672 -175.604507 
L 98.218033 -200.686784 
L 95.016393 -223.748191 
L 91.814754 -229.180403 
L 88.613115 -211.484292 
L 85.411475 -178.789239 
L 82.209836 -149.618678 
L 79.008197 -142.43846 
L 75.806557 -163.151277 
L 72.604918 -200.389362 
L 69.403279 -232.929911 
L 66.201639 -243.078991 
L 63 -226.708688 
z
" id="mfbc9fdde74" style="stroke:#1f77b4;stroke-opacity:0.3;"/>
    </defs>
    <g>
     <use style="fill:#1f77b4;fill-opacity:0.3;stroke:#1f77b4;stroke-opacity:0.3;" x="0" xlink:href="#mfbc9fdde74" y="360"/>
    </g>
   </g>
   <g id="line2d_23">
    <path d="M 63 127.868685 
L 66.201639 113.317098 
L 69.403279 111.715855 
L 72.604918 118.553057 
L 75.806557 125.347054 
L 79.008197 125.852967 
L 82.209836 118.781994 
L 85.411475 107.349364 
L 88.613115 97.530976 
L 91.814754 94.78228 
L 95.016393 101.018541 
L 98.218033 113.443399 
L 101.419672 126.132298 
L 104.621311 133.648568 
L 107.822951 134.153605 
L 111.02459 129.280109 
L 114.22623 122.53358 
L 117.427869 118.391642 
L 120.629508 120.489799 
L 123.831148 129.167626 
L 127.032787 140.504418 
L 130.234426 148.33954 
L 133.436066 148.254206 
L 136.637705 140.833401 
L 139.839344 131.317507 
L 143.040984 126.485178 
L 146.242623 131.447045 
L 149.444262 146.73791 
L 152.645902 166.622213 
L 155.847541 181.410485 
L 159.04918 183.273045 
L 162.25082 171.504267 
L 165.452459 153.641218 
L 168.654098 140.686187 
L 171.855738 140.139084 
L 175.057377 151.982525 
L 178.259016 169.116069 
L 181.460656 180.963135 
L 184.662295 179.55389 
L 187.863934 165.125284 
L 191.065574 146.16747 
L 194.267213 133.883559 
L 197.468852 134.100109 
L 200.670492 143.053657 
L 203.872131 150.262348 
L 207.07377 146.030771 
L 210.27541 127.12086 
L 213.477049 98.498207 
L 216.678689 71.06653 
L 219.880328 55.554545 
L 223.081967 56.321903 
L 226.283607 69.273989 
L 229.485246 85.314543 
L 232.686885 96.950115 
L 235.888525 102.898626 
L 239.090164 106.884426 
L 242.291803 113.23034 
L 245.493443 124.024669 
L 248.695082 138.002588 
L 251.896721 151.219193 
L 255.098361 159.185937 
L 258.3 159.451937 
L 261.501639 153.187366 
L 264.703279 144.795278 
L 267.904918 139.19738 
L 271.106557 139.400148 
L 274.308197 146.446718 
L 277.509836 159.621825 
L 280.711475 175.605518 
L 283.913115 189.040174 
L 287.114754 195.348464 
L 290.316393 193.869683 
L 293.518033 189.0723 
L 296.719672 187.656885 
L 299.921311 194.074186 
L 303.122951 207.960334 
L 306.32459 224.25444 
L 309.52623 235.419686 
L 312.727869 235.817581 
L 315.929508 226.038275 
L 319.131148 212.870607 
L 322.332787 204.584991 
L 325.534426 204.266845 
L 328.736066 207.036605 
L 331.937705 203.579398 
L 335.139344 187.253356 
L 338.340984 158.237273 
L 341.542623 123.623857 
L 344.744262 94.28579 
L 347.945902 79.038619 
L 351.147541 79.813348 
L 354.34918 90.940615 
L 357.55082 103.137038 
L 360.752459 109.580455 
L 363.954098 109.60574 
L 367.155738 106.933582 
L 370.357377 105.765015 
L 373.559016 108.736808 
L 376.760656 116.250994 
L 379.962295 126.51771 
L 383.163934 136.327774 
L 386.365574 142.628996 
L 389.567213 144.240748 
L 392.768852 142.731208 
L 395.970492 141.346077 
L 399.172131 143.288165 
L 402.37377 151.016856 
L 405.57541 164.955386 
L 408.777049 181.663119 
L 411.978689 194.552377 
L 415.180328 197.960376 
L 418.381967 191.653751 
L 421.583607 182.182379 
L 424.785246 178.932661 
L 427.986885 187.797707 
L 431.188525 207.379613 
L 434.390164 229.478947 
L 437.591803 242.91367 
L 440.793443 239.966533 
L 443.995082 221.814028 
L 447.196721 198.330998 
L 450.398361 181.938677 
L 453.6 179.201256 
" style="fill:none;stroke:#ff8c00;stroke-linecap:square;stroke-width:1.5;"/>
   </g>
   <g id="line2d_24">
    <path d="M 63 116.391255 
L 66.201639 140.160973 
L 69.403279 164.228094 
L 72.604918 179.62229 
L 75.806557 182.054025 
L 79.008197 173.876443 
L 82.209836 161.578196 
L 85.411475 150.940837 
L 88.613115 144.159431 
L 91.814754 140.575003 
L 95.016393 138.427833 
L 98.218033 136.256783 
L 101.419672 133.950317 
L 104.621311 133.133564 
L 107.822951 136.387895 
L 111.02459 144.793914 
L 114.22623 156.233459 
L 117.427869 166.403623 
L 120.629508 171.987535 
L 123.831148 172.285559 
L 127.032787 168.610452 
L 130.234426 163.432344 
L 133.436066 159.767717 
L 136.637705 160.320859 
L 139.839344 165.666086 
L 143.040984 173.449041 
L 146.242623 179.912586 
L 149.444262 182.942344 
L 152.645902 183.223397 
L 155.847541 183.188943 
L 159.04918 185.584034 
L 162.25082 192.393855 
L 165.452459 203.307873 
L 168.654098 214.617387 
L 171.855738 220.075155 
L 175.057377 214.592387 
L 178.259016 198.284078 
L 181.460656 176.971366 
L 184.662295 158.974288 
L 187.863934 151.005187 
L 191.065574 155.483602 
L 194.267213 168.849032 
L 197.468852 182.311217 
L 200.670492 185.662404 
L 203.872131 173.399823 
L 207.07377 148.922139 
L 210.27541 122.909684 
L 213.477049 106.97233 
L 216.678689 107.3723 
L 219.880328 122.522176 
L 223.081967 143.962051 
L 226.283607 160.863376 
L 229.485246 166.517919 
L 232.686885 162.989658 
L 235.888525 160.2004 
L 239.090164 168.63993 
L 242.291803 191.129017 
L 245.493443 220.111328 
L 248.695082 242.473541 
L 251.896721 247.181087 
L 255.098361 231.254176 
L 258.3 201.636484 
L 261.501639 171.890957 
L 264.703279 155.172105 
L 267.904918 157.010696 
L 271.106557 172.990441 
L 274.308197 193.099224 
L 277.509836 209.340208 
L 280.711475 219.920705 
L 283.913115 228.14332 
L 287.114754 238.78628 
L 290.316393 254.75003 
L 293.518033 274.770387 
L 296.719672 293.229844 
L 299.921311 302.645455 
L 303.122951 298.174968 
L 306.32459 281.213628 
L 309.52623 258.703824 
L 312.727869 239.113032 
L 315.929508 228.61564 
L 319.131148 229.268763 
L 322.332787 238.014143 
L 325.534426 247.352248 
L 328.736066 248.367058 
L 331.937705 235.605048 
L 335.139344 210.526509 
L 338.340984 180.26747 
L 341.542623 152.910069 
L 344.744262 133.42439 
L 347.945902 122.509945 
L 351.147541 117.057663 
L 354.34918 112.153613 
L 357.55082 104.552135 
L 360.752459 95.363455 
L 363.954098 90.081524 
L 367.155738 94.523285 
L 370.357377 110.317479 
L 373.559016 133.655547 
L 376.760656 158.010471 
L 379.962295 177.027699 
L 383.163934 186.317897 
L 386.365574 184.786311 
L 389.567213 175.223344 
L 392.768852 163.24413 
L 395.970492 154.360061 
L 399.172131 151.461 
L 402.37377 154.573216 
L 405.57541 162.373076 
L 408.777049 172.695264 
L 411.978689 182.468727 
L 415.180328 188.98598 
L 418.381967 191.641877 
L 421.583607 191.691022 
L 424.785246 190.104344 
L 427.986885 185.746117 
L 431.188525 176.543997 
L 434.390164 162.723429 
L 437.591803 148.577267 
L 440.793443 141.232075 
L 443.995082 147.684932 
L 447.196721 171.206923 
L 450.398361 207.678469 
L 453.6 245.16003 
" style="fill:none;stroke:#9467bd;stroke-linecap:square;stroke-width:1.5;"/>
   </g>
   <g id="line2d_25">
    <path d="M 63 158.642775 
L 66.201639 138.102326 
L 69.403279 114.107204 
L 72.604918 96.262919 
L 75.806557 89.968317 
L 79.008197 93.954972 
L 82.209836 102.79411 
L 85.411475 111.837638 
L 88.613115 119.889426 
L 91.814754 127.82813 
L 95.016393 136.898703 
L 98.218033 147.859498 
L 101.419672 160.442712 
L 104.621311 172.818927 
L 107.822951 181.900258 
L 111.02459 185.091477 
L 114.22623 182.282892 
L 117.427869 176.27754 
L 120.629508 171.046376 
L 123.831148 170.491268 
L 127.032787 177.610041 
L 130.234426 192.485465 
L 133.436066 210.369519 
L 136.637705 223.000421 
L 139.839344 223.203774 
L 143.040984 209.977673 
L 146.242623 189.767469 
L 149.444262 172.505219 
L 152.645902 166.08413 
L 155.847541 172.483745 
L 159.04918 186.425324 
L 162.25082 197.459503 
L 165.452459 196.221016 
L 168.654098 180.848666 
L 171.855738 158.730251 
L 175.057377 141.925092 
L 178.259016 139.185162 
L 181.460656 151.058996 
L 184.662295 170.747178 
L 187.863934 188.446517 
L 191.065574 195.773733 
L 194.267213 189.882541 
L 197.468852 174.643774 
L 200.670492 157.862286 
L 203.872131 146.234943 
L 207.07377 141.590226 
L 210.27541 141.358379 
L 213.477049 142.102728 
L 216.678689 142.269883 
L 219.880328 141.960992 
L 223.081967 142.338168 
L 226.283607 145.050571 
L 229.485246 150.794111 
L 232.686885 157.804129 
L 235.888525 162.01367 
L 239.090164 159.567013 
L 242.291803 149.908797 
L 245.493443 136.802391 
L 248.695082 126.00067 
L 251.896721 122.723896 
L 255.098361 129.863083 
L 258.3 146.052327 
L 261.501639 164.911896 
L 264.703279 177.686107 
L 267.904918 178.415518 
L 271.106557 168.137417 
L 274.308197 154.534244 
L 277.509836 146.756702 
L 280.711475 150.193302 
L 283.913115 164.155148 
L 287.114754 182.352658 
L 290.316393 195.794541 
L 293.518033 198.136762 
L 296.719672 189.86307 
L 299.921311 178.056138 
L 303.122951 171.335411 
L 306.32459 173.403182 
L 309.52623 180.735613 
L 312.727869 185.625653 
L 315.929508 181.1513 
L 319.131148 164.24124 
L 322.332787 137.521464 
L 325.534426 108.487113 
L 328.736066 85.938109 
L 331.937705 75.296558 
L 335.139344 75.87165 
L 338.340984 82.368689 
L 341.542623 89.088639 
L 344.744262 93.159444 
L 347.945902 94.69196 
L 351.147541 96.313887 
L 354.34918 102.189037 
L 357.55082 115.548559 
L 360.752459 135.802058 
L 363.954098 157.86734 
L 367.155738 174.942903 
L 370.357377 182.951357 
L 373.559016 183.158783 
L 376.760656 180.869179 
L 379.962295 182.779752 
L 383.163934 194.0473 
L 386.365574 214.993668 
L 389.567213 239.647481 
L 392.768852 258.505259 
L 395.970492 264.223898 
L 399.172131 256.408417 
L 402.37377 241.586285 
L 405.57541 228.24783 
L 408.777049 221.725307 
L 411.978689 222.037324 
L 415.180328 224.437186 
L 418.381967 222.19412 
L 421.583607 211.357594 
L 424.785246 194.494442 
L 427.986885 180.025991 
L 431.188525 176.903405 
L 434.390164 187.971204 
L 437.591803 207.677375 
L 440.793443 225.454116 
L 443.995082 231.610483 
L 447.196721 221.677222 
L 450.398361 199.10463 
L 453.6 174.170559 
" style="fill:none;stroke:#32cd32;stroke-linecap:square;stroke-width:1.5;"/>
   </g>
   <g id="line2d_26">
    <path d="M 63 133.291312 
L 66.201639 116.921009 
L 69.403279 127.070089 
L 72.604918 159.610638 
L 75.806557 196.848723 
L 79.008197 217.56154 
L 82.209836 210.381322 
L 85.411475 181.210761 
L 88.613115 148.515708 
L 91.814754 130.819597 
L 95.016393 136.251809 
L 98.218033 159.313216 
L 101.419672 184.395493 
L 104.621311 193.949187 
L 107.822951 178.338463 
L 111.02459 142.360465 
L 114.22623 103.403547 
L 117.427869 80.843311 
L 120.629508 84.04322 
L 123.831148 108.114716 
L 127.032787 138.246072 
L 130.234426 157.975598 
L 133.436066 157.246994 
L 136.637705 137.748543 
L 139.839344 112.700577 
L 143.040984 99.556486 
L 146.242623 108.789481 
L 149.444262 136.453785 
L 152.645902 167.116228 
L 155.847541 184.119432 
L 159.04918 179.142814 
L 162.25082 156.038734 
L 165.452459 128.733768 
L 168.654098 114.124634 
L 171.855738 122.371898 
L 175.057377 149.684201 
L 178.259016 179.373276 
L 181.460656 192.378623 
L 184.662295 179.597901 
L 187.863934 146.705225 
L 191.065574 109.668473 
L 194.267213 86.058203 
L 197.468852 86.525776 
L 200.670492 109.437307 
L 203.872131 141.210361 
L 207.07377 163.625857 
L 210.27541 164.862287 
L 213.477049 146.877175 
L 216.678689 123.041395 
L 219.880328 108.857704 
L 223.081967 113.390926 
L 226.283607 135.25848 
L 229.485246 163.372096 
L 232.686885 181.970613 
L 235.888525 179.046835 
L 239.090164 154.261909 
L 242.291803 120.36801 
L 245.493443 95.56962 
L 248.695082 92.100254 
L 251.896721 109.936003 
L 255.098361 138.003696 
L 258.3 160.354453 
L 261.501639 164.219855 
L 264.703279 147.359312 
L 267.904918 120.52551 
L 271.106557 101.754251 
L 274.308197 104.838816 
L 277.509836 129.810846 
L 280.711475 163.541321 
L 283.913115 188.839482 
L 287.114754 194.653542 
L 290.316393 181.60805 
L 293.518033 161.61121 
L 296.719672 151.504539 
L 299.921311 162.846922 
L 303.122951 193.411732 
L 306.32459 226.884271 
L 309.52623 242.933554 
L 312.727869 230.432089 
L 315.929508 193.762642 
L 319.131148 149.319192 
L 322.332787 116.543111 
L 325.534426 108.207013 
L 328.736066 123.721372 
L 331.937705 148.933751 
L 335.139344 164.180083 
L 338.340984 156.875553 
L 341.542623 130.113022 
L 344.744262 100.136445 
L 347.945902 85.323221 
L 351.147541 95.452749 
L 354.34918 126.804052 
L 357.55082 164.058422 
L 360.752459 187.773796 
L 363.954098 184.93281 
L 367.155738 157.160877 
L 370.357377 120.625312 
L 373.559016 96.07713 
L 376.760656 95.987743 
L 379.962295 118.643667 
L 383.163934 151.204834 
L 386.365574 177.623158 
L 389.567213 186.714995 
L 392.768852 177.834213 
L 395.970492 161.412592 
L 399.172131 152.829485 
L 402.37377 162.333076 
L 405.57541 187.808489 
L 408.777049 216.749869 
L 411.978689 234.887717 
L 415.180328 234.313532 
L 418.381967 216.877622 
L 421.583607 193.244326 
L 424.785246 178.114627 
L 427.986885 182.361995 
L 431.188525 205.750388 
L 434.390164 235.515648 
L 437.591803 253.752962 
L 440.793443 248.483811 
L 443.995082 220.04435 
L 447.196721 180.021397 
L 450.398361 145.45906 
L 453.6 130.980082 
" style="fill:none;stroke:#1f77b4;stroke-linecap:square;stroke-width:1.5;"/>
   </g>
  </g>
  <g id="axes_2">
   <g id="PathCollection_1">
    <defs>
     <path d="M 0 1.118034 
C 0.296506 1.118034 0.580908 1.000231 0.790569 0.790569 
C 1.000231 0.580908 1.118034 0.296506 1.118034 0 
C 1.118034 -0.296506 1.000231 -0.580908 0.790569 -0.790569 
C 0.580908 -1.000231 0.296506 -1.118034 0 -1.118034 
C -0.296506 -1.118034 -0.580908 -1.000231 -0.790569 -0.790569 
C -1.000231 -0.580908 -1.118034 -0.296506 -1.118034 0 
C -1.118034 0.296506 -1.000231 0.580908 -0.790569 0.790569 
C -0.580908 1.000231 -0.296506 1.118034 0 1.118034 
z
" id="m210ea83539" style="stroke:#000000;"/>
    </defs>
    <g clip-path="url(#pf7a47bb28c)">
     <use style="stroke:#000000;" x="413.418345" xlink:href="#m210ea83539" y="266.809697"/>
    </g>
   </g>
   <g id="matplotlib.axis_3"/>
   <g id="matplotlib.axis_4"/>
   <g id="line2d_27">
    <path d="M 441.813318 277.179863 
L 441.757179 275.375797 
L 441.588984 273.578851 
L 441.309395 271.796116 
L 440.919517 270.034629 
L 440.420888 268.30134 
L 439.815476 266.603092 
L 439.105671 264.946584 
L 438.294273 263.338356 
L 437.384485 261.784754 
L 436.379897 260.29191 
L 435.284475 258.865715 
L 434.10254 257.511797 
L 432.838759 256.2355 
L 431.498117 255.041861 
L 430.085907 253.93559 
L 428.607701 252.921054 
L 427.069334 252.002256 
L 425.476876 251.182823 
L 423.836612 250.465988 
L 422.155016 249.854581 
L 420.438724 249.351014 
L 418.69451 248.957275 
L 416.929257 248.674918 
L 415.149932 248.505057 
L 413.363556 248.448362 
L 411.577181 248.505057 
L 409.797856 248.674918 
L 408.032603 248.957275 
L 406.288388 249.351014 
L 404.572096 249.854581 
L 402.8905 250.465988 
L 401.250237 251.182823 
L 399.657779 252.002256 
L 398.119412 252.921054 
L 396.641206 253.93559 
L 395.228995 255.041861 
L 393.888354 256.2355 
L 392.624572 257.511797 
L 391.442638 258.865715 
L 390.347215 260.29191 
L 389.342628 261.784754 
L 388.43284 263.338356 
L 387.621442 264.946584 
L 386.911637 266.603092 
L 386.306225 268.30134 
L 385.807596 270.034629 
L 385.417718 271.796116 
L 385.138129 273.578851 
L 384.969933 275.375797 
L 384.913794 277.179863 
L 384.969933 278.983928 
L 385.138129 280.780875 
L 385.417718 282.563609 
L 385.807596 284.325096 
L 386.306225 286.058385 
L 386.911637 287.756634 
L 387.621442 289.413141 
L 388.43284 291.021369 
L 389.342628 292.574971 
L 390.347215 294.067815 
L 391.442638 295.494011 
L 392.624572 296.847928 
L 393.888354 298.124225 
L 395.228995 299.317865 
L 396.641206 300.424135 
L 398.119412 301.438671 
L 399.657779 302.357469 
L 401.250237 303.176902 
L 402.8905 303.893737 
L 404.572096 304.505144 
L 406.288388 305.008711 
L 408.032603 305.40245 
L 409.797856 305.684807 
L 411.577181 305.854669 
L 413.363556 305.911364 
L 415.149932 305.854669 
L 416.929257 305.684807 
L 418.69451 305.40245 
L 420.438724 305.008711 
L 422.155016 304.505144 
L 423.836612 303.893737 
L 425.476876 303.176902 
L 427.069334 302.357469 
L 428.607701 301.438671 
L 430.085907 300.424135 
L 431.498117 299.317865 
L 432.838759 298.124225 
L 434.10254 296.847928 
L 435.284475 295.494011 
L 436.379897 294.067815 
L 437.384485 292.574971 
L 438.294273 291.021369 
L 439.105671 289.413141 
L 439.815476 287.756634 
L 440.420888 286.058385 
L 440.919517 284.325096 
L 441.309395 282.563609 
L 441.588984 280.780875 
L 441.757179 278.983928 
L 441.813318 277.179863 
" style="fill:none;stroke:#000000;stroke-linecap:square;"/>
   </g>
   <g id="line2d_28">
    <path d="M 418.484514 248.678214 
L 413.363556 244.138636 
L 408.242599 248.678214 
" style="fill:none;stroke:#000000;stroke-linecap:square;"/>
   </g>
   <g id="line2d_29">
    <path d="M 441.64262 273.990666 
L 442.382314 272.72648 
L 442.83751 272.68051 
L 443.514614 272.893123 
L 444.197408 273.990666 
L 444.089299 277.495909 
L 444.487596 282.535414 
L 443.634103 284.724755 
L 442.382314 285.132742 
L 441.187424 284.069677 
" style="fill:none;stroke:#000000;stroke-linecap:square;"/>
   </g>
   <g id="line2d_30">
    <path d="M 385.084493 273.990666 
L 384.344799 272.72648 
L 383.889603 272.68051 
L 383.212499 272.893123 
L 382.529704 273.990666 
L 382.637813 277.495909 
L 382.239517 282.535414 
L 383.09301 284.724755 
L 384.344799 285.132742 
L 385.539689 284.069677 
" style="fill:none;stroke:#000000;stroke-linecap:square;"/>
   </g>
   <g id="line2d_31">
    <path d="M 441.813318 248.448362 
" style="fill:none;stroke:#000000;stroke-linecap:square;"/>
   </g>
  </g>
 </g>
 <defs>
  <clipPath id="p659425bdba">
   <rect height="271.8" width="390.6" x="63" y="43.2"/>
  </clipPath>
  <clipPath id="pf7a47bb28c">
   <rect height="67.95" width="68.472887" x="379.127113" y="241.05"/>
  </clipPath>
 </defs>
</svg>
