<?xml version="1.0" encoding="utf-8" standalone="no"?>
<!DOCTYPE svg PUBLIC "-//W3C//DTD SVG 1.1//EN"
  "http://www.w3.org/Graphics/SVG/1.1/DTD/svg11.dtd">
<!-- Created with matplotlib (https://matplotlib.org/) -->
<svg height="360pt" version="1.1" viewBox="0 0 504 360" width="504pt" xmlns="http://www.w3.org/2000/svg" xmlns:xlink="http://www.w3.org/1999/xlink">
 <defs>
  <style type="text/css">
*{stroke-linecap:butt;stroke-linejoin:round;}
  </style>
 </defs>
 <g id="figure_1">
  <g id="patch_1">
   <path d="M 0 360 
L 504 360 
L 504 0 
L 0 0 
z
" style="fill:#ffffff;"/>
  </g>
  <g id="axes_1">
   <g id="patch_2">
    <path d="M 63 315 
L 453.6 315 
L 453.6 43.2 
L 63 43.2 
z
" style="fill:#ffffff;"/>
   </g>
   <g id="patch_3">
    <path d="M 63 299.61228 
L 63 47.442335 
" style="fill:none;stroke:#000000;stroke-linecap:square;stroke-linejoin:miter;stroke-width:0.8;"/>
   </g>
   <g id="LineCollection_1">
    <path clip-path="url(#pc5818ca2b1)" d="M 133.436066 315 
L 133.436066 47.442335 
" style="fill:none;stroke:#000000;stroke-dasharray:3.7,1.6;stroke-dashoffset:0;"/>
   </g>
   <g id="matplotlib.axis_1">
    <g id="xtick_1">
     <g id="line2d_1">
      <defs>
       <path d="M 0 0 
L 0 3.5 
" id="m9cef8c8146" style="stroke:#000000;stroke-width:0.8;"/>
      </defs>
      <g>
       <use style="stroke:#000000;stroke-width:0.8;" x="133.436066" xlink:href="#m9cef8c8146" y="315"/>
      </g>
     </g>
     <g id="text_1">
      <!-- 0.0 -->
      <defs>
       <path d="M 31.78125 66.40625 
Q 24.171875 66.40625 20.328125 58.90625 
Q 16.5 51.421875 16.5 36.375 
Q 16.5 21.390625 20.328125 13.890625 
Q 24.171875 6.390625 31.78125 6.390625 
Q 39.453125 6.390625 43.28125 13.890625 
Q 47.125 21.390625 47.125 36.375 
Q 47.125 51.421875 43.28125 58.90625 
Q 39.453125 66.40625 31.78125 66.40625 
z
M 31.78125 74.21875 
Q 44.046875 74.21875 50.515625 64.515625 
Q 56.984375 54.828125 56.984375 36.375 
Q 56.984375 17.96875 50.515625 8.265625 
Q 44.046875 -1.421875 31.78125 -1.421875 
Q 19.53125 -1.421875 13.0625 8.265625 
Q 6.59375 17.96875 6.59375 36.375 
Q 6.59375 54.828125 13.0625 64.515625 
Q 19.53125 74.21875 31.78125 74.21875 
z
" id="DejaVuSans-48"/>
       <path d="M 10.6875 12.40625 
L 21 12.40625 
L 21 0 
L 10.6875 0 
z
" id="DejaVuSans-46"/>
      </defs>
      <g transform="translate(123.894191 331.118125)scale(0.12 -0.12)">
       <use xlink:href="#DejaVuSans-48"/>
       <use x="63.623047" xlink:href="#DejaVuSans-46"/>
       <use x="95.410156" xlink:href="#DejaVuSans-48"/>
      </g>
     </g>
    </g>
    <g id="xtick_2">
     <g id="line2d_2">
      <g>
       <use style="stroke:#000000;stroke-width:0.8;" x="204.512459" xlink:href="#m9cef8c8146" y="315"/>
      </g>
     </g>
     <g id="text_2">
      <!-- 0.1 -->
      <defs>
       <path d="M 12.40625 8.296875 
L 28.515625 8.296875 
L 28.515625 63.921875 
L 10.984375 60.40625 
L 10.984375 69.390625 
L 28.421875 72.90625 
L 38.28125 72.90625 
L 38.28125 8.296875 
L 54.390625 8.296875 
L 54.390625 0 
L 12.40625 0 
z
" id="DejaVuSans-49"/>
      </defs>
      <g transform="translate(194.970584 331.118125)scale(0.12 -0.12)">
       <use xlink:href="#DejaVuSans-48"/>
       <use x="63.623047" xlink:href="#DejaVuSans-46"/>
       <use x="95.410156" xlink:href="#DejaVuSans-49"/>
      </g>
     </g>
    </g>
    <g id="xtick_3">
     <g id="line2d_3">
      <g>
       <use style="stroke:#000000;stroke-width:0.8;" x="275.588852" xlink:href="#m9cef8c8146" y="315"/>
      </g>
     </g>
     <g id="text_3">
      <!-- 0.2 -->
      <defs>
       <path d="M 19.1875 8.296875 
L 53.609375 8.296875 
L 53.609375 0 
L 7.328125 0 
L 7.328125 8.296875 
Q 12.9375 14.109375 22.625 23.890625 
Q 32.328125 33.6875 34.8125 36.53125 
Q 39.546875 41.84375 41.421875 45.53125 
Q 43.3125 49.21875 43.3125 52.78125 
Q 43.3125 58.59375 39.234375 62.25 
Q 35.15625 65.921875 28.609375 65.921875 
Q 23.96875 65.921875 18.8125 64.3125 
Q 13.671875 62.703125 7.8125 59.421875 
L 7.8125 69.390625 
Q 13.765625 71.78125 18.9375 73 
Q 24.125 74.21875 28.421875 74.21875 
Q 39.75 74.21875 46.484375 68.546875 
Q 53.21875 62.890625 53.21875 53.421875 
Q 53.21875 48.921875 51.53125 44.890625 
Q 49.859375 40.875 45.40625 35.40625 
Q 44.1875 33.984375 37.640625 27.21875 
Q 31.109375 20.453125 19.1875 8.296875 
z
" id="DejaVuSans-50"/>
      </defs>
      <g transform="translate(266.046977 331.118125)scale(0.12 -0.12)">
       <use xlink:href="#DejaVuSans-48"/>
       <use x="63.623047" xlink:href="#DejaVuSans-46"/>
       <use x="95.410156" xlink:href="#DejaVuSans-50"/>
      </g>
     </g>
    </g>
    <g id="xtick_4">
     <g id="line2d_4">
      <g>
       <use style="stroke:#000000;stroke-width:0.8;" x="346.665246" xlink:href="#m9cef8c8146" y="315"/>
      </g>
     </g>
     <g id="text_4">
      <!-- 0.3 -->
      <defs>
       <path d="M 40.578125 39.3125 
Q 47.65625 37.796875 51.625 33 
Q 55.609375 28.21875 55.609375 21.1875 
Q 55.609375 10.40625 48.1875 4.484375 
Q 40.765625 -1.421875 27.09375 -1.421875 
Q 22.515625 -1.421875 17.65625 -0.515625 
Q 12.796875 0.390625 7.625 2.203125 
L 7.625 11.71875 
Q 11.71875 9.328125 16.59375 8.109375 
Q 21.484375 6.890625 26.8125 6.890625 
Q 36.078125 6.890625 40.9375 10.546875 
Q 45.796875 14.203125 45.796875 21.1875 
Q 45.796875 27.640625 41.28125 31.265625 
Q 36.765625 34.90625 28.71875 34.90625 
L 20.21875 34.90625 
L 20.21875 43.015625 
L 29.109375 43.015625 
Q 36.375 43.015625 40.234375 45.921875 
Q 44.09375 48.828125 44.09375 54.296875 
Q 44.09375 59.90625 40.109375 62.90625 
Q 36.140625 65.921875 28.71875 65.921875 
Q 24.65625 65.921875 20.015625 65.03125 
Q 15.375 64.15625 9.8125 62.3125 
L 9.8125 71.09375 
Q 15.4375 72.65625 20.34375 73.4375 
Q 25.25 74.21875 29.59375 74.21875 
Q 40.828125 74.21875 47.359375 69.109375 
Q 53.90625 64.015625 53.90625 55.328125 
Q 53.90625 49.265625 50.4375 45.09375 
Q 46.96875 40.921875 40.578125 39.3125 
z
" id="DejaVuSans-51"/>
      </defs>
      <g transform="translate(337.123371 331.118125)scale(0.12 -0.12)">
       <use xlink:href="#DejaVuSans-48"/>
       <use x="63.623047" xlink:href="#DejaVuSans-46"/>
       <use x="95.410156" xlink:href="#DejaVuSans-51"/>
      </g>
     </g>
    </g>
    <g id="xtick_5">
     <g id="line2d_5">
      <g>
       <use style="stroke:#000000;stroke-width:0.8;" x="417.741639" xlink:href="#m9cef8c8146" y="315"/>
      </g>
     </g>
     <g id="text_5">
      <!-- 0.4 -->
      <defs>
       <path d="M 37.796875 64.3125 
L 12.890625 25.390625 
L 37.796875 25.390625 
z
M 35.203125 72.90625 
L 47.609375 72.90625 
L 47.609375 25.390625 
L 58.015625 25.390625 
L 58.015625 17.1875 
L 47.609375 17.1875 
L 47.609375 0 
L 37.796875 0 
L 37.796875 17.1875 
L 4.890625 17.1875 
L 4.890625 26.703125 
z
" id="DejaVuSans-52"/>
      </defs>
      <g transform="translate(408.199764 331.118125)scale(0.12 -0.12)">
       <use xlink:href="#DejaVuSans-48"/>
       <use x="63.623047" xlink:href="#DejaVuSans-46"/>
       <use x="95.410156" xlink:href="#DejaVuSans-52"/>
      </g>
     </g>
    </g>
    <g id="text_6">
     <!-- Time (s) -->
     <defs>
      <path d="M -0.296875 72.90625 
L 61.375 72.90625 
L 61.375 64.59375 
L 35.5 64.59375 
L 35.5 0 
L 25.59375 0 
L 25.59375 64.59375 
L -0.296875 64.59375 
z
" id="DejaVuSans-84"/>
      <path d="M 9.421875 54.6875 
L 18.40625 54.6875 
L 18.40625 0 
L 9.421875 0 
z
M 9.421875 75.984375 
L 18.40625 75.984375 
L 18.40625 64.59375 
L 9.421875 64.59375 
z
" id="DejaVuSans-105"/>
      <path d="M 52 44.1875 
Q 55.375 50.25 60.0625 53.125 
Q 64.75 56 71.09375 56 
Q 79.640625 56 84.28125 50.015625 
Q 88.921875 44.046875 88.921875 33.015625 
L 88.921875 0 
L 79.890625 0 
L 79.890625 32.71875 
Q 79.890625 40.578125 77.09375 44.375 
Q 74.3125 48.1875 68.609375 48.1875 
Q 61.625 48.1875 57.5625 43.546875 
Q 53.515625 38.921875 53.515625 30.90625 
L 53.515625 0 
L 44.484375 0 
L 44.484375 32.71875 
Q 44.484375 40.625 41.703125 44.40625 
Q 38.921875 48.1875 33.109375 48.1875 
Q 26.21875 48.1875 22.15625 43.53125 
Q 18.109375 38.875 18.109375 30.90625 
L 18.109375 0 
L 9.078125 0 
L 9.078125 54.6875 
L 18.109375 54.6875 
L 18.109375 46.1875 
Q 21.1875 51.21875 25.484375 53.609375 
Q 29.78125 56 35.6875 56 
Q 41.65625 56 45.828125 52.96875 
Q 50 49.953125 52 44.1875 
z
" id="DejaVuSans-109"/>
      <path d="M 56.203125 29.59375 
L 56.203125 25.203125 
L 14.890625 25.203125 
Q 15.484375 15.921875 20.484375 11.0625 
Q 25.484375 6.203125 34.421875 6.203125 
Q 39.59375 6.203125 44.453125 7.46875 
Q 49.3125 8.734375 54.109375 11.28125 
L 54.109375 2.78125 
Q 49.265625 0.734375 44.1875 -0.34375 
Q 39.109375 -1.421875 33.890625 -1.421875 
Q 20.796875 -1.421875 13.15625 6.1875 
Q 5.515625 13.8125 5.515625 26.8125 
Q 5.515625 40.234375 12.765625 48.109375 
Q 20.015625 56 32.328125 56 
Q 43.359375 56 49.78125 48.890625 
Q 56.203125 41.796875 56.203125 29.59375 
z
M 47.21875 32.234375 
Q 47.125 39.59375 43.09375 43.984375 
Q 39.0625 48.390625 32.421875 48.390625 
Q 24.90625 48.390625 20.390625 44.140625 
Q 15.875 39.890625 15.1875 32.171875 
z
" id="DejaVuSans-101"/>
      <path id="DejaVuSans-32"/>
      <path d="M 31 75.875 
Q 24.46875 64.65625 21.28125 53.65625 
Q 18.109375 42.671875 18.109375 31.390625 
Q 18.109375 20.125 21.3125 9.0625 
Q 24.515625 -2 31 -13.1875 
L 23.1875 -13.1875 
Q 15.875 -1.703125 12.234375 9.375 
Q 8.59375 20.453125 8.59375 31.390625 
Q 8.59375 42.28125 12.203125 53.3125 
Q 15.828125 64.359375 23.1875 75.875 
z
" id="DejaVuSans-40"/>
      <path d="M 44.28125 53.078125 
L 44.28125 44.578125 
Q 40.484375 46.53125 36.375 47.5 
Q 32.28125 48.484375 27.875 48.484375 
Q 21.1875 48.484375 17.84375 46.4375 
Q 14.5 44.390625 14.5 40.28125 
Q 14.5 37.15625 16.890625 35.375 
Q 19.28125 33.59375 26.515625 31.984375 
L 29.59375 31.296875 
Q 39.15625 29.25 43.1875 25.515625 
Q 47.21875 21.78125 47.21875 15.09375 
Q 47.21875 7.46875 41.1875 3.015625 
Q 35.15625 -1.421875 24.609375 -1.421875 
Q 20.21875 -1.421875 15.453125 -0.5625 
Q 10.6875 0.296875 5.421875 2 
L 5.421875 11.28125 
Q 10.40625 8.6875 15.234375 7.390625 
Q 20.0625 6.109375 24.8125 6.109375 
Q 31.15625 6.109375 34.5625 8.28125 
Q 37.984375 10.453125 37.984375 14.40625 
Q 37.984375 18.0625 35.515625 20.015625 
Q 33.0625 21.96875 24.703125 23.78125 
L 21.578125 24.515625 
Q 13.234375 26.265625 9.515625 29.90625 
Q 5.8125 33.546875 5.8125 39.890625 
Q 5.8125 47.609375 11.28125 51.796875 
Q 16.75 56 26.8125 56 
Q 31.78125 56 36.171875 55.265625 
Q 40.578125 54.546875 44.28125 53.078125 
z
" id="DejaVuSans-115"/>
      <path d="M 8.015625 75.875 
L 15.828125 75.875 
Q 23.140625 64.359375 26.78125 53.3125 
Q 30.421875 42.28125 30.421875 31.390625 
Q 30.421875 20.453125 26.78125 9.375 
Q 23.140625 -1.703125 15.828125 -13.1875 
L 8.015625 -13.1875 
Q 14.5 -2 17.703125 9.0625 
Q 20.90625 20.125 20.90625 31.390625 
Q 20.90625 42.671875 17.703125 53.65625 
Q 14.5 64.65625 8.015625 75.875 
z
" id="DejaVuSans-41"/>
     </defs>
     <g transform="translate(233.720625 340.925)scale(0.12 -0.12)">
      <use xlink:href="#DejaVuSans-84"/>
      <use x="61.037109" xlink:href="#DejaVuSans-105"/>
      <use x="88.820312" xlink:href="#DejaVuSans-109"/>
      <use x="186.232422" xlink:href="#DejaVuSans-101"/>
      <use x="247.755859" xlink:href="#DejaVuSans-32"/>
      <use x="279.542969" xlink:href="#DejaVuSans-40"/>
      <use x="318.556641" xlink:href="#DejaVuSans-115"/>
      <use x="370.65625" xlink:href="#DejaVuSans-41"/>
     </g>
    </g>
   </g>
   <g id="matplotlib.axis_2">
    <g id="ytick_1">
     <g id="line2d_6">
      <defs>
       <path d="M 0 0 
L -3.5 0 
" id="m2b71bdd6c4" style="stroke:#000000;stroke-width:0.8;"/>
      </defs>
      <g>
       <use style="stroke:#000000;stroke-width:0.8;" x="63" xlink:href="#m2b71bdd6c4" y="299.61228"/>
      </g>
     </g>
     <g id="text_7">
      <!-- −2000000 -->
      <defs>
       <path d="M 10.59375 35.5 
L 73.1875 35.5 
L 73.1875 27.203125 
L 10.59375 27.203125 
z
" id="DejaVuSans-8722"/>
      </defs>
      <g transform="translate(-7.500625 304.171343)scale(0.12 -0.12)">
       <use xlink:href="#DejaVuSans-8722"/>
       <use x="83.789062" xlink:href="#DejaVuSans-50"/>
       <use x="147.412109" xlink:href="#DejaVuSans-48"/>
       <use x="211.035156" xlink:href="#DejaVuSans-48"/>
       <use x="274.658203" xlink:href="#DejaVuSans-48"/>
       <use x="338.28125" xlink:href="#DejaVuSans-48"/>
       <use x="401.904297" xlink:href="#DejaVuSans-48"/>
       <use x="465.527344" xlink:href="#DejaVuSans-48"/>
      </g>
     </g>
    </g>
    <g id="ytick_2">
     <g id="line2d_7">
      <g>
       <use style="stroke:#000000;stroke-width:0.8;" x="63" xlink:href="#m2b71bdd6c4" y="249.178291"/>
      </g>
     </g>
     <g id="text_8">
      <!-- −1000000 -->
      <g transform="translate(-7.500625 253.737354)scale(0.12 -0.12)">
       <use xlink:href="#DejaVuSans-8722"/>
       <use x="83.789062" xlink:href="#DejaVuSans-49"/>
       <use x="147.412109" xlink:href="#DejaVuSans-48"/>
       <use x="211.035156" xlink:href="#DejaVuSans-48"/>
       <use x="274.658203" xlink:href="#DejaVuSans-48"/>
       <use x="338.28125" xlink:href="#DejaVuSans-48"/>
       <use x="401.904297" xlink:href="#DejaVuSans-48"/>
       <use x="465.527344" xlink:href="#DejaVuSans-48"/>
      </g>
     </g>
    </g>
    <g id="ytick_3">
     <g id="line2d_8">
      <g>
       <use style="stroke:#000000;stroke-width:0.8;" x="63" xlink:href="#m2b71bdd6c4" y="198.744302"/>
      </g>
     </g>
     <g id="text_9">
      <!-- 0 -->
      <g transform="translate(48.365 203.303365)scale(0.12 -0.12)">
       <use xlink:href="#DejaVuSans-48"/>
      </g>
     </g>
    </g>
    <g id="ytick_4">
     <g id="line2d_9">
      <g>
       <use style="stroke:#000000;stroke-width:0.8;" x="63" xlink:href="#m2b71bdd6c4" y="148.310313"/>
      </g>
     </g>
     <g id="text_10">
      <!-- 1000000 -->
      <g transform="translate(2.555 152.869376)scale(0.12 -0.12)">
       <use xlink:href="#DejaVuSans-49"/>
       <use x="63.623047" xlink:href="#DejaVuSans-48"/>
       <use x="127.246094" xlink:href="#DejaVuSans-48"/>
       <use x="190.869141" xlink:href="#DejaVuSans-48"/>
       <use x="254.492188" xlink:href="#DejaVuSans-48"/>
       <use x="318.115234" xlink:href="#DejaVuSans-48"/>
       <use x="381.738281" xlink:href="#DejaVuSans-48"/>
      </g>
     </g>
    </g>
    <g id="ytick_5">
     <g id="line2d_10">
      <g>
       <use style="stroke:#000000;stroke-width:0.8;" x="63" xlink:href="#m2b71bdd6c4" y="97.876324"/>
      </g>
     </g>
     <g id="text_11">
      <!-- 2000000 -->
      <g transform="translate(2.555 102.435387)scale(0.12 -0.12)">
       <use xlink:href="#DejaVuSans-50"/>
       <use x="63.623047" xlink:href="#DejaVuSans-48"/>
       <use x="127.246094" xlink:href="#DejaVuSans-48"/>
       <use x="190.869141" xlink:href="#DejaVuSans-48"/>
       <use x="254.492188" xlink:href="#DejaVuSans-48"/>
       <use x="318.115234" xlink:href="#DejaVuSans-48"/>
       <use x="381.738281" xlink:href="#DejaVuSans-48"/>
      </g>
     </g>
    </g>
    <g id="ytick_6">
     <g id="line2d_11">
      <g>
       <use style="stroke:#000000;stroke-width:0.8;" x="63" xlink:href="#m2b71bdd6c4" y="47.442335"/>
      </g>
     </g>
     <g id="text_12">
      <!-- 3000000 -->
      <g transform="translate(2.555 52.001398)scale(0.12 -0.12)">
       <use xlink:href="#DejaVuSans-51"/>
       <use x="63.623047" xlink:href="#DejaVuSans-48"/>
       <use x="127.246094" xlink:href="#DejaVuSans-48"/>
       <use x="190.869141" xlink:href="#DejaVuSans-48"/>
       <use x="254.492188" xlink:href="#DejaVuSans-48"/>
       <use x="318.115234" xlink:href="#DejaVuSans-48"/>
       <use x="381.738281" xlink:href="#DejaVuSans-48"/>
      </g>
     </g>
    </g>
    <g id="text_13">
     <!-- uV -->
     <defs>
      <path d="M 8.5 21.578125 
L 8.5 54.6875 
L 17.484375 54.6875 
L 17.484375 21.921875 
Q 17.484375 14.15625 20.5 10.265625 
Q 23.53125 6.390625 29.59375 6.390625 
Q 36.859375 6.390625 41.078125 11.03125 
Q 45.3125 15.671875 45.3125 23.6875 
L 45.3125 54.6875 
L 54.296875 54.6875 
L 54.296875 0 
L 45.3125 0 
L 45.3125 8.40625 
Q 42.046875 3.421875 37.71875 1 
Q 33.40625 -1.421875 27.6875 -1.421875 
Q 18.265625 -1.421875 13.375 4.4375 
Q 8.5 10.296875 8.5 21.578125 
z
M 31.109375 56 
z
" id="DejaVuSans-117"/>
      <path d="M 28.609375 0 
L 0.78125 72.90625 
L 11.078125 72.90625 
L 34.1875 11.53125 
L 57.328125 72.90625 
L 67.578125 72.90625 
L 39.796875 0 
z
" id="DejaVuSans-86"/>
     </defs>
     <g transform="translate(27.537 206.651177)rotate(-90)scale(0.12 -0.12)">
      <use xlink:href="#DejaVuSans-117"/>
      <use x="63.378906" xlink:href="#DejaVuSans-86"/>
     </g>
     <!--  -->
     <g transform="translate(40.974375 198.744302)rotate(-90)scale(0.12 -0.12)"/>
    </g>
   </g>
   <g id="patch_4">
    <path d="M 453.6 315 
L 453.6 43.2 
" style="fill:none;"/>
   </g>
   <g id="patch_5">
    <path d="M 133.436066 315 
L 417.741639 315 
" style="fill:none;stroke:#000000;stroke-linecap:square;stroke-linejoin:miter;stroke-width:0.8;"/>
   </g>
   <g id="patch_6">
    <path d="M 63 198.744302 
L 453.6 198.744302 
" style="fill:none;stroke:#000000;stroke-linecap:square;stroke-linejoin:miter;stroke-width:0.8;"/>
   </g>
   <g id="legend_1">
    <g id="patch_7">
     <path d="M 71.4 88.0275 
L 207.82875 88.0275 
Q 210.22875 88.0275 210.22875 85.6275 
L 210.22875 51.6 
Q 210.22875 49.2 207.82875 49.2 
L 71.4 49.2 
Q 69 49.2 69 51.6 
L 69 85.6275 
Q 69 88.0275 71.4 88.0275 
z
" style="fill:#ffffff;opacity:0.8;stroke:#cccccc;stroke-linejoin:miter;"/>
    </g>
    <g id="line2d_12">
     <path d="M 73.8 58.918125 
L 97.8 58.918125 
" style="fill:none;stroke:#1f77b4;stroke-linecap:square;stroke-width:1.5;"/>
    </g>
    <g id="line2d_13"/>
    <g id="text_14">
     <!-- Breath Focus -->
     <defs>
      <path d="M 19.671875 34.8125 
L 19.671875 8.109375 
L 35.5 8.109375 
Q 43.453125 8.109375 47.28125 11.40625 
Q 51.125 14.703125 51.125 21.484375 
Q 51.125 28.328125 47.28125 31.5625 
Q 43.453125 34.8125 35.5 34.8125 
z
M 19.671875 64.796875 
L 19.671875 42.828125 
L 34.28125 42.828125 
Q 41.5 42.828125 45.03125 45.53125 
Q 48.578125 48.25 48.578125 53.8125 
Q 48.578125 59.328125 45.03125 62.0625 
Q 41.5 64.796875 34.28125 64.796875 
z
M 9.8125 72.90625 
L 35.015625 72.90625 
Q 46.296875 72.90625 52.390625 68.21875 
Q 58.5 63.53125 58.5 54.890625 
Q 58.5 48.1875 55.375 44.234375 
Q 52.25 40.28125 46.1875 39.3125 
Q 53.46875 37.75 57.5 32.78125 
Q 61.53125 27.828125 61.53125 20.40625 
Q 61.53125 10.640625 54.890625 5.3125 
Q 48.25 0 35.984375 0 
L 9.8125 0 
z
" id="DejaVuSans-66"/>
      <path d="M 41.109375 46.296875 
Q 39.59375 47.171875 37.8125 47.578125 
Q 36.03125 48 33.890625 48 
Q 26.265625 48 22.1875 43.046875 
Q 18.109375 38.09375 18.109375 28.8125 
L 18.109375 0 
L 9.078125 0 
L 9.078125 54.6875 
L 18.109375 54.6875 
L 18.109375 46.1875 
Q 20.953125 51.171875 25.484375 53.578125 
Q 30.03125 56 36.53125 56 
Q 37.453125 56 38.578125 55.875 
Q 39.703125 55.765625 41.0625 55.515625 
z
" id="DejaVuSans-114"/>
      <path d="M 34.28125 27.484375 
Q 23.390625 27.484375 19.1875 25 
Q 14.984375 22.515625 14.984375 16.5 
Q 14.984375 11.71875 18.140625 8.90625 
Q 21.296875 6.109375 26.703125 6.109375 
Q 34.1875 6.109375 38.703125 11.40625 
Q 43.21875 16.703125 43.21875 25.484375 
L 43.21875 27.484375 
z
M 52.203125 31.203125 
L 52.203125 0 
L 43.21875 0 
L 43.21875 8.296875 
Q 40.140625 3.328125 35.546875 0.953125 
Q 30.953125 -1.421875 24.3125 -1.421875 
Q 15.921875 -1.421875 10.953125 3.296875 
Q 6 8.015625 6 15.921875 
Q 6 25.140625 12.171875 29.828125 
Q 18.359375 34.515625 30.609375 34.515625 
L 43.21875 34.515625 
L 43.21875 35.40625 
Q 43.21875 41.609375 39.140625 45 
Q 35.0625 48.390625 27.6875 48.390625 
Q 23 48.390625 18.546875 47.265625 
Q 14.109375 46.140625 10.015625 43.890625 
L 10.015625 52.203125 
Q 14.9375 54.109375 19.578125 55.046875 
Q 24.21875 56 28.609375 56 
Q 40.484375 56 46.34375 49.84375 
Q 52.203125 43.703125 52.203125 31.203125 
z
" id="DejaVuSans-97"/>
      <path d="M 18.3125 70.21875 
L 18.3125 54.6875 
L 36.8125 54.6875 
L 36.8125 47.703125 
L 18.3125 47.703125 
L 18.3125 18.015625 
Q 18.3125 11.328125 20.140625 9.421875 
Q 21.96875 7.515625 27.59375 7.515625 
L 36.8125 7.515625 
L 36.8125 0 
L 27.59375 0 
Q 17.1875 0 13.234375 3.875 
Q 9.28125 7.765625 9.28125 18.015625 
L 9.28125 47.703125 
L 2.6875 47.703125 
L 2.6875 54.6875 
L 9.28125 54.6875 
L 9.28125 70.21875 
z
" id="DejaVuSans-116"/>
      <path d="M 54.890625 33.015625 
L 54.890625 0 
L 45.90625 0 
L 45.90625 32.71875 
Q 45.90625 40.484375 42.875 44.328125 
Q 39.84375 48.1875 33.796875 48.1875 
Q 26.515625 48.1875 22.3125 43.546875 
Q 18.109375 38.921875 18.109375 30.90625 
L 18.109375 0 
L 9.078125 0 
L 9.078125 75.984375 
L 18.109375 75.984375 
L 18.109375 46.1875 
Q 21.34375 51.125 25.703125 53.5625 
Q 30.078125 56 35.796875 56 
Q 45.21875 56 50.046875 50.171875 
Q 54.890625 44.34375 54.890625 33.015625 
z
" id="DejaVuSans-104"/>
      <path d="M 9.8125 72.90625 
L 51.703125 72.90625 
L 51.703125 64.59375 
L 19.671875 64.59375 
L 19.671875 43.109375 
L 48.578125 43.109375 
L 48.578125 34.8125 
L 19.671875 34.8125 
L 19.671875 0 
L 9.8125 0 
z
" id="DejaVuSans-70"/>
      <path d="M 30.609375 48.390625 
Q 23.390625 48.390625 19.1875 42.75 
Q 14.984375 37.109375 14.984375 27.296875 
Q 14.984375 17.484375 19.15625 11.84375 
Q 23.34375 6.203125 30.609375 6.203125 
Q 37.796875 6.203125 41.984375 11.859375 
Q 46.1875 17.53125 46.1875 27.296875 
Q 46.1875 37.015625 41.984375 42.703125 
Q 37.796875 48.390625 30.609375 48.390625 
z
M 30.609375 56 
Q 42.328125 56 49.015625 48.375 
Q 55.71875 40.765625 55.71875 27.296875 
Q 55.71875 13.875 49.015625 6.21875 
Q 42.328125 -1.421875 30.609375 -1.421875 
Q 18.84375 -1.421875 12.171875 6.21875 
Q 5.515625 13.875 5.515625 27.296875 
Q 5.515625 40.765625 12.171875 48.375 
Q 18.84375 56 30.609375 56 
z
" id="DejaVuSans-111"/>
      <path d="M 48.78125 52.59375 
L 48.78125 44.1875 
Q 44.96875 46.296875 41.140625 47.34375 
Q 37.3125 48.390625 33.40625 48.390625 
Q 24.65625 48.390625 19.8125 42.84375 
Q 14.984375 37.3125 14.984375 27.296875 
Q 14.984375 17.28125 19.8125 11.734375 
Q 24.65625 6.203125 33.40625 6.203125 
Q 37.3125 6.203125 41.140625 7.25 
Q 44.96875 8.296875 48.78125 10.40625 
L 48.78125 2.09375 
Q 45.015625 0.34375 40.984375 -0.53125 
Q 36.96875 -1.421875 32.421875 -1.421875 
Q 20.0625 -1.421875 12.78125 6.34375 
Q 5.515625 14.109375 5.515625 27.296875 
Q 5.515625 40.671875 12.859375 48.328125 
Q 20.21875 56 33.015625 56 
Q 37.15625 56 41.109375 55.140625 
Q 45.0625 54.296875 48.78125 52.59375 
z
" id="DejaVuSans-99"/>
     </defs>
     <g transform="translate(107.4 63.118125)scale(0.12 -0.12)">
      <use xlink:href="#DejaVuSans-66"/>
      <use x="68.603516" xlink:href="#DejaVuSans-114"/>
      <use x="109.685547" xlink:href="#DejaVuSans-101"/>
      <use x="171.208984" xlink:href="#DejaVuSans-97"/>
      <use x="232.488281" xlink:href="#DejaVuSans-116"/>
      <use x="271.697266" xlink:href="#DejaVuSans-104"/>
      <use x="335.076172" xlink:href="#DejaVuSans-32"/>
      <use x="366.863281" xlink:href="#DejaVuSans-70"/>
      <use x="424.335938" xlink:href="#DejaVuSans-111"/>
      <use x="485.517578" xlink:href="#DejaVuSans-99"/>
      <use x="540.498047" xlink:href="#DejaVuSans-117"/>
      <use x="603.876953" xlink:href="#DejaVuSans-115"/>
     </g>
    </g>
    <g id="line2d_14">
     <path d="M 73.8 76.531875 
L 97.8 76.531875 
" style="fill:none;stroke:#ff7f0e;stroke-linecap:square;stroke-width:1.5;"/>
    </g>
    <g id="line2d_15"/>
    <g id="text_15">
     <!-- Mind Wandering -->
     <defs>
      <path d="M 9.8125 72.90625 
L 24.515625 72.90625 
L 43.109375 23.296875 
L 61.8125 72.90625 
L 76.515625 72.90625 
L 76.515625 0 
L 66.890625 0 
L 66.890625 64.015625 
L 48.09375 14.015625 
L 38.1875 14.015625 
L 19.390625 64.015625 
L 19.390625 0 
L 9.8125 0 
z
" id="DejaVuSans-77"/>
      <path d="M 54.890625 33.015625 
L 54.890625 0 
L 45.90625 0 
L 45.90625 32.71875 
Q 45.90625 40.484375 42.875 44.328125 
Q 39.84375 48.1875 33.796875 48.1875 
Q 26.515625 48.1875 22.3125 43.546875 
Q 18.109375 38.921875 18.109375 30.90625 
L 18.109375 0 
L 9.078125 0 
L 9.078125 54.6875 
L 18.109375 54.6875 
L 18.109375 46.1875 
Q 21.34375 51.125 25.703125 53.5625 
Q 30.078125 56 35.796875 56 
Q 45.21875 56 50.046875 50.171875 
Q 54.890625 44.34375 54.890625 33.015625 
z
" id="DejaVuSans-110"/>
      <path d="M 45.40625 46.390625 
L 45.40625 75.984375 
L 54.390625 75.984375 
L 54.390625 0 
L 45.40625 0 
L 45.40625 8.203125 
Q 42.578125 3.328125 38.25 0.953125 
Q 33.9375 -1.421875 27.875 -1.421875 
Q 17.96875 -1.421875 11.734375 6.484375 
Q 5.515625 14.40625 5.515625 27.296875 
Q 5.515625 40.1875 11.734375 48.09375 
Q 17.96875 56 27.875 56 
Q 33.9375 56 38.25 53.625 
Q 42.578125 51.265625 45.40625 46.390625 
z
M 14.796875 27.296875 
Q 14.796875 17.390625 18.875 11.75 
Q 22.953125 6.109375 30.078125 6.109375 
Q 37.203125 6.109375 41.296875 11.75 
Q 45.40625 17.390625 45.40625 27.296875 
Q 45.40625 37.203125 41.296875 42.84375 
Q 37.203125 48.484375 30.078125 48.484375 
Q 22.953125 48.484375 18.875 42.84375 
Q 14.796875 37.203125 14.796875 27.296875 
z
" id="DejaVuSans-100"/>
      <path d="M 3.328125 72.90625 
L 13.28125 72.90625 
L 28.609375 11.28125 
L 43.890625 72.90625 
L 54.984375 72.90625 
L 70.3125 11.28125 
L 85.59375 72.90625 
L 95.609375 72.90625 
L 77.296875 0 
L 64.890625 0 
L 49.515625 63.28125 
L 33.984375 0 
L 21.578125 0 
z
" id="DejaVuSans-87"/>
      <path d="M 45.40625 27.984375 
Q 45.40625 37.75 41.375 43.109375 
Q 37.359375 48.484375 30.078125 48.484375 
Q 22.859375 48.484375 18.828125 43.109375 
Q 14.796875 37.75 14.796875 27.984375 
Q 14.796875 18.265625 18.828125 12.890625 
Q 22.859375 7.515625 30.078125 7.515625 
Q 37.359375 7.515625 41.375 12.890625 
Q 45.40625 18.265625 45.40625 27.984375 
z
M 54.390625 6.78125 
Q 54.390625 -7.171875 48.1875 -13.984375 
Q 42 -20.796875 29.203125 -20.796875 
Q 24.46875 -20.796875 20.265625 -20.09375 
Q 16.0625 -19.390625 12.109375 -17.921875 
L 12.109375 -9.1875 
Q 16.0625 -11.328125 19.921875 -12.34375 
Q 23.78125 -13.375 27.78125 -13.375 
Q 36.625 -13.375 41.015625 -8.765625 
Q 45.40625 -4.15625 45.40625 5.171875 
L 45.40625 9.625 
Q 42.625 4.78125 38.28125 2.390625 
Q 33.9375 0 27.875 0 
Q 17.828125 0 11.671875 7.65625 
Q 5.515625 15.328125 5.515625 27.984375 
Q 5.515625 40.671875 11.671875 48.328125 
Q 17.828125 56 27.875 56 
Q 33.9375 56 38.28125 53.609375 
Q 42.625 51.21875 45.40625 46.390625 
L 45.40625 54.6875 
L 54.390625 54.6875 
z
" id="DejaVuSans-103"/>
     </defs>
     <g transform="translate(107.4 80.731875)scale(0.12 -0.12)">
      <use xlink:href="#DejaVuSans-77"/>
      <use x="86.279297" xlink:href="#DejaVuSans-105"/>
      <use x="114.0625" xlink:href="#DejaVuSans-110"/>
      <use x="177.441406" xlink:href="#DejaVuSans-100"/>
      <use x="240.917969" xlink:href="#DejaVuSans-32"/>
      <use x="272.705078" xlink:href="#DejaVuSans-87"/>
      <use x="371.488281" xlink:href="#DejaVuSans-97"/>
      <use x="432.767578" xlink:href="#DejaVuSans-110"/>
      <use x="496.146484" xlink:href="#DejaVuSans-100"/>
      <use x="559.623047" xlink:href="#DejaVuSans-101"/>
      <use x="621.146484" xlink:href="#DejaVuSans-114"/>
      <use x="662.259766" xlink:href="#DejaVuSans-105"/>
      <use x="690.042969" xlink:href="#DejaVuSans-110"/>
      <use x="753.421875" xlink:href="#DejaVuSans-103"/>
     </g>
    </g>
   </g>
   <g id="PolyCollection_1">
    <defs>
     <path d="M 63 -168.143888 
L 63 -168.143888 
L 66.201639 -149.662594 
L 69.403279 -122.658391 
L 72.604918 -100.268876 
L 75.806557 -92.224394 
L 79.008197 -99.428685 
L 82.209836 -115.753016 
L 85.411475 -133.968015 
L 88.613115 -149.698006 
L 91.814754 -161.345929 
L 95.016393 -169.396127 
L 98.218033 -176.001328 
L 101.419672 -183.642266 
L 104.621311 -192.975195 
L 107.822951 -201.965758 
L 111.02459 -207.785721 
L 114.22623 -209.236562 
L 117.427869 -207.174126 
L 120.629508 -203.293972 
L 123.831148 -200.295076 
L 127.032787 -202.267588 
L 130.234426 -212.189564 
L 133.436066 -227.924866 
L 136.637705 -241.648869 
L 139.839344 -244.224159 
L 143.040984 -231.533341 
L 146.242623 -207.418078 
L 149.444262 -181.388076 
L 152.645902 -164.133781 
L 155.847541 -162.674628 
L 159.04918 -175.904269 
L 162.25082 -193.602555 
L 165.452459 -202.134082 
L 168.654098 -193.687947 
L 171.855738 -171.777881 
L 175.057377 -148.767441 
L 178.259016 -137.437512 
L 181.460656 -143.887657 
L 184.662295 -165.208574 
L 187.863934 -191.131443 
L 191.065574 -208.523934 
L 194.267213 -208.630865 
L 197.468852 -192.637771 
L 200.670492 -170.726789 
L 203.872131 -155.134339 
L 207.07377 -152.407589 
L 210.27541 -161.101349 
L 213.477049 -174.825515 
L 216.678689 -186.516519 
L 219.880328 -191.21795 
L 223.081967 -188.370475 
L 226.283607 -182.211053 
L 229.485246 -178.378885 
L 232.686885 -178.968111 
L 235.888525 -180.566297 
L 239.090164 -177.520308 
L 242.291803 -167.135782 
L 245.493443 -151.979903 
L 248.695082 -137.821049 
L 251.896721 -130.845628 
L 255.098361 -135.372833 
L 258.3 -151.053644 
L 261.501639 -171.302726 
L 264.703279 -185.9899 
L 267.904918 -187.62256 
L 271.106557 -176.327631 
L 274.308197 -159.375058 
L 277.509836 -145.983289 
L 280.711475 -142.799322 
L 283.913115 -151.734008 
L 287.114754 -169.054943 
L 290.316393 -186.319756 
L 293.518033 -194.9182 
L 296.719672 -191.774448 
L 299.921311 -181.397168 
L 303.122951 -172.188017 
L 306.32459 -169.931324 
L 309.52623 -174.309849 
L 312.727869 -179.881193 
L 315.929508 -179.073035 
L 319.131148 -165.298173 
L 322.332787 -137.347302 
L 325.534426 -102.051007 
L 328.736066 -71.755396 
L 331.937705 -57.354545 
L 335.139344 -61.781595 
L 338.340984 -79.494332 
L 341.542623 -100.979865 
L 344.744262 -117.895165 
L 347.945902 -126.021 
L 351.147541 -127.038308 
L 354.34918 -127.940643 
L 357.55082 -136.572372 
L 360.752459 -155.735721 
L 363.954098 -180.869727 
L 367.155738 -203.641154 
L 370.357377 -217.961642 
L 373.559016 -223.29998 
L 376.760656 -223.580503 
L 379.962295 -225.020997 
L 383.163934 -233.756273 
L 386.365574 -252.170557 
L 389.567213 -276.125337 
L 392.768852 -296.455373 
L 395.970492 -304.445455 
L 399.172131 -297.25633 
L 402.37377 -278.879464 
L 405.57541 -256.818194 
L 408.777049 -238.55236 
L 411.978689 -229.014092 
L 415.180328 -228.128766 
L 418.381967 -230.070383 
L 421.583607 -226.928369 
L 424.785246 -215.152868 
L 427.986885 -199.064662 
L 431.188525 -188.097038 
L 434.390164 -189.757133 
L 437.591803 -204.57267 
L 440.793443 -225.555409 
L 443.995082 -241.371565 
L 447.196721 -241.41098 
L 450.398361 -222.642697 
L 453.6 -193.431139 
L 453.6 -193.431139 
L 453.6 -193.431139 
L 450.398361 -222.642697 
L 447.196721 -241.41098 
L 443.995082 -241.371565 
L 440.793443 -225.555409 
L 437.591803 -204.57267 
L 434.390164 -189.757133 
L 431.188525 -188.097038 
L 427.986885 -199.064662 
L 424.785246 -215.152868 
L 421.583607 -226.928369 
L 418.381967 -230.070383 
L 415.180328 -228.128766 
L 411.978689 -229.014092 
L 408.777049 -238.55236 
L 405.57541 -256.818194 
L 402.37377 -278.879464 
L 399.172131 -297.25633 
L 395.970492 -304.445455 
L 392.768852 -296.455373 
L 389.567213 -276.125337 
L 386.365574 -252.170557 
L 383.163934 -233.756273 
L 379.962295 -225.020997 
L 376.760656 -223.580503 
L 373.559016 -223.29998 
L 370.357377 -217.961642 
L 367.155738 -203.641154 
L 363.954098 -180.869727 
L 360.752459 -155.735721 
L 357.55082 -136.572372 
L 354.34918 -127.940643 
L 351.147541 -127.038308 
L 347.945902 -126.021 
L 344.744262 -117.895165 
L 341.542623 -100.979865 
L 338.340984 -79.494332 
L 335.139344 -61.781595 
L 331.937705 -57.354545 
L 328.736066 -71.755396 
L 325.534426 -102.051007 
L 322.332787 -137.347302 
L 319.131148 -165.298173 
L 315.929508 -179.073035 
L 312.727869 -179.881193 
L 309.52623 -174.309849 
L 306.32459 -169.931324 
L 303.122951 -172.188017 
L 299.921311 -181.397168 
L 296.719672 -191.774448 
L 293.518033 -194.9182 
L 290.316393 -186.319756 
L 287.114754 -169.054943 
L 283.913115 -151.734008 
L 280.711475 -142.799322 
L 277.509836 -145.983289 
L 274.308197 -159.375058 
L 271.106557 -176.327631 
L 267.904918 -187.62256 
L 264.703279 -185.9899 
L 261.501639 -171.302726 
L 258.3 -151.053644 
L 255.098361 -135.372833 
L 251.896721 -130.845628 
L 248.695082 -137.821049 
L 245.493443 -151.979903 
L 242.291803 -167.135782 
L 239.090164 -177.520308 
L 235.888525 -180.566297 
L 232.686885 -178.968111 
L 229.485246 -178.378885 
L 226.283607 -182.211053 
L 223.081967 -188.370475 
L 219.880328 -191.21795 
L 216.678689 -186.516519 
L 213.477049 -174.825515 
L 210.27541 -161.101349 
L 207.07377 -152.407589 
L 203.872131 -155.134339 
L 200.670492 -170.726789 
L 197.468852 -192.637771 
L 194.267213 -208.630865 
L 191.065574 -208.523934 
L 187.863934 -191.131443 
L 184.662295 -165.208574 
L 181.460656 -143.887657 
L 178.259016 -137.437512 
L 175.057377 -148.767441 
L 171.855738 -171.777881 
L 168.654098 -193.687947 
L 165.452459 -202.134082 
L 162.25082 -193.602555 
L 159.04918 -175.904269 
L 155.847541 -162.674628 
L 152.645902 -164.133781 
L 149.444262 -181.388076 
L 146.242623 -207.418078 
L 143.040984 -231.533341 
L 139.839344 -244.224159 
L 136.637705 -241.648869 
L 133.436066 -227.924866 
L 130.234426 -212.189564 
L 127.032787 -202.267588 
L 123.831148 -200.295076 
L 120.629508 -203.293972 
L 117.427869 -207.174126 
L 114.22623 -209.236562 
L 111.02459 -207.785721 
L 107.822951 -201.965758 
L 104.621311 -192.975195 
L 101.419672 -183.642266 
L 98.218033 -176.001328 
L 95.016393 -169.396127 
L 91.814754 -161.345929 
L 88.613115 -149.698006 
L 85.411475 -133.968015 
L 82.209836 -115.753016 
L 79.008197 -99.428685 
L 75.806557 -92.224394 
L 72.604918 -100.268876 
L 69.403279 -122.658391 
L 66.201639 -149.662594 
L 63 -168.143888 
z
" id="m66831faab2" style="stroke:#1f77b4;stroke-opacity:0.3;"/>
    </defs>
    <g>
     <use style="fill:#1f77b4;fill-opacity:0.3;stroke:#1f77b4;stroke-opacity:0.3;" x="0" xlink:href="#m66831faab2" y="360"/>
    </g>
   </g>
   <g id="PolyCollection_2">
    <defs>
     <path d="M 63 -176.097234 
L 63 -176.097234 
L 66.201639 -155.962257 
L 69.403279 -153.480477 
L 72.604918 -169.734881 
L 75.806557 -194.638578 
L 79.008197 -213.690736 
L 82.209836 -216.801171 
L 85.411475 -204.05813 
L 88.613115 -184.500747 
L 91.814754 -169.580859 
L 95.016393 -166.389169 
L 98.218033 -173.818226 
L 101.419672 -183.498186 
L 104.621311 -185.057949 
L 107.822951 -172.392327 
L 111.02459 -147.217906 
L 114.22623 -118.331477 
L 117.427869 -96.958802 
L 120.629508 -90.717088 
L 123.831148 -100.404982 
L 127.032787 -119.938607 
L 130.234426 -139.256591 
L 133.436066 -149.401102 
L 136.637705 -147.285489 
L 139.839344 -137.19979 
L 143.040984 -128.08386 
L 146.242623 -128.177716 
L 149.444262 -139.478321 
L 152.645902 -156.476115 
L 155.847541 -169.426681 
L 159.04918 -170.128713 
L 162.25082 -157.277569 
L 165.452459 -138.262164 
L 168.654098 -125.290165 
L 171.855738 -128.051542 
L 175.057377 -147.562484 
L 178.259016 -174.801492 
L 181.460656 -195.778647 
L 184.662295 -199.650546 
L 187.863934 -184.551273 
L 191.065574 -158.23459 
L 194.267213 -134.078446 
L 197.468852 -123.792578 
L 200.670492 -131.301601 
L 203.872131 -151.273437 
L 207.07377 -172.757933 
L 210.27541 -185.436761 
L 213.477049 -185.256456 
L 216.678689 -175.711246 
L 219.880328 -164.804427 
L 223.081967 -160.373022 
L 226.283607 -165.319383 
L 229.485246 -175.420662 
L 232.686885 -181.419977 
L 235.888525 -174.458034 
L 239.090164 -151.70681 
L 242.291803 -119.057958 
L 245.493443 -88.704482 
L 248.695082 -72.492671 
L 251.896721 -75.790742 
L 255.098361 -94.362105 
L 258.3 -116.241566 
L 261.501639 -128.411706 
L 264.703279 -124.580731 
L 267.904918 -108.815649 
L 271.106557 -92.659545 
L 274.308197 -87.82934 
L 277.509836 -98.372281 
L 280.711475 -118.524082 
L 283.913115 -136.826256 
L 287.114754 -143.598861 
L 290.316393 -137.372716 
L 293.518033 -126.443299 
L 296.719672 -123.661572 
L 299.921311 -137.733895 
L 303.122951 -166.997745 
L 306.32459 -199.180514 
L 309.52623 -218.284966 
L 312.727869 -214.042677 
L 315.929508 -187.646636 
L 319.131148 -150.780497 
L 322.332787 -119.391983 
L 325.534426 -104.965657 
L 328.736066 -108.554314 
L 331.937705 -121.290542 
L 335.139344 -130.8438 
L 338.340984 -129.525248 
L 341.542623 -119.333864 
L 344.744262 -110.124011 
L 347.945902 -112.674453 
L 351.147541 -131.749528 
L 354.34918 -162.469747 
L 357.55082 -192.16182 
L 360.752459 -207.138516 
L 363.954098 -200.379913 
L 367.155738 -175.388512 
L 370.357377 -144.329254 
L 373.559016 -121.346204 
L 376.760656 -114.901201 
L 379.962295 -124.569828 
L 383.163934 -142.645605 
L 386.365574 -159.081067 
L 389.567213 -167.173182 
L 392.768852 -167.107946 
L 395.970492 -164.979584 
L 399.172131 -168.255049 
L 402.37377 -180.817252 
L 405.57541 -199.910415 
L 408.777049 -217.860736 
L 411.978689 -226.730068 
L 415.180328 -222.946031 
L 418.381967 -209.749404 
L 421.583607 -196.456775 
L 424.785246 -193.897177 
L 427.986885 -208.250455 
L 431.188525 -237.035398 
L 434.390164 -269.104019 
L 437.591803 -289.776512 
L 440.793443 -288.362537 
L 443.995082 -263.553759 
L 447.196721 -224.288381 
L 450.398361 -186.093924 
L 453.6 -163.622346 
L 453.6 -163.622346 
L 453.6 -163.622346 
L 450.398361 -186.093924 
L 447.196721 -224.288381 
L 443.995082 -263.553759 
L 440.793443 -288.362537 
L 437.591803 -289.776512 
L 434.390164 -269.104019 
L 431.188525 -237.035398 
L 427.986885 -208.250455 
L 424.785246 -193.897177 
L 421.583607 -196.456775 
L 418.381967 -209.749404 
L 415.180328 -222.946031 
L 411.978689 -226.730068 
L 408.777049 -217.860736 
L 405.57541 -199.910415 
L 402.37377 -180.817252 
L 399.172131 -168.255049 
L 395.970492 -164.979584 
L 392.768852 -167.107946 
L 389.567213 -167.173182 
L 386.365574 -159.081067 
L 383.163934 -142.645605 
L 379.962295 -124.569828 
L 376.760656 -114.901201 
L 373.559016 -121.346204 
L 370.357377 -144.329254 
L 367.155738 -175.388512 
L 363.954098 -200.379913 
L 360.752459 -207.138516 
L 357.55082 -192.16182 
L 354.34918 -162.469747 
L 351.147541 -131.749528 
L 347.945902 -112.674453 
L 344.744262 -110.124011 
L 341.542623 -119.333864 
L 338.340984 -129.525248 
L 335.139344 -130.8438 
L 331.937705 -121.290542 
L 328.736066 -108.554314 
L 325.534426 -104.965657 
L 322.332787 -119.391983 
L 319.131148 -150.780497 
L 315.929508 -187.646636 
L 312.727869 -214.042677 
L 309.52623 -218.284966 
L 306.32459 -199.180514 
L 303.122951 -166.997745 
L 299.921311 -137.733895 
L 296.719672 -123.661572 
L 293.518033 -126.443299 
L 290.316393 -137.372716 
L 287.114754 -143.598861 
L 283.913115 -136.826256 
L 280.711475 -118.524082 
L 277.509836 -98.372281 
L 274.308197 -87.82934 
L 271.106557 -92.659545 
L 267.904918 -108.815649 
L 264.703279 -124.580731 
L 261.501639 -128.411706 
L 258.3 -116.241566 
L 255.098361 -94.362105 
L 251.896721 -75.790742 
L 248.695082 -72.492671 
L 245.493443 -88.704482 
L 242.291803 -119.057958 
L 239.090164 -151.70681 
L 235.888525 -174.458034 
L 232.686885 -181.419977 
L 229.485246 -175.420662 
L 226.283607 -165.319383 
L 223.081967 -160.373022 
L 219.880328 -164.804427 
L 216.678689 -175.711246 
L 213.477049 -185.256456 
L 210.27541 -185.436761 
L 207.07377 -172.757933 
L 203.872131 -151.273437 
L 200.670492 -131.301601 
L 197.468852 -123.792578 
L 194.267213 -134.078446 
L 191.065574 -158.23459 
L 187.863934 -184.551273 
L 184.662295 -199.650546 
L 181.460656 -195.778647 
L 178.259016 -174.801492 
L 175.057377 -147.562484 
L 171.855738 -128.051542 
L 168.654098 -125.290165 
L 165.452459 -138.262164 
L 162.25082 -157.277569 
L 159.04918 -170.128713 
L 155.847541 -169.426681 
L 152.645902 -156.476115 
L 149.444262 -139.478321 
L 146.242623 -128.177716 
L 143.040984 -128.08386 
L 139.839344 -137.19979 
L 136.637705 -147.285489 
L 133.436066 -149.401102 
L 130.234426 -139.256591 
L 127.032787 -119.938607 
L 123.831148 -100.404982 
L 120.629508 -90.717088 
L 117.427869 -96.958802 
L 114.22623 -118.331477 
L 111.02459 -147.217906 
L 107.822951 -172.392327 
L 104.621311 -185.057949 
L 101.419672 -183.498186 
L 98.218033 -173.818226 
L 95.016393 -166.389169 
L 91.814754 -169.580859 
L 88.613115 -184.500747 
L 85.411475 -204.05813 
L 82.209836 -216.801171 
L 79.008197 -213.690736 
L 75.806557 -194.638578 
L 72.604918 -169.734881 
L 69.403279 -153.480477 
L 66.201639 -155.962257 
L 63 -176.097234 
z
" id="m59a08b0a92" style="stroke:#ff7f0e;stroke-opacity:0.3;"/>
    </defs>
    <g>
     <use style="fill:#ff7f0e;fill-opacity:0.3;stroke:#ff7f0e;stroke-opacity:0.3;" x="0" xlink:href="#m59a08b0a92" y="360"/>
    </g>
   </g>
   <g id="line2d_16">
    <path d="M 63 191.856112 
L 66.201639 210.337406 
L 69.403279 237.341609 
L 72.604918 259.731124 
L 75.806557 267.775606 
L 79.008197 260.571315 
L 82.209836 244.246984 
L 85.411475 226.031985 
L 88.613115 210.301994 
L 91.814754 198.654071 
L 95.016393 190.603873 
L 98.218033 183.998672 
L 101.419672 176.357734 
L 104.621311 167.024805 
L 107.822951 158.034242 
L 111.02459 152.214279 
L 114.22623 150.763438 
L 117.427869 152.825874 
L 120.629508 156.706028 
L 123.831148 159.704924 
L 127.032787 157.732412 
L 130.234426 147.810436 
L 133.436066 132.075134 
L 136.637705 118.351131 
L 139.839344 115.775841 
L 143.040984 128.466659 
L 146.242623 152.581922 
L 149.444262 178.611924 
L 152.645902 195.866219 
L 155.847541 197.325372 
L 159.04918 184.095731 
L 162.25082 166.397445 
L 165.452459 157.865918 
L 168.654098 166.312053 
L 171.855738 188.222119 
L 175.057377 211.232559 
L 178.259016 222.562488 
L 181.460656 216.112343 
L 184.662295 194.791426 
L 187.863934 168.868557 
L 191.065574 151.476066 
L 194.267213 151.369135 
L 197.468852 167.362229 
L 200.670492 189.273211 
L 203.872131 204.865661 
L 207.07377 207.592411 
L 210.27541 198.898651 
L 213.477049 185.174485 
L 216.678689 173.483481 
L 219.880328 168.78205 
L 223.081967 171.629525 
L 226.283607 177.788947 
L 229.485246 181.621115 
L 232.686885 181.031889 
L 235.888525 179.433703 
L 239.090164 182.479692 
L 242.291803 192.864218 
L 245.493443 208.020097 
L 248.695082 222.178951 
L 251.896721 229.154372 
L 255.098361 224.627167 
L 258.3 208.946356 
L 261.501639 188.697274 
L 264.703279 174.0101 
L 267.904918 172.37744 
L 271.106557 183.672369 
L 274.308197 200.624942 
L 277.509836 214.016711 
L 280.711475 217.200678 
L 283.913115 208.265992 
L 287.114754 190.945057 
L 290.316393 173.680244 
L 293.518033 165.0818 
L 296.719672 168.225552 
L 299.921311 178.602832 
L 303.122951 187.811983 
L 306.32459 190.068676 
L 309.52623 185.690151 
L 312.727869 180.118807 
L 315.929508 180.926965 
L 319.131148 194.701827 
L 322.332787 222.652698 
L 325.534426 257.948993 
L 328.736066 288.244604 
L 331.937705 302.645455 
L 335.139344 298.218405 
L 338.340984 280.505668 
L 341.542623 259.020135 
L 344.744262 242.104835 
L 347.945902 233.979 
L 351.147541 232.961692 
L 354.34918 232.059357 
L 357.55082 223.427628 
L 360.752459 204.264279 
L 363.954098 179.130273 
L 367.155738 156.358846 
L 370.357377 142.038358 
L 373.559016 136.70002 
L 376.760656 136.419497 
L 379.962295 134.979003 
L 383.163934 126.243727 
L 386.365574 107.829443 
L 389.567213 83.874663 
L 392.768852 63.544627 
L 395.970492 55.554545 
L 399.172131 62.74367 
L 402.37377 81.120536 
L 405.57541 103.181806 
L 408.777049 121.44764 
L 411.978689 130.985908 
L 415.180328 131.871234 
L 418.381967 129.929617 
L 421.583607 133.071631 
L 424.785246 144.847132 
L 427.986885 160.935338 
L 431.188525 171.902962 
L 434.390164 170.242867 
L 437.591803 155.42733 
L 440.793443 134.444591 
L 443.995082 118.628435 
L 447.196721 118.58902 
L 450.398361 137.357303 
L 453.6 166.568861 
" style="fill:none;stroke:#1f77b4;stroke-linecap:square;stroke-width:1.5;"/>
   </g>
   <g id="line2d_17">
    <path d="M 63 183.902766 
L 66.201639 204.037743 
L 69.403279 206.519523 
L 72.604918 190.265119 
L 75.806557 165.361422 
L 79.008197 146.309264 
L 82.209836 143.198829 
L 85.411475 155.94187 
L 88.613115 175.499253 
L 91.814754 190.419141 
L 95.016393 193.610831 
L 98.218033 186.181774 
L 101.419672 176.501814 
L 104.621311 174.942051 
L 107.822951 187.607673 
L 111.02459 212.782094 
L 114.22623 241.668523 
L 117.427869 263.041198 
L 120.629508 269.282912 
L 123.831148 259.595018 
L 127.032787 240.061393 
L 130.234426 220.743409 
L 133.436066 210.598898 
L 136.637705 212.714511 
L 139.839344 222.80021 
L 143.040984 231.91614 
L 146.242623 231.822284 
L 149.444262 220.521679 
L 152.645902 203.523885 
L 155.847541 190.573319 
L 159.04918 189.871287 
L 162.25082 202.722431 
L 165.452459 221.737836 
L 168.654098 234.709835 
L 171.855738 231.948458 
L 175.057377 212.437516 
L 178.259016 185.198508 
L 181.460656 164.221353 
L 184.662295 160.349454 
L 187.863934 175.448727 
L 191.065574 201.76541 
L 194.267213 225.921554 
L 197.468852 236.207422 
L 200.670492 228.698399 
L 203.872131 208.726563 
L 207.07377 187.242067 
L 210.27541 174.563239 
L 213.477049 174.743544 
L 216.678689 184.288754 
L 219.880328 195.195573 
L 223.081967 199.626978 
L 226.283607 194.680617 
L 229.485246 184.579338 
L 232.686885 178.580023 
L 235.888525 185.541966 
L 239.090164 208.29319 
L 242.291803 240.942042 
L 245.493443 271.295518 
L 248.695082 287.507329 
L 251.896721 284.209258 
L 255.098361 265.637895 
L 258.3 243.758434 
L 261.501639 231.588294 
L 264.703279 235.419269 
L 267.904918 251.184351 
L 271.106557 267.340455 
L 274.308197 272.17066 
L 277.509836 261.627719 
L 280.711475 241.475918 
L 283.913115 223.173744 
L 287.114754 216.401139 
L 290.316393 222.627284 
L 293.518033 233.556701 
L 296.719672 236.338428 
L 299.921311 222.266105 
L 303.122951 193.002255 
L 306.32459 160.819486 
L 309.52623 141.715034 
L 312.727869 145.957323 
L 315.929508 172.353364 
L 319.131148 209.219503 
L 322.332787 240.608017 
L 325.534426 255.034343 
L 328.736066 251.445686 
L 331.937705 238.709458 
L 335.139344 229.1562 
L 338.340984 230.474752 
L 341.542623 240.666136 
L 344.744262 249.875989 
L 347.945902 247.325547 
L 351.147541 228.250472 
L 354.34918 197.530253 
L 357.55082 167.83818 
L 360.752459 152.861484 
L 363.954098 159.620087 
L 367.155738 184.611488 
L 370.357377 215.670746 
L 373.559016 238.653796 
L 376.760656 245.098799 
L 379.962295 235.430172 
L 383.163934 217.354395 
L 386.365574 200.918933 
L 389.567213 192.826818 
L 392.768852 192.892054 
L 395.970492 195.020416 
L 399.172131 191.744951 
L 402.37377 179.182748 
L 405.57541 160.089585 
L 408.777049 142.139264 
L 411.978689 133.269932 
L 415.180328 137.053969 
L 418.381967 150.250596 
L 421.583607 163.543225 
L 424.785246 166.102823 
L 427.986885 151.749545 
L 431.188525 122.964602 
L 434.390164 90.895981 
L 437.591803 70.223488 
L 440.793443 71.637463 
L 443.995082 96.446241 
L 447.196721 135.711619 
L 450.398361 173.906076 
L 453.6 196.377654 
" style="fill:none;stroke:#ff7f0e;stroke-linecap:square;stroke-width:1.5;"/>
   </g>
  </g>
  <g id="axes_2">
   <g id="PathCollection_1">
    <defs>
     <path d="M 0 1.118034 
C 0.296506 1.118034 0.580908 1.000231 0.790569 0.790569 
C 1.000231 0.580908 1.118034 0.296506 1.118034 0 
C 1.118034 -0.296506 1.000231 -0.580908 0.790569 -0.790569 
C 0.580908 -1.000231 0.296506 -1.118034 0 -1.118034 
C -0.296506 -1.118034 -0.580908 -1.000231 -0.790569 -0.790569 
C -1.000231 -0.580908 -1.118034 -0.296506 -1.118034 0 
C -1.118034 0.296506 -1.000231 0.580908 -0.790569 0.790569 
C -0.580908 1.000231 -0.296506 1.118034 0 1.118034 
z
" id="mb757c935e4" style="stroke:#000000;"/>
    </defs>
    <g clip-path="url(#p040cfa5337)">
     <use style="stroke:#000000;" x="413.418345" xlink:href="#mb757c935e4" y="266.809697"/>
    </g>
   </g>
   <g id="matplotlib.axis_3"/>
   <g id="matplotlib.axis_4"/>
   <g id="line2d_18">
    <path d="M 441.813318 277.179863 
L 441.757179 275.375797 
L 441.588984 273.578851 
L 441.309395 271.796116 
L 440.919517 270.034629 
L 440.420888 268.30134 
L 439.815476 266.603092 
L 439.105671 264.946584 
L 438.294273 263.338356 
L 437.384485 261.784754 
L 436.379897 260.29191 
L 435.284475 258.865715 
L 434.10254 257.511797 
L 432.838759 256.2355 
L 431.498117 255.041861 
L 430.085907 253.93559 
L 428.607701 252.921054 
L 427.069334 252.002256 
L 425.476876 251.182823 
L 423.836612 250.465988 
L 422.155016 249.854581 
L 420.438724 249.351014 
L 418.69451 248.957275 
L 416.929257 248.674918 
L 415.149932 248.505057 
L 413.363556 248.448362 
L 411.577181 248.505057 
L 409.797856 248.674918 
L 408.032603 248.957275 
L 406.288388 249.351014 
L 404.572096 249.854581 
L 402.8905 250.465988 
L 401.250237 251.182823 
L 399.657779 252.002256 
L 398.119412 252.921054 
L 396.641206 253.93559 
L 395.228995 255.041861 
L 393.888354 256.2355 
L 392.624572 257.511797 
L 391.442638 258.865715 
L 390.347215 260.29191 
L 389.342628 261.784754 
L 388.43284 263.338356 
L 387.621442 264.946584 
L 386.911637 266.603092 
L 386.306225 268.30134 
L 385.807596 270.034629 
L 385.417718 271.796116 
L 385.138129 273.578851 
L 384.969933 275.375797 
L 384.913794 277.179863 
L 384.969933 278.983928 
L 385.138129 280.780875 
L 385.417718 282.563609 
L 385.807596 284.325096 
L 386.306225 286.058385 
L 386.911637 287.756634 
L 387.621442 289.413141 
L 388.43284 291.021369 
L 389.342628 292.574971 
L 390.347215 294.067815 
L 391.442638 295.494011 
L 392.624572 296.847928 
L 393.888354 298.124225 
L 395.228995 299.317865 
L 396.641206 300.424135 
L 398.119412 301.438671 
L 399.657779 302.357469 
L 401.250237 303.176902 
L 402.8905 303.893737 
L 404.572096 304.505144 
L 406.288388 305.008711 
L 408.032603 305.40245 
L 409.797856 305.684807 
L 411.577181 305.854669 
L 413.363556 305.911364 
L 415.149932 305.854669 
L 416.929257 305.684807 
L 418.69451 305.40245 
L 420.438724 305.008711 
L 422.155016 304.505144 
L 423.836612 303.893737 
L 425.476876 303.176902 
L 427.069334 302.357469 
L 428.607701 301.438671 
L 430.085907 300.424135 
L 431.498117 299.317865 
L 432.838759 298.124225 
L 434.10254 296.847928 
L 435.284475 295.494011 
L 436.379897 294.067815 
L 437.384485 292.574971 
L 438.294273 291.021369 
L 439.105671 289.413141 
L 439.815476 287.756634 
L 440.420888 286.058385 
L 440.919517 284.325096 
L 441.309395 282.563609 
L 441.588984 280.780875 
L 441.757179 278.983928 
L 441.813318 277.179863 
" style="fill:none;stroke:#000000;stroke-linecap:square;"/>
   </g>
   <g id="line2d_19">
    <path d="M 418.484514 248.678214 
L 413.363556 244.138636 
L 408.242599 248.678214 
" style="fill:none;stroke:#000000;stroke-linecap:square;"/>
   </g>
   <g id="line2d_20">
    <path d="M 441.64262 273.990666 
L 442.382314 272.72648 
L 442.83751 272.68051 
L 443.514614 272.893123 
L 444.197408 273.990666 
L 444.089299 277.495909 
L 444.487596 282.535414 
L 443.634103 284.724755 
L 442.382314 285.132742 
L 441.187424 284.069677 
" style="fill:none;stroke:#000000;stroke-linecap:square;"/>
   </g>
   <g id="line2d_21">
    <path d="M 385.084493 273.990666 
L 384.344799 272.72648 
L 383.889603 272.68051 
L 383.212499 272.893123 
L 382.529704 273.990666 
L 382.637813 277.495909 
L 382.239517 282.535414 
L 383.09301 284.724755 
L 384.344799 285.132742 
L 385.539689 284.069677 
" style="fill:none;stroke:#000000;stroke-linecap:square;"/>
   </g>
   <g id="line2d_22">
    <path d="M 441.813318 248.448362 
" style="fill:none;stroke:#000000;stroke-linecap:square;"/>
   </g>
  </g>
 </g>
 <defs>
  <clipPath id="pc5818ca2b1">
   <rect height="271.8" width="390.6" x="63" y="43.2"/>
  </clipPath>
  <clipPath id="p040cfa5337">
   <rect height="67.95" width="68.472887" x="379.127113" y="241.05"/>
  </clipPath>
 </defs>
</svg>
